<svg width="66" height="66" viewBox="0 0 66 66" fill="none" xmlns="http://www.w3.org/2000/svg">
<g filter="url(#filter0_d_1424_114)">
<g clip-path="url(#clip0_1424_114)">
<path fill-rule="evenodd" clip-rule="evenodd" d="M33 56.5455C46.556 56.5455 57.5455 45.5559 57.5455 32C57.5455 18.4455 46.556 7.45454 33 7.45454C19.4455 7.45454 8.45459 18.4455 8.45459 32C8.45459 45.5559 19.4455 56.5455 33 56.5455Z" fill="#D9D9D9"/>
<mask id="mask0_1424_114" style="mask-type:luminance" maskUnits="userSpaceOnUse" x="3" y="2" width="60" height="60">
<path d="M63 2H3V62H63V2Z" fill="white"/>
<path fill-rule="evenodd" clip-rule="evenodd" d="M33 56.5455C46.556 56.5455 57.5455 45.5559 57.5455 32C57.5455 18.4455 46.556 7.45454 33 7.45454C19.4455 7.45454 8.45459 18.4455 8.45459 32C8.45459 45.5559 19.4455 56.5455 33 56.5455Z" fill="black"/>
</mask>
<g mask="url(#mask0_1424_114)">
<path d="M52.0909 32C52.0909 42.5435 43.5435 51.0909 33 51.0909V62C49.5683 62 63 48.5683 63 32H52.0909ZM33 12.9091C43.5432 12.9091 52.0909 21.4577 52.0909 32H63C63 15.4332 49.5686 2 33 2V12.9091ZM13.9091 32C13.9091 21.4579 22.4579 12.9091 33 12.9091V2C16.433 2 3 15.433 3 32H13.9091ZM33 51.0909C22.4577 51.0909 13.9091 42.5432 13.9091 32H3C3 48.5686 16.4332 62 33 62V51.0909Z" fill="white"/>
</g>
<path d="M57.5455 32C57.5455 45.5559 46.556 56.5455 33 56.5455C19.4455 56.5455 8.45459 45.5559 8.45459 32C8.45459 18.4455 19.4455 7.45454 33 7.45454C46.556 7.45454 57.5455 18.4455 57.5455 32Z" fill="#FFCC4D"/>
<path d="M24.1364 34.7273C26.0192 34.7273 27.5455 32.5905 27.5455 29.9546C27.5455 27.3186 26.0192 25.1818 24.1364 25.1818C22.2536 25.1818 20.7273 27.3186 20.7273 29.9546C20.7273 32.5905 22.2536 34.7273 24.1364 34.7273Z" fill="#664500"/>
<path d="M41.8637 34.7273C43.7465 34.7273 45.2728 32.5905 45.2728 29.9546C45.2728 27.3186 43.7465 25.1818 41.8637 25.1818C39.9809 25.1818 38.4546 27.3186 38.4546 29.9546C38.4546 32.5905 39.9809 34.7273 41.8637 34.7273Z" fill="#664500"/>
<path d="M42.5454 42.9091H23.4545C22.7017 42.9091 22.0908 42.2996 22.0908 41.5455C22.0908 40.7914 22.7017 40.1818 23.4545 40.1818H42.5454C43.2995 40.1818 43.909 40.7914 43.909 41.5455C43.909 42.2996 43.2995 42.9091 42.5454 42.9091Z" fill="#664500"/>
</g>
</g>
<defs>
<filter id="filter0_d_1424_114" x="0" y="0" width="66" height="66" filterUnits="userSpaceOnUse" color-interpolation-filters="sRGB">
<feFlood flood-opacity="0" result="BackgroundImageFix"/>
<feColorMatrix in="SourceAlpha" type="matrix" values="0 0 0 0 0 0 0 0 0 0 0 0 0 0 0 0 0 0 127 0" result="hardAlpha"/>
<feOffset dy="1"/>
<feGaussianBlur stdDeviation="1.5"/>
<feColorMatrix type="matrix" values="0 0 0 0 0 0 0 0 0 0 0 0 0 0 0 0 0 0 0.34902 0"/>
<feBlend mode="normal" in2="BackgroundImageFix" result="effect1_dropShadow_1424_114"/>
<feBlend mode="normal" in="SourceGraphic" in2="effect1_dropShadow_1424_114" result="shape"/>
</filter>
<clipPath id="clip0_1424_114">
<rect width="60" height="60" fill="white" transform="translate(3 2)"/>
</clipPath>
</defs>
</svg>
