<svg width="60" height="60" viewBox="0 0 60 60" fill="none" xmlns="http://www.w3.org/2000/svg">
<g clip-path="url(#clip0_1424_127)">
<path fill-rule="evenodd" clip-rule="evenodd" d="M30 54.5455C43.556 54.5455 54.5455 43.5559 54.5455 30C54.5455 16.4455 43.556 5.45454 30 5.45454C16.4455 5.45454 5.45459 16.4455 5.45459 30C5.45459 43.5559 16.4455 54.5455 30 54.5455Z" fill="#D9D9D9"/>
<mask id="mask0_1424_127" style="mask-type:luminance" maskUnits="userSpaceOnUse" x="0" y="0" width="60" height="60">
<path d="M60 0H0V60H60V0Z" fill="white"/>
<path fill-rule="evenodd" clip-rule="evenodd" d="M30 54.5455C43.556 54.5455 54.5455 43.5559 54.5455 30C54.5455 16.4455 43.556 5.45454 30 5.45454C16.4455 5.45454 5.45459 16.4455 5.45459 30C5.45459 43.5559 16.4455 54.5455 30 54.5455Z" fill="black"/>
</mask>
<g mask="url(#mask0_1424_127)">
<path d="M49.0909 30C49.0909 40.5435 40.5435 49.0909 30 49.0909V60C46.5683 60 60 46.5683 60 30H49.0909ZM30 10.9091C40.5432 10.9091 49.0909 19.4577 49.0909 30H60C60 13.4332 46.5686 0 30 0V10.9091ZM10.9091 30C10.9091 19.4579 19.4579 10.9091 30 10.9091V0C13.433 0 0 13.433 0 30H10.9091ZM30 49.0909C19.4577 49.0909 10.9091 40.5432 10.9091 30H0C0 46.5686 13.4332 60 30 60V49.0909Z" fill="white"/>
</g>
<path d="M54.5455 30C54.5455 43.5559 43.556 54.5455 30 54.5455C16.4455 54.5455 5.45459 43.5559 5.45459 30C5.45459 16.4455 16.4455 5.45454 30 5.45454C43.556 5.45454 54.5455 16.4455 54.5455 30Z" fill="#FFCC4D"/>
<path d="M21.1364 32.7273C23.0192 32.7273 24.5455 30.5905 24.5455 27.9546C24.5455 25.3186 23.0192 23.1818 21.1364 23.1818C19.2536 23.1818 17.7273 25.3186 17.7273 27.9546C17.7273 30.5905 19.2536 32.7273 21.1364 32.7273Z" fill="#664500"/>
<path d="M38.8637 32.7273C40.7465 32.7273 42.2728 30.5905 42.2728 27.9546C42.2728 25.3186 40.7465 23.1818 38.8637 23.1818C36.9809 23.1818 35.4546 25.3186 35.4546 27.9546C35.4546 30.5905 36.9809 32.7273 38.8637 32.7273Z" fill="#664500"/>
<path d="M21.8181 43.6364C24.5454 36.8182 39.5454 36.8182 39.5454 39.5455C39.5454 40.9091 28.6363 38.1818 21.8181 43.6364Z" fill="#664500"/>
</g>
<defs>
<clipPath id="clip0_1424_127">
<rect width="60" height="60" fill="white"/>
</clipPath>
</defs>
</svg>
