<svg width="17" height="17" viewBox="0 0 17 17" fill="none" xmlns="http://www.w3.org/2000/svg">
<path d="M12.5123 5.90144C12.5123 4.86435 12.1004 3.86974 11.367 3.1364C10.6337 2.40307 9.63907 1.99109 8.60198 1.99109C7.56489 1.99109 6.57028 2.40307 5.83694 3.1364C5.10361 3.86974 4.69163 4.86435 4.69163 5.90144C4.69163 10.4635 2.73645 11.767 2.73645 11.767H14.4675C14.4675 11.767 12.5123 10.4635 12.5123 5.90144Z" stroke="#475569" stroke-width="1.63074" stroke-linecap="round" stroke-linejoin="round"/>
<path d="M9.7294 14.3739C9.61482 14.5714 9.45036 14.7354 9.25248 14.8494C9.05461 14.9633 8.83026 15.0233 8.60191 15.0233C8.37356 15.0233 8.14922 14.9633 7.95134 14.8494C7.75347 14.7354 7.58901 14.5714 7.47443 14.3739" stroke="#475569" stroke-width="1.63074" stroke-linecap="round" stroke-linejoin="round"/>
</svg>
