<svg width="66" height="66" viewBox="0 0 66 66" fill="none" xmlns="http://www.w3.org/2000/svg">
<g filter="url(#filter0_d_1424_161)">
<g clip-path="url(#clip0_1424_161)">
<path fill-rule="evenodd" clip-rule="evenodd" d="M57.5455 32C57.5455 45.5559 46.556 56.5455 33 56.5455C19.4441 56.5455 8.45459 45.5559 8.45459 32C8.45459 28.3869 9.23527 24.9561 10.6371 21.8672C10.4181 21.5558 10.2188 21.2372 10.0419 20.9123C9.7855 20.51 9.56459 20.075 9.39823 19.6059C8.22686 16.2909 9.96959 12.6541 13.2832 11.4841C15.1531 10.8244 17.1245 11.0983 18.6978 12.0498C18.883 11.9167 19.0702 11.7862 19.2592 11.6583C19.9206 10.0288 21.2463 8.67327 23.0373 8.04227C24.5141 7.52187 26.054 7.57825 27.4113 8.09365C29.2065 7.67559 31.0775 7.45454 33 7.45454C34.9228 7.45454 36.7938 7.67562 38.5892 8.09373C39.9467 7.57825 41.4865 7.52184 42.9628 8.04227C44.7542 8.67338 46.0799 10.0293 46.7422 11.6591C46.931 11.787 47.1179 11.9173 47.303 12.0502C48.8763 11.0983 50.848 10.8243 52.7182 11.4841C56.0319 12.6541 57.7732 16.2909 56.6046 19.6059C56.4369 20.075 56.2173 20.51 55.9596 20.9123C55.7825 21.2376 55.583 21.5565 55.3634 21.8685C56.765 24.9571 57.5455 28.3875 57.5455 32Z" fill="#D9D9D9"/>
<mask id="mask0_1424_161" style="mask-type:luminance" maskUnits="userSpaceOnUse" x="3" y="2" width="60" height="60">
<path d="M63 2H3V62H63V2Z" fill="white"/>
<path fill-rule="evenodd" clip-rule="evenodd" d="M57.5455 32C57.5455 45.5559 46.556 56.5455 33 56.5455C19.4441 56.5455 8.45459 45.5559 8.45459 32C8.45459 28.3869 9.23527 24.9561 10.6371 21.8672C10.4181 21.5558 10.2188 21.2372 10.0419 20.9123C9.7855 20.51 9.56459 20.075 9.39823 19.6059C8.22686 16.2909 9.96959 12.6541 13.2832 11.4841C15.1531 10.8244 17.1245 11.0983 18.6978 12.0498C18.883 11.9167 19.0702 11.7862 19.2592 11.6583C19.9206 10.0288 21.2463 8.67327 23.0373 8.04227C24.5141 7.52187 26.054 7.57825 27.4113 8.09365C29.2065 7.67559 31.0775 7.45454 33 7.45454C34.9228 7.45454 36.7938 7.67562 38.5892 8.09373C39.9467 7.57825 41.4865 7.52184 42.9628 8.04227C44.7542 8.67338 46.0799 10.0293 46.7422 11.6591C46.931 11.787 47.1179 11.9173 47.303 12.0502C48.8763 11.0983 50.848 10.8243 52.7182 11.4841C56.0319 12.6541 57.7732 16.2909 56.6046 19.6059C56.4369 20.075 56.2173 20.51 55.9596 20.9123C55.7825 21.2376 55.583 21.5565 55.3634 21.8685C56.765 24.9571 57.5455 28.3875 57.5455 32Z" fill="black"/>
</mask>
<g mask="url(#mask0_1424_161)">
<path d="M10.6371 21.8672L15.6041 24.1215C16.4028 22.3614 16.2106 20.3102 15.0987 18.7294L10.6371 21.8672ZM10.0418 20.9123L14.8319 18.3032C14.7722 18.1936 14.7088 18.0861 14.6417 17.9809L10.0418 20.9123ZM9.39818 19.6059L4.25526 21.4232L4.25736 21.4291L9.39818 19.6059ZM13.2832 11.4841L11.4685 6.34025L11.4671 6.34074L13.2832 11.4841ZM18.6978 12.0498L15.875 16.7172C17.7435 17.8472 20.1059 17.754 21.8795 16.4802L18.6978 12.0498ZM19.2592 11.6583L22.3166 16.1754C23.2118 15.5695 23.9067 14.7112 24.3134 13.7096L19.2592 11.6583ZM27.4113 8.09365L25.4749 13.1929C26.488 13.5777 27.5928 13.6519 28.6482 13.4061L27.4113 8.09365ZM38.5891 8.09374L37.3519 13.4061C38.4075 13.6519 39.5123 13.5777 40.5255 13.193L38.5891 8.09374ZM46.7422 11.6591L41.6887 13.7123C42.0953 14.7131 42.79 15.5706 43.6845 16.1761L46.7422 11.6591ZM47.3029 12.0502L44.121 16.4805C45.8948 17.7545 48.2576 17.8476 50.1262 16.7172L47.3029 12.0502ZM52.7182 11.4841L54.5343 6.34074L54.5328 6.34025L52.7182 11.4841ZM56.6045 19.6059L61.7407 21.4423C61.7434 21.4347 61.7461 21.427 61.7487 21.4194L56.6045 19.6059ZM55.9595 20.9123L51.3667 17.9698C51.297 18.0786 51.2313 18.1898 51.1695 18.3032L55.9595 20.9123ZM55.3634 21.8685L50.9022 18.7299C49.79 20.3108 49.5976 22.3622 50.3963 24.1223L55.3634 21.8685ZM33 62C49.5683 62 63 48.5683 63 32H52.0909C52.0909 42.5435 43.5435 51.0909 33 51.0909V62ZM3 32C3 48.5683 16.4316 62 33 62V51.0909C22.4565 51.0909 13.9091 42.5435 13.9091 32H3ZM5.67014 19.613C3.95333 23.396 3 27.5941 3 32H13.9091C13.9091 29.1799 14.5171 26.5164 15.6041 24.1215L5.67014 19.613ZM5.25172 23.5213C5.53478 24.041 5.84532 24.5356 6.1755 25.0051L15.0987 18.7294C14.9907 18.5758 14.9028 18.4335 14.8319 18.3032L5.25172 23.5213ZM4.25736 21.4291C4.57754 22.332 4.9912 23.1364 5.44196 23.8437L14.6417 17.9809C14.5797 17.8836 14.5516 17.818 14.539 17.7827L4.25736 21.4291ZM11.4671 6.34074C5.31754 8.51209 2.07828 15.2622 4.25526 21.4232L14.5411 17.7886C14.3754 17.3196 14.6216 16.7961 15.0992 16.6275L11.4671 6.34074ZM21.5205 7.38238C18.6256 5.63166 14.9585 5.10904 11.4685 6.34025L15.0978 16.628C15.3476 16.5398 15.6232 16.5649 15.875 16.7172L21.5205 7.38238ZM16.2019 7.14109C15.9709 7.29741 15.7422 7.45688 15.5159 7.61938L21.8795 16.4802C22.0237 16.3765 22.1695 16.275 22.3166 16.1754L16.2019 7.14109ZM21.2249 2.89766C17.8834 4.07484 15.4228 6.60665 14.2051 9.60688L24.3134 13.7096C24.4182 13.451 24.609 13.2717 24.8497 13.1869L21.2249 2.89766ZM29.3475 2.99438C26.8301 2.03844 23.9621 1.93309 21.2249 2.89766L24.8497 13.1869C25.0661 13.1107 25.2777 13.1181 25.4749 13.1929L29.3475 2.99438ZM33 2C30.6581 2 28.3721 2.26941 26.1742 2.78124L28.6482 13.4061C30.0409 13.0818 31.4969 12.9091 33 12.9091V2ZM39.8262 2.78134C37.6282 2.26944 35.342 2 33 2V12.9091C34.5033 12.9091 35.9594 13.0818 37.3519 13.4061L39.8262 2.78134ZM40.5255 13.193C40.7232 13.1179 40.9342 13.1107 41.1492 13.1865L44.7762 2.89803C42.0387 1.93297 39.1699 2.03858 36.6528 2.99447L40.5255 13.193ZM41.1492 13.1865C41.3896 13.2713 41.5827 13.4512 41.6887 13.7123L51.7955 9.60598C50.5771 6.60739 48.1185 4.0755 44.7762 2.89803L41.1492 13.1865ZM50.4848 7.61993C50.2589 7.4576 50.0305 7.29834 49.7997 7.14219L43.6845 16.1761C43.8314 16.2756 43.977 16.3771 44.121 16.4805L50.4848 7.61993ZM50.1262 16.7172C50.378 16.5649 50.6538 16.5398 50.9036 16.6279L54.5328 6.34025C51.0423 5.10885 47.3746 5.63183 44.4795 7.38321L50.1262 16.7172ZM50.9021 16.6275C51.3777 16.7953 51.6271 17.3191 51.4604 17.7924L61.7487 21.4194C63.9192 15.2628 60.6859 8.51281 54.5343 6.34074L50.9021 16.6275ZM51.4684 17.7695C51.4497 17.8219 51.4192 17.8879 51.3667 17.9698L60.5524 23.8547C61.0154 23.1321 61.4239 22.3281 61.7407 21.4423L51.4684 17.7695ZM51.1695 18.3032C51.0985 18.4336 51.0105 18.5762 50.9022 18.7299L59.8246 25.0069C60.1553 24.5368 60.4662 24.0417 60.7496 23.5213L51.1695 18.3032ZM63 32C63 27.5946 62.047 23.397 60.3305 19.6145L50.3963 24.1223C51.483 26.5171 52.0909 29.1801 52.0909 32H63Z" fill="white"/>
</g>
<path d="M57.5455 32C57.5455 45.5559 46.556 56.5455 33 56.5455C19.4441 56.5455 8.45459 45.5559 8.45459 32C8.45459 18.4441 19.4441 7.45454 33 7.45454C46.556 7.45454 57.5455 18.4441 57.5455 32Z" fill="#FFCC4D"/>
<path d="M33 37.2486C28.9555 37.2486 26.2705 36.7768 22.9514 36.1318C22.1919 35.9873 20.7178 36.1318 20.7178 38.3655C20.7178 42.8314 25.8491 48.4141 33 48.4141C40.151 48.4141 45.2823 42.8314 45.2823 38.3655C45.2823 36.1318 43.8069 35.9859 43.0487 36.1318C39.7296 36.7768 37.046 37.2486 33 37.2486Z" fill="#664500"/>
<path d="M31.159 11.9286C29.9876 8.61363 26.3535 6.87363 23.0372 8.04227C21.0244 8.75136 19.5994 10.3755 19.0444 12.275C17.4204 11.1445 15.2931 10.775 13.2831 11.4841C9.96944 12.6541 8.22672 16.2909 9.39808 19.6059C9.56444 20.075 9.78535 20.51 10.0417 20.9123C12.7022 25.7968 20.389 29.2305 25.0431 29.2727C28.639 26.3177 32.4694 18.8205 31.4767 13.3495C31.4249 12.875 31.3226 12.3977 31.159 11.9286ZM34.8408 11.9286C36.0122 8.61363 39.6476 6.87363 42.9626 8.04227C44.9754 8.75136 46.4004 10.3755 46.9567 12.275C48.5808 11.1445 50.7081 10.775 52.7181 11.4841C56.0317 12.6541 57.7731 16.2909 56.6044 19.6059C56.4367 20.075 56.2172 20.51 55.9594 20.9123C53.299 25.7968 45.6122 29.2305 40.9567 29.2727C37.3608 26.3177 33.5317 18.8205 34.5244 13.3495C34.5749 12.875 34.6772 12.3977 34.8408 11.9286Z" fill="#DD2E44"/>
</g>
</g>
<defs>
<filter id="filter0_d_1424_161" x="0" y="0" width="66" height="66" filterUnits="userSpaceOnUse" color-interpolation-filters="sRGB">
<feFlood flood-opacity="0" result="BackgroundImageFix"/>
<feColorMatrix in="SourceAlpha" type="matrix" values="0 0 0 0 0 0 0 0 0 0 0 0 0 0 0 0 0 0 127 0" result="hardAlpha"/>
<feOffset dy="1"/>
<feGaussianBlur stdDeviation="1.5"/>
<feColorMatrix type="matrix" values="0 0 0 0 0 0 0 0 0 0 0 0 0 0 0 0 0 0 0.34902 0"/>
<feBlend mode="normal" in2="BackgroundImageFix" result="effect1_dropShadow_1424_161"/>
<feBlend mode="normal" in="SourceGraphic" in2="effect1_dropShadow_1424_161" result="shape"/>
</filter>
<clipPath id="clip0_1424_161">
<rect width="60" height="60" fill="white" transform="translate(3 2)"/>
</clipPath>
</defs>
</svg>
