<svg width="83" height="92" viewBox="0 0 83 92" fill="none" xmlns="http://www.w3.org/2000/svg">
<g clip-path="url(#clip0_1406_114)">
<path d="M79.66 22.51H76.81V11.58C76.81 5.44997 71.84 0.469971 65.7 0.469971H17.07C10.94 0.469971 5.96 5.43997 5.96 11.58V22.51H3.18C1.15 22.51 -0.5 24.16 -0.5 26.19V38.51C-0.5 40.54 1.15 42.19 3.18 42.19H5.96V74.05C5.96 77.6619 8.88806 80.59 12.5 80.59V80.59V88.03C12.5 90.06 14.15 91.71 16.18 91.71H21.26C23.29 91.71 24.94 90.06 24.94 88.03V80.59H58.79V88.03C58.79 90.06 60.44 91.71 62.47 91.71H67.55C69.58 91.71 71.23 90.06 71.23 88.03V80.59V80.59C74.3062 80.59 76.8 78.0962 76.8 75.02V42.19H79.65C81.68 42.19 83.33 40.54 83.33 38.51V26.19C83.34 24.16 81.69 22.51 79.66 22.51ZM16.5 72.6C13.56 72.6 11.18 70.22 11.18 67.28C11.18 64.34 13.56 61.96 16.5 61.96C19.44 61.96 21.82 64.34 21.82 67.28C21.83 70.22 19.44 72.6 16.5 72.6ZM38.23 46.72H11.66V16.15H38.24L38.23 46.72ZM44.65 16.15H71.23V46.73H44.65V16.15ZM67.59 72.6C64.65 72.6 62.27 70.22 62.27 67.28C62.27 64.34 64.65 61.96 67.59 61.96C70.53 61.96 72.91 64.34 72.91 67.28C72.91 70.22 70.53 72.6 67.59 72.6Z" fill="black"/>
</g>
<defs>
<clipPath id="clip0_1406_114">
<rect width="83" height="92" fill="white"/>
</clipPath>
</defs>
</svg>
