<svg width="17" height="17" viewBox="0 0 17 17" fill="none" xmlns="http://www.w3.org/2000/svg">
<path d="M11.1667 3.16667H12.5C12.8536 3.16667 13.1928 3.30715 13.4428 3.5572C13.6929 3.80724 13.8333 4.14638 13.8333 4.50001V13.8333C13.8333 14.187 13.6929 14.5261 13.4428 14.7761C13.1928 15.0262 12.8536 15.1667 12.5 15.1667H4.5C4.14638 15.1667 3.80724 15.0262 3.55719 14.7761C3.30714 14.5261 3.16666 14.187 3.16666 13.8333V4.50001C3.16666 4.14638 3.30714 3.80724 3.55719 3.5572C3.80724 3.30715 4.14638 3.16667 4.5 3.16667H5.83333" stroke="black" stroke-width="1.33333" stroke-linecap="round" stroke-linejoin="round"/>
<path d="M10.5 1.83333H6.5C6.13181 1.83333 5.83334 2.13181 5.83334 2.49999V3.83333C5.83334 4.20152 6.13181 4.49999 6.5 4.49999H10.5C10.8682 4.49999 11.1667 4.20152 11.1667 3.83333V2.49999C11.1667 2.13181 10.8682 1.83333 10.5 1.83333Z" stroke="black" stroke-width="1.33333" stroke-linecap="round" stroke-linejoin="round"/>
</svg>
