<svg width="66" height="66" viewBox="0 0 66 66" fill="none" xmlns="http://www.w3.org/2000/svg">
<ellipse cx="33.0613" cy="33.0582" rx="28.1157" ry="27.9904" fill="#2E3759" fill-opacity="0.7"/>
<g filter="url(#filter0_d_1518_823)">
<circle cx="33.0611" cy="33.0582" r="23.7926" fill="#2D3558" fill-opacity="0.8" shape-rendering="crispEdges"/>
</g>
<ellipse cx="33.0613" cy="33.0582" rx="19.2361" ry="19.2365" fill="#2A3356"/>
<g clip-path="url(#clip0_1518_823)">
<g clip-path="url(#clip1_1518_823)">
<g filter="url(#filter1_d_1518_823)">
<path d="M33.1549 33.1069C34.2823 33.1069 35.1972 31.8883 35.1972 30.3838C35.1972 28.8792 34.2823 27.6606 33.1549 27.6606C32.0275 27.6606 31.1125 28.8792 31.1125 30.3838C31.1125 31.8883 32.0275 33.1069 33.1549 33.1069Z" fill="white"/>
<path d="M38.5371 34.2097C38.2716 29.5967 37.2191 26.7116 36.1176 24.9252C35.479 23.8932 34.8295 23.2369 34.3217 22.8325C34.1233 22.6729 33.9125 22.5295 33.6913 22.4036C33.6273 22.3669 33.5619 22.3329 33.4952 22.3015C33.3903 22.2459 33.2736 22.216 33.1548 22.2144C33.0276 22.2162 32.903 22.2504 32.7926 22.3137C32.7267 22.3474 32.6622 22.3838 32.5993 22.4227C32.3807 22.5575 32.1718 22.7077 31.9744 22.872C31.4706 23.2913 30.8252 23.9653 30.1907 25.0096C29.0947 26.8096 28.0435 29.6839 27.7753 34.2083L25.7371 36.6945L25.7316 36.7013C25.2486 37.305 24.9855 38.055 24.9855 38.8281V43.3185C24.9855 43.4614 25.0304 43.6007 25.114 43.7166C25.1975 43.8325 25.3154 43.9192 25.451 43.9644C25.5865 44.0095 25.7329 44.0109 25.8692 43.9683C26.0056 43.9257 26.1251 43.8413 26.2109 43.727L27.7426 41.6846C27.9686 41.3824 28.3145 41.14 28.7665 40.9086C29.0579 40.7615 29.3302 40.6471 29.6175 40.526L29.8871 40.4116C30.8402 40.9943 31.9975 41.2762 33.1548 41.2762C34.3121 41.2762 35.4695 40.9943 36.4226 40.4116C36.5133 40.4515 36.6023 40.4892 36.6894 40.5246C36.9794 40.6471 37.2518 40.7615 37.5431 40.9086C37.9952 41.14 38.341 41.3824 38.567 41.6846L40.0988 43.727C40.1845 43.8413 40.304 43.9257 40.4404 43.9683C40.5768 44.0109 40.7231 44.0095 40.8587 43.9644C40.9942 43.9192 41.1121 43.8325 41.1957 43.7166C41.2792 43.6007 41.3242 43.4614 41.3242 43.3185V38.8281C41.3242 38.055 41.061 37.305 40.578 36.7013L38.5371 34.2097ZM38.6011 36.4358V36.5107C38.6011 37.6898 38.2144 38.6688 37.5799 39.4245C37.7787 39.5116 37.9775 39.6015 38.1586 39.6954C38.6896 39.9636 39.2478 40.3217 39.6563 40.8663L39.9626 41.2762V38.8281C39.9626 38.3656 39.8057 37.9167 39.5174 37.555L38.6011 36.4358ZM28.7298 39.4245C28.0953 38.6688 27.7086 37.6898 27.7086 36.5107V36.4372L26.7923 37.5537C26.5037 37.9157 26.3467 38.3651 26.347 38.8281V41.2762L26.6534 40.8677C27.0619 40.3231 27.6201 39.9636 28.1511 39.6954C28.3322 39.6028 28.531 39.5116 28.7298 39.4245ZM33.1671 23.6753C33.2542 23.7298 33.3568 23.8037 33.4748 23.8972C33.8615 24.205 34.4047 24.7428 34.9589 25.64C36.0645 27.4373 37.2395 30.7064 37.2395 36.5107C37.2395 37.6789 36.7303 38.5258 35.9556 39.0881C35.2203 39.6232 34.2182 39.9146 33.1548 39.9146C32.0914 39.9146 31.0893 39.6232 30.3541 39.0881C29.578 38.5245 29.0701 37.6789 29.0701 36.5107C29.0701 30.8167 30.2411 27.5435 31.3535 25.7163C31.9104 24.804 32.4563 24.2431 32.8458 23.919C32.9692 23.8165 33.0763 23.7361 33.1671 23.6753Z" fill="white"/>
<path d="M35.1686 41.7678C34.5151 41.8944 33.8343 41.9571 33.1549 41.9571C32.4754 41.9571 31.7947 41.8944 31.1411 41.7678L32.6102 43.7271C32.6736 43.8117 32.7559 43.8803 32.8504 43.9275C32.9449 43.9748 33.0492 43.9994 33.1549 43.9994C33.2605 43.9994 33.3648 43.9748 33.4593 43.9275C33.5538 43.8803 33.6361 43.8117 33.6995 43.7271L35.1686 41.7678Z" fill="white"/>
</g>
</g>
</g>
<defs>
<filter id="filter0_d_1518_823" x="0.609008" y="0.606078" width="64.9043" height="64.9043" filterUnits="userSpaceOnUse" color-interpolation-filters="sRGB">
<feFlood flood-opacity="0" result="BackgroundImageFix"/>
<feColorMatrix in="SourceAlpha" type="matrix" values="0 0 0 0 0 0 0 0 0 0 0 0 0 0 0 0 0 0 127 0" result="hardAlpha"/>
<feOffset/>
<feGaussianBlur stdDeviation="4.32977"/>
<feComposite in2="hardAlpha" operator="out"/>
<feColorMatrix type="matrix" values="0 0 0 0 0.231373 0 0 0 0 0.262745 0 0 0 0 0.392157 0 0 0 0.7 0"/>
<feBlend mode="normal" in2="BackgroundImageFix" result="effect1_dropShadow_1518_823"/>
<feBlend mode="normal" in="SourceGraphic" in2="effect1_dropShadow_1518_823" result="shape"/>
</filter>
<filter id="filter1_d_1518_823" x="17.434" y="16.3045" width="31.4417" height="36.8879" filterUnits="userSpaceOnUse" color-interpolation-filters="sRGB">
<feFlood flood-opacity="0" result="BackgroundImageFix"/>
<feColorMatrix in="SourceAlpha" type="matrix" values="0 0 0 0 0 0 0 0 0 0 0 0 0 0 0 0 0 0 127 0" result="hardAlpha"/>
<feOffset dy="1.64162"/>
<feGaussianBlur stdDeviation="3.77573"/>
<feComposite in2="hardAlpha" operator="out"/>
<feColorMatrix type="matrix" values="0 0 0 0 1 0 0 0 0 1 0 0 0 0 1 0 0 0 0.31 0"/>
<feBlend mode="normal" in2="BackgroundImageFix" result="effect1_dropShadow_1518_823"/>
<feBlend mode="normal" in="SourceGraphic" in2="effect1_dropShadow_1518_823" result="shape"/>
</filter>
<clipPath id="clip0_1518_823">
<rect width="36.9365" height="38.1677" fill="white" transform="translate(14.6461 14.0231)"/>
</clipPath>
<clipPath id="clip1_1518_823">
<rect width="36.9365" height="38.9885" fill="white" transform="translate(14.6461 13.6127)"/>
</clipPath>
</defs>
</svg>
