<svg width="66" height="66" viewBox="0 0 66 66" fill="none" xmlns="http://www.w3.org/2000/svg">
<ellipse cx="33.0613" cy="33.0582" rx="28.1157" ry="27.9904" fill="#2E3759" fill-opacity="0.7"/>
<g filter="url(#filter0_d_1518_823)">
<circle cx="33.0611" cy="33.0582" r="23.7926" fill="#2D3558" fill-opacity="0.8" shape-rendering="crispEdges"/>
</g>
<ellipse cx="33.0613" cy="33.0582" rx="19.2361" ry="19.2365" fill="#2A3356"/>
<g clip-path="url(#clip0_1518_823)">
<g filter="url(#filter1_d_1518_823)">
<path d="M33.1495 33.1069C34.1274 33.1069 34.9211 32.0499 34.9211 30.7448C34.9211 29.4397 34.1274 28.3827 33.1495 28.3827C32.1716 28.3827 31.3779 29.4397 31.3779 30.7448C31.3779 32.0499 32.1716 33.1069 33.1495 33.1069Z" fill="white"/>
<path d="M37.8182 34.0635C37.5879 30.062 36.6749 27.5594 35.7195 26.0098C35.1655 25.1146 34.6022 24.5453 34.1616 24.1945C33.9896 24.0561 33.8067 23.9317 33.6148 23.8225C33.5593 23.7907 33.5026 23.7611 33.4447 23.7339C33.3537 23.6857 33.2525 23.6597 33.1495 23.6583C33.0391 23.6599 32.931 23.6896 32.8353 23.7445C32.7781 23.7737 32.7222 23.8053 32.6676 23.839C32.4779 23.956 32.2968 24.0862 32.1255 24.2288C31.6885 24.5925 31.1287 25.1772 30.5783 26.083C29.6275 27.6444 28.7158 30.1376 28.4831 34.0623L26.7151 36.2189L26.7103 36.2248C26.2914 36.7484 26.0631 37.399 26.0631 38.0696V41.9648C26.0631 42.0887 26.1021 42.2095 26.1746 42.31C26.247 42.4106 26.3493 42.4858 26.4669 42.525C26.5845 42.5642 26.7114 42.5654 26.8297 42.5284C26.948 42.4915 27.0517 42.4182 27.1261 42.3191L28.4548 40.5475C28.6508 40.2853 28.9508 40.0751 29.3429 39.8743C29.5957 39.7467 29.8319 39.6475 30.0811 39.5424L30.3149 39.4432C31.1417 39.9487 32.1456 40.1932 33.1495 40.1932C34.1534 40.1932 35.1573 39.9487 35.984 39.4432C36.0628 39.4778 36.1399 39.5105 36.2155 39.5412C36.4671 39.6475 36.7033 39.7467 36.956 39.8743C37.3481 40.0751 37.6481 40.2853 37.8442 40.5475L39.1729 42.3191C39.2472 42.4182 39.3509 42.4915 39.4692 42.5284C39.5875 42.5654 39.7145 42.5642 39.832 42.525C39.9496 42.4858 40.0519 42.4106 40.1244 42.31C40.1968 42.2095 40.2358 42.0887 40.2358 41.9648V38.0696C40.2358 37.399 40.0076 36.7484 39.5886 36.2248L37.8182 34.0635ZM37.8737 35.9945V36.0595C37.8737 37.0823 37.5383 37.9314 36.9879 38.5869C37.1603 38.6625 37.3328 38.7405 37.4899 38.822C37.9505 39.0546 38.4347 39.3652 38.789 39.8377L39.0548 40.1932V38.0696C39.0548 37.6684 38.9186 37.2791 38.6686 36.9653L37.8737 35.9945ZM29.311 38.5869C28.7607 37.9314 28.4252 37.0823 28.4252 36.0595V35.9957L27.6304 36.9641C27.3801 37.2782 27.2439 37.668 27.2442 38.0696V40.1932L27.5099 39.8388C27.8642 39.3664 28.3485 39.0546 28.8091 38.822C28.9662 38.7416 29.1386 38.6625 29.311 38.5869ZM33.1601 24.9256C33.2357 24.9728 33.3247 25.037 33.427 25.1181C33.7624 25.385 34.2337 25.8516 34.7144 26.6299C35.6734 28.1889 36.6926 31.0246 36.6926 36.0595C36.6926 37.0728 36.2509 37.8074 35.5789 38.2952C34.9411 38.7594 34.0719 39.0121 33.1495 39.0121C32.2271 39.0121 31.3578 38.7594 30.72 38.2952C30.0468 37.8062 29.6063 37.0728 29.6063 36.0595C29.6063 31.1203 30.622 28.281 31.5869 26.696C32.07 25.9047 32.5436 25.4181 32.8814 25.137C32.9885 25.048 33.0814 24.9784 33.1601 24.9256Z" fill="white"/>
<path d="M34.8963 40.6196C34.3294 40.7295 33.7388 40.7838 33.1495 40.7838C32.5601 40.7838 31.9696 40.7295 31.4027 40.6196L32.6771 42.3192C32.7321 42.3925 32.8034 42.452 32.8854 42.493C32.9674 42.534 33.0578 42.5554 33.1495 42.5554C33.2412 42.5554 33.3316 42.534 33.4136 42.493C33.4956 42.452 33.5669 42.3925 33.6219 42.3192L34.8963 40.6196Z" fill="white"/>
</g>
</g>
<defs>
<filter id="filter0_d_1518_823" x="0.609008" y="0.606078" width="64.9043" height="64.9043" filterUnits="userSpaceOnUse" color-interpolation-filters="sRGB">
<feFlood flood-opacity="0" result="BackgroundImageFix"/>
<feColorMatrix in="SourceAlpha" type="matrix" values="0 0 0 0 0 0 0 0 0 0 0 0 0 0 0 0 0 0 127 0" result="hardAlpha"/>
<feOffset/>
<feGaussianBlur stdDeviation="4.32977"/>
<feComposite in2="hardAlpha" operator="out"/>
<feColorMatrix type="matrix" values="0 0 0 0 0.231373 0 0 0 0 0.262745 0 0 0 0 0.392157 0 0 0 0.7 0"/>
<feBlend mode="normal" in2="BackgroundImageFix" result="effect1_dropShadow_1518_823"/>
<feBlend mode="normal" in="SourceGraphic" in2="effect1_dropShadow_1518_823" result="shape"/>
</filter>
<filter id="filter1_d_1518_823" x="19.5127" y="18.5319" width="27.2735" height="31.9978" filterUnits="userSpaceOnUse" color-interpolation-filters="sRGB">
<feFlood flood-opacity="0" result="BackgroundImageFix"/>
<feColorMatrix in="SourceAlpha" type="matrix" values="0 0 0 0 0 0 0 0 0 0 0 0 0 0 0 0 0 0 127 0" result="hardAlpha"/>
<feOffset dy="1.42399"/>
<feGaussianBlur stdDeviation="3.27519"/>
<feComposite in2="hardAlpha" operator="out"/>
<feColorMatrix type="matrix" values="0 0 0 0 1 0 0 0 0 1 0 0 0 0 1 0 0 0 0.31 0"/>
<feBlend mode="normal" in2="BackgroundImageFix" result="effect1_dropShadow_1518_823"/>
<feBlend mode="normal" in="SourceGraphic" in2="effect1_dropShadow_1518_823" result="shape"/>
</filter>
<clipPath id="clip0_1518_823">
<rect width="32.0399" height="33.8199" fill="white" transform="translate(17.0944 16.197)"/>
</clipPath>
</defs>
</svg>
