<svg width="66" height="66" viewBox="0 0 66 66" fill="none" xmlns="http://www.w3.org/2000/svg">
<g filter="url(#filter0_d_1424_148)">
<g clip-path="url(#clip0_1424_148)">
<path fill-rule="evenodd" clip-rule="evenodd" d="M33 56.5455C46.5561 56.5455 57.5455 45.556 57.5455 32C57.5455 18.444 46.5561 7.45454 33 7.45454C19.444 7.45454 8.45459 18.444 8.45459 32C8.45459 45.556 19.444 56.5455 33 56.5455Z" fill="#D9D9D9"/>
<mask id="mask0_1424_148" style="mask-type:luminance" maskUnits="userSpaceOnUse" x="3" y="2" width="60" height="60">
<path d="M63 2H3V62H63V2Z" fill="white"/>
<path fill-rule="evenodd" clip-rule="evenodd" d="M33 56.5455C46.5561 56.5455 57.5455 45.556 57.5455 32C57.5455 18.444 46.5561 7.45454 33 7.45454C19.444 7.45454 8.45459 18.444 8.45459 32C8.45459 45.556 19.444 56.5455 33 56.5455Z" fill="black"/>
</mask>
<g mask="url(#mask0_1424_148)">
<path d="M52.0909 32C52.0909 42.5436 43.5436 51.0909 33 51.0909V62C49.5686 62 63 48.5686 63 32H52.0909ZM33 12.9091C43.5436 12.9091 52.0909 21.4564 52.0909 32H63C63 15.4315 49.5686 2 33 2V12.9091ZM13.9091 32C13.9091 21.4564 22.4564 12.9091 33 12.9091V2C16.4315 2 3 15.4315 3 32H13.9091ZM33 51.0909C22.4564 51.0909 13.9091 42.5436 13.9091 32H3C3 48.5686 16.4315 62 33 62V51.0909Z" fill="white"/>
</g>
<path d="M33 56.5455C46.5561 56.5455 57.5455 45.556 57.5455 32C57.5455 18.444 46.5561 7.45454 33 7.45454C19.444 7.45454 8.45459 18.444 8.45459 32C8.45459 45.556 19.444 56.5455 33 56.5455Z" fill="#FFCC4D"/>
<path d="M33 36.0909C28.0595 36.0909 24.7814 35.5155 20.7273 34.7273C19.8014 34.5486 18 34.7273 18 37.4545C18 42.9091 24.2659 49.7273 33 49.7273C41.7327 49.7273 48 42.9091 48 37.4545C48 34.7273 46.1986 34.5473 45.2727 34.7273C41.2186 35.5155 37.9405 36.0909 33 36.0909Z" fill="#664500"/>
<path d="M20.7273 37.4545C20.7273 37.4545 24.8182 38.8182 33 38.8182C41.1818 38.8182 45.2727 37.4545 45.2727 37.4545C45.2727 37.4545 42.5455 42.9091 33 42.9091C23.4546 42.9091 20.7273 37.4545 20.7273 37.4545Z" fill="white"/>
<path d="M24.8183 30.6364C26.701 30.6364 28.2274 28.4995 28.2274 25.8636C28.2274 23.2277 26.701 21.0909 24.8183 21.0909C22.9355 21.0909 21.4092 23.2277 21.4092 25.8636C21.4092 28.4995 22.9355 30.6364 24.8183 30.6364Z" fill="#664500"/>
<path d="M41.1818 30.6364C43.0646 30.6364 44.5909 28.4995 44.5909 25.8636C44.5909 23.2277 43.0646 21.0909 41.1818 21.0909C39.299 21.0909 37.7727 23.2277 37.7727 25.8636C37.7727 28.4995 39.299 30.6364 41.1818 30.6364Z" fill="#664500"/>
</g>
</g>
<defs>
<filter id="filter0_d_1424_148" x="0" y="0" width="66" height="66" filterUnits="userSpaceOnUse" color-interpolation-filters="sRGB">
<feFlood flood-opacity="0" result="BackgroundImageFix"/>
<feColorMatrix in="SourceAlpha" type="matrix" values="0 0 0 0 0 0 0 0 0 0 0 0 0 0 0 0 0 0 127 0" result="hardAlpha"/>
<feOffset dy="1"/>
<feGaussianBlur stdDeviation="1.5"/>
<feColorMatrix type="matrix" values="0 0 0 0 0 0 0 0 0 0 0 0 0 0 0 0 0 0 0.34902 0"/>
<feBlend mode="normal" in2="BackgroundImageFix" result="effect1_dropShadow_1424_148"/>
<feBlend mode="normal" in="SourceGraphic" in2="effect1_dropShadow_1424_148" result="shape"/>
</filter>
<clipPath id="clip0_1424_148">
<rect width="60" height="60" fill="white" transform="translate(3 2)"/>
</clipPath>
</defs>
</svg>
