<svg width="21" height="20" viewBox="0 0 21 20" fill="none" xmlns="http://www.w3.org/2000/svg">
<path d="M10.5004 3.62266C11.0834 2.96209 11.9364 2.54547 12.8868 2.54547C14.644 2.54547 16.0686 3.97002 16.0686 5.72729C16.0686 7.48456 14.644 8.90911 12.8868 8.90911C11.9364 8.90911 11.0834 8.49248 10.5004 7.83192M12.8868 16.8637H3.34131V16.0682C3.34131 13.4323 5.47813 11.2955 8.11404 11.2955C10.7499 11.2955 12.8868 13.4323 12.8868 16.0682V16.8637ZM12.8868 16.8637H17.6595V16.0682C17.6595 13.4323 15.5227 11.2955 12.8868 11.2955C12.0174 11.2955 11.2024 11.5279 10.5004 11.934M11.2959 5.72729C11.2959 7.48456 9.87131 8.90911 8.11404 8.90911C6.35677 8.90911 4.93222 7.48456 4.93222 5.72729C4.93222 3.97002 6.35677 2.54547 8.11404 2.54547C9.87131 2.54547 11.2959 3.97002 11.2959 5.72729Z" stroke="#3B82F6" stroke-width="1.59091" stroke-linecap="round" stroke-linejoin="round"/>
</svg>
