<svg width="831" height="234" viewBox="0 0 831 234" fill="none" xmlns="http://www.w3.org/2000/svg">
<path fill-rule="evenodd" clip-rule="evenodd" d="M656.023 32.7591V79.7111C656.023 80.7253 657.002 81.4496 657.977 81.1717C684.588 73.59 728.683 77.9093 715.023 164.259C711.938 183.76 700.046 197.402 654.852 190.178C653.41 189.947 652.038 188.741 651.345 187.455C647.177 179.714 631.31 156.805 633.358 164.259C633.423 164.498 633.868 165.339 634.675 166.862L634.675 166.863L634.676 166.865L634.677 166.866L634.678 166.868L634.679 166.87L634.679 166.87C636.452 170.218 639.964 176.852 645.024 187.622C645.49 188.615 644.768 189.759 643.671 189.759H617.523C616.695 189.759 616.023 189.088 616.023 188.259V31.2591H654.523C655.351 31.2591 656.023 31.9307 656.023 32.7591ZM296.023 39.2591V74.7591C296.023 75.5875 296.695 76.2591 297.523 76.2591H331.023C331.851 76.2591 332.523 76.9307 332.523 77.7591V188.259C332.523 189.088 333.195 189.759 334.023 189.759H375.523C376.351 189.759 377.023 189.088 377.023 188.259V77.7591C377.023 76.9307 377.695 76.2591 378.523 76.2591H412.523C413.351 76.2591 414.023 75.5875 414.023 74.7591V39.2591C414.023 38.4307 413.351 37.7591 412.523 37.7591H297.523C296.695 37.7591 296.023 38.4307 296.023 39.2591ZM422.523 188.259V83.2591C422.523 82.4307 423.195 81.7591 424.023 81.7591H449.617C450.727 81.7591 451.45 82.9205 450.948 83.9099C450.284 85.2164 449.59 86.5485 448.901 87.8744C445.351 94.6974 441.886 101.357 442.904 103.528C443.902 105.658 444.442 104.194 445.573 101.127C448.233 93.9124 454.165 77.8281 477.023 78.7591H488.523C489.351 78.7591 490.023 79.4307 490.023 80.2591V112.259C490.023 113.088 489.351 113.759 488.523 113.759H471.523C466.552 113.759 462.523 117.789 462.523 122.759V188.259C462.523 189.088 461.851 189.759 461.023 189.759H424.023C423.195 189.759 422.523 189.088 422.523 188.259ZM537.523 81.7591H501.023C500.195 81.7591 499.523 82.4307 499.523 83.2591V156.471C499.523 156.663 499.542 156.86 499.58 157.048C506.84 193.471 545.043 195.756 564.012 182.604C565.452 181.605 567.441 182.6 566.845 184.249C561.825 198.14 533.411 199.07 517.624 197.929C516.592 197.855 515.789 198.809 516.043 199.811L524.211 232.027C524.391 232.738 525.059 233.214 525.79 233.153L555.155 230.687C585.871 227.199 598.023 201.009 598.023 187.259V83.2591C598.023 82.4307 597.351 81.7591 596.523 81.7591H559.523C558.695 81.7591 558.023 82.4307 558.023 83.2591V149.009C558.023 154.256 553.77 158.509 548.523 158.509C543.276 158.509 539.023 154.256 539.023 149.009V83.2591C539.023 82.4307 538.351 81.7591 537.523 81.7591ZM828.653 142.759H770.357C769.344 142.759 768.523 143.58 768.523 144.593C768.523 148.597 769.587 152.805 772.858 155.113C780.034 160.176 787.521 155.978 791.312 151.633C791.751 151.129 792.453 150.925 793.077 151.165L825.649 163.729C826.412 164.023 826.794 164.892 826.491 165.651C812.306 201.168 765.243 197.549 743.523 181.259C725.923 168.059 726.523 130.759 729.023 113.759C735.423 79.3591 772.023 76.0924 789.523 78.7591C825.518 81.4978 831.599 120.814 830.133 141.405C830.077 142.179 829.429 142.759 828.653 142.759ZM673.594 118.83C668.525 111.489 656.023 115.381 656.023 119.509V151.772C656.023 152.095 656.074 152.422 656.189 152.724C659.653 161.75 672.382 158.515 673.956 152.548C674.006 152.357 674.023 152.16 674.023 151.962V120.311C674.023 119.786 673.893 119.262 673.594 118.83ZM770.148 127.009H786.648C787.753 127.009 788.648 126.114 788.648 125.009V120.935C788.648 120.013 788.342 119.108 787.703 118.443C783.571 114.133 776.22 110.717 769.086 118.429C768.46 119.105 768.148 120.013 768.148 120.934V125.009C768.148 126.114 769.043 127.009 770.148 127.009Z" fill="#5C88FA"/>
<path d="M114.73 0.414246C51.7996 0.414246 0.437195 51.7767 0.437195 114.707C0.437195 177.638 51.7996 229 114.73 229C177.661 229 229.023 177.638 229.023 114.707C229.023 51.7767 177.661 0.414246 114.73 0.414246ZM32.3652 114.707C32.3652 91.1083 42.5451 69.3602 58.7404 54.553C65.2186 48.5376 76.324 50.3885 80.9512 58.2548L109.64 107.766C112.416 112.394 112.416 117.946 109.64 122.573L80.9512 172.085C76.324 180.414 65.2186 181.802 58.2777 175.324C42.5451 159.591 32.3652 138.306 32.3652 114.707ZM148.509 171.159L119.82 121.648C117.044 117.021 117.044 111.468 119.82 106.841L148.509 57.3293C153.136 49.463 163.779 47.6121 170.72 53.6275C186.915 68.4347 197.095 90.1828 197.095 113.782C197.095 137.381 186.915 159.129 170.72 173.936C163.779 181.339 153.136 179.489 148.509 171.159Z" fill="#3B82F6"/>
</svg>
