<svg width="799" height="234" viewBox="0 0 799 234" fill="none" xmlns="http://www.w3.org/2000/svg">
<path fill-rule="evenodd" clip-rule="evenodd" d="M624.028 32.7591V79.7111C624.028 80.7253 625.007 81.4496 625.982 81.1717C652.593 73.59 696.688 77.9093 683.028 164.259C679.943 183.76 668.051 197.402 622.857 190.178C621.415 189.947 620.043 188.741 619.35 187.455C615.181 179.714 599.315 156.805 601.362 164.259C601.428 164.498 601.873 165.339 602.68 166.862L602.68 166.863L602.681 166.865L602.682 166.866L602.683 166.868L602.684 166.87L602.684 166.87C604.457 170.218 607.969 176.852 613.029 187.622C613.495 188.615 612.772 189.759 611.676 189.759H585.528C584.699 189.759 584.028 189.088 584.028 188.259V31.2591H622.528C623.356 31.2591 624.028 31.9307 624.028 32.7591ZM264.028 39.2591V74.7591C264.028 75.5875 264.699 76.2591 265.528 76.2591H299.028C299.856 76.2591 300.528 76.9307 300.528 77.7591V188.259C300.528 189.088 301.199 189.759 302.028 189.759H343.528C344.356 189.759 345.028 189.088 345.028 188.259V77.7591C345.028 76.9307 345.699 76.2591 346.528 76.2591H380.528C381.356 76.2591 382.028 75.5875 382.028 74.7591V39.2591C382.028 38.4307 381.356 37.7591 380.528 37.7591H265.528C264.699 37.7591 264.028 38.4307 264.028 39.2591ZM390.528 188.259V83.2591C390.528 82.4307 391.199 81.7591 392.028 81.7591H417.622C418.732 81.7591 419.455 82.9205 418.952 83.9099C418.288 85.2164 417.595 86.5485 416.905 87.8744C413.356 94.6974 409.891 101.357 410.909 103.528C411.907 105.658 412.447 104.194 413.578 101.127C416.238 93.9124 422.169 77.8281 445.028 78.7591H456.528C457.356 78.7591 458.028 79.4307 458.028 80.2591V112.259C458.028 113.088 457.356 113.759 456.528 113.759H439.528C434.557 113.759 430.528 117.789 430.528 122.759V188.259C430.528 189.088 429.856 189.759 429.028 189.759H392.028C391.199 189.759 390.528 189.088 390.528 188.259ZM505.528 81.7591H469.028C468.199 81.7591 467.528 82.4307 467.528 83.2591V156.471C467.528 156.663 467.547 156.86 467.585 157.048C474.845 193.471 513.047 195.756 532.016 182.604C533.457 181.605 535.446 182.6 534.85 184.249C529.83 198.14 501.416 199.07 485.629 197.929C484.597 197.855 483.794 198.809 484.048 199.811L492.215 232.027C492.396 232.738 493.064 233.214 493.795 233.153L523.159 230.687C553.875 227.199 566.028 201.009 566.028 187.259V83.2591C566.028 82.4307 565.356 81.7591 564.528 81.7591H527.528C526.699 81.7591 526.028 82.4307 526.028 83.2591V149.009C526.028 154.256 521.775 158.509 516.528 158.509C511.281 158.509 507.028 154.256 507.028 149.009V83.2591C507.028 82.4307 506.356 81.7591 505.528 81.7591ZM796.658 142.759H738.362C737.349 142.759 736.528 143.58 736.528 144.593C736.528 148.597 737.592 152.805 740.863 155.113C748.039 160.176 755.526 155.978 759.316 151.633C759.756 151.129 760.458 150.925 761.081 151.165L793.654 163.729C794.417 164.023 794.799 164.892 794.496 165.651C780.311 201.168 733.248 197.549 711.528 181.259C693.928 168.059 694.528 130.759 697.028 113.759C703.428 79.3591 740.028 76.0924 757.528 78.7591C793.522 81.4978 799.604 120.814 798.137 141.405C798.082 142.179 797.434 142.759 796.658 142.759ZM641.599 118.83C636.529 111.489 624.028 115.381 624.028 119.509V151.772C624.028 152.095 624.079 152.422 624.194 152.724C627.657 161.75 640.387 158.515 641.961 152.548C642.011 152.357 642.028 152.16 642.028 151.962V120.311C642.028 119.786 641.898 119.262 641.599 118.83ZM738.153 127.009H754.653C755.757 127.009 756.653 126.114 756.653 125.009V120.935C756.653 120.013 756.346 119.108 755.708 118.443C751.576 114.133 744.225 110.717 737.091 118.429C736.465 119.105 736.153 120.013 736.153 120.934V125.009C736.153 126.114 737.048 127.009 738.153 127.009Z" fill="#5C88FA"/>
<path d="M114.73 0.414246C51.7996 0.414246 0.437195 51.7767 0.437195 114.707C0.437195 177.638 51.7996 229 114.73 229C177.661 229 229.023 177.638 229.023 114.707C229.023 51.7767 177.661 0.414246 114.73 0.414246ZM32.3652 114.707C32.3652 91.1083 42.5451 69.3602 58.7404 54.553C65.2186 48.5376 76.324 50.3885 80.9512 58.2548L109.64 107.766C112.416 112.394 112.416 117.946 109.64 122.573L80.9512 172.085C76.324 180.414 65.2186 181.802 58.2777 175.324C42.5451 159.591 32.3652 138.306 32.3652 114.707ZM148.509 171.159L119.82 121.648C117.044 117.021 117.044 111.468 119.82 106.841L148.509 57.3293C153.136 49.463 163.779 47.6121 170.72 53.6275C186.915 68.4347 197.095 90.1828 197.095 113.782C197.095 137.381 186.915 159.129 170.72 173.936C163.779 181.339 153.136 179.489 148.509 171.159Z" fill="#5C88FA"/>
</svg>
