<svg width="93" height="29" viewBox="0 0 93 29" fill="none" xmlns="http://www.w3.org/2000/svg">
<path d="M8.97353 5.66323V14.2L7.02794 13.0882C3.57353 11.1029 1.42941 7.41029 1.42941 3.39999H0V13.1676C0 16.3441 1.82647 19.2824 4.725 20.6721L9.01324 22.7368V14.2L10.9588 15.3118C14.4132 17.2971 16.5574 20.9897 16.5574 25H17.9868V15.2323C17.9868 12.0559 16.1603 9.11764 13.2618 7.72793L8.97353 5.66323Z" fill="#3B82F6"/>
<path d="M38.9597 17.4316C38.9597 18.1934 38.7751 18.8555 38.406 19.418C38.0368 19.9805 37.4978 20.4141 36.7888 20.7188C36.0856 21.0234 35.2302 21.1758 34.2224 21.1758C33.7771 21.1758 33.3405 21.1465 32.9128 21.0879C32.4909 21.0293 32.0837 20.9443 31.6911 20.833C31.3044 20.7158 30.9353 20.5723 30.5837 20.4023V17.8711C31.1931 18.1406 31.8259 18.3838 32.4821 18.6006C33.1384 18.8174 33.7888 18.9258 34.4333 18.9258C34.8786 18.9258 35.236 18.8672 35.5056 18.75C35.781 18.6328 35.9802 18.4717 36.1032 18.2666C36.2263 18.0615 36.2878 17.8271 36.2878 17.5635C36.2878 17.2412 36.1794 16.9658 35.9626 16.7373C35.7458 16.5088 35.447 16.2949 35.0661 16.0957C34.6911 15.8965 34.2663 15.6826 33.7917 15.4541C33.4929 15.3135 33.1677 15.1436 32.8161 14.9443C32.4646 14.7393 32.1306 14.4902 31.8142 14.1973C31.4978 13.9043 31.237 13.5498 31.0319 13.1338C30.8327 12.7119 30.7331 12.208 30.7331 11.6221C30.7331 10.8545 30.9089 10.1982 31.2605 9.65332C31.612 9.1084 32.113 8.69238 32.7634 8.40527C33.4196 8.1123 34.1931 7.96582 35.0837 7.96582C35.7517 7.96582 36.3874 8.04492 36.9909 8.20312C37.6003 8.35547 38.236 8.57812 38.8981 8.87109L38.0192 10.9893C37.4274 10.749 36.8972 10.5645 36.4284 10.4355C35.9597 10.3008 35.4821 10.2334 34.9958 10.2334C34.656 10.2334 34.3659 10.2891 34.1257 10.4004C33.8855 10.5059 33.7038 10.6582 33.5808 10.8574C33.4577 11.0508 33.3962 11.2764 33.3962 11.5342C33.3962 11.8389 33.4841 12.0967 33.6599 12.3076C33.8415 12.5127 34.111 12.7119 34.4685 12.9053C34.8317 13.0986 35.2829 13.3242 35.822 13.582C36.4782 13.8926 37.0378 14.2178 37.5007 14.5576C37.9694 14.8916 38.3298 15.2871 38.5817 15.7441C38.8337 16.1953 38.9597 16.7578 38.9597 17.4316ZM46.5446 10.9893C47.6521 10.9893 48.5456 11.4199 49.2253 12.2812C49.9108 13.1426 50.2536 14.4053 50.2536 16.0693C50.2536 17.1826 50.0925 18.1201 49.7702 18.8818C49.448 19.6377 49.0026 20.209 48.4343 20.5957C47.8659 20.9824 47.2126 21.1758 46.4743 21.1758C45.9997 21.1758 45.5925 21.1172 45.2526 21C44.9128 20.877 44.6228 20.7217 44.3825 20.5342C44.1423 20.3408 43.9343 20.1357 43.7585 19.9189H43.6179C43.6647 20.1533 43.6999 20.3936 43.7233 20.6396C43.7468 20.8857 43.7585 21.126 43.7585 21.3604V25.3242H41.0778V11.1738H43.2575L43.6355 12.4482H43.7585C43.9343 12.1846 44.1481 11.9414 44.4001 11.7188C44.6521 11.4961 44.9538 11.3203 45.3054 11.1914C45.6628 11.0566 46.0759 10.9893 46.5446 10.9893ZM45.6833 13.1338C45.2146 13.1338 44.8425 13.2305 44.5671 13.4238C44.2917 13.6172 44.0896 13.9072 43.9606 14.2939C43.8376 14.6807 43.7702 15.1699 43.7585 15.7617V16.0518C43.7585 16.6846 43.8171 17.2207 43.9343 17.6602C44.0573 18.0996 44.2595 18.4336 44.5407 18.6621C44.8278 18.8906 45.2204 19.0049 45.7185 19.0049C46.1286 19.0049 46.4655 18.8906 46.7292 18.6621C46.9929 18.4336 47.1892 18.0996 47.3181 17.6602C47.4528 17.2148 47.5202 16.6729 47.5202 16.0342C47.5202 15.0732 47.3708 14.3496 47.072 13.8633C46.7731 13.377 46.3103 13.1338 45.6833 13.1338ZM56.4939 10.9717C57.8122 10.9717 58.823 11.2588 59.5261 11.833C60.2292 12.4072 60.5808 13.2803 60.5808 14.4521V21H58.7087L58.1901 19.6641H58.1198C57.8386 20.0156 57.5515 20.3027 57.2585 20.5254C56.9655 20.748 56.6286 20.9121 56.2478 21.0176C55.8669 21.123 55.404 21.1758 54.8591 21.1758C54.279 21.1758 53.7575 21.0645 53.2946 20.8418C52.8376 20.6191 52.4772 20.2793 52.2136 19.8223C51.9499 19.3594 51.8181 18.7734 51.8181 18.0645C51.8181 17.0215 52.1843 16.2539 52.9167 15.7617C53.6491 15.2637 54.7478 14.9883 56.2126 14.9355L57.9177 14.8828V14.4521C57.9177 13.9365 57.7829 13.5586 57.5134 13.3184C57.2439 13.0781 56.8689 12.958 56.3884 12.958C55.9138 12.958 55.448 13.0254 54.9909 13.1602C54.5339 13.2949 54.0769 13.4648 53.6198 13.6699L52.7321 11.8594C53.2536 11.584 53.8366 11.3672 54.4812 11.209C55.1315 11.0508 55.8024 10.9717 56.4939 10.9717ZM57.9177 16.4473L56.8806 16.4824C56.0134 16.5059 55.4099 16.6611 55.07 16.9482C54.736 17.2354 54.569 17.6133 54.569 18.082C54.569 18.4922 54.6892 18.7852 54.9294 18.9609C55.1696 19.1309 55.4831 19.2158 55.8698 19.2158C56.444 19.2158 56.9274 19.0459 57.32 18.7061C57.7185 18.3662 57.9177 17.8828 57.9177 17.2559V16.4473ZM68.8337 10.9893C68.9685 10.9893 69.1237 10.998 69.2995 11.0156C69.4812 11.0273 69.6276 11.0449 69.739 11.0684L69.5368 13.582C69.4489 13.5527 69.323 13.5322 69.1589 13.5205C69.0007 13.5029 68.863 13.4941 68.7458 13.4941C68.4001 13.4941 68.0632 13.5381 67.7351 13.626C67.4128 13.7139 67.1228 13.8574 66.8649 14.0566C66.6071 14.25 66.4021 14.5078 66.2497 14.8301C66.1032 15.1465 66.03 15.5361 66.03 15.999V21H63.3493V11.1738H65.3796L65.7751 12.8262H65.9069C66.1003 12.4922 66.3405 12.1875 66.6276 11.9121C66.9206 11.6309 67.2517 11.4082 67.6208 11.2441C67.9958 11.0742 68.4001 10.9893 68.8337 10.9893ZM74.2038 7.32422V13.4414C74.2038 13.8105 74.1892 14.1797 74.1599 14.5488C74.1306 14.918 74.0983 15.2871 74.0632 15.6562H74.0983C74.28 15.3984 74.4646 15.1436 74.6521 14.8916C74.8454 14.6396 75.0505 14.3965 75.2673 14.1621L78.0183 11.1738H81.0417L77.1394 15.4365L81.279 21H78.1853L75.3552 17.0186L74.2038 17.9414V21H71.5231V7.32422H74.2038Z" fill="#3B82F6"/>
</svg>
