<svg width="16" height="17" viewBox="0 0 16 17" fill="none" xmlns="http://www.w3.org/2000/svg">
<path d="M13.9257 9.41215C13.8219 10.5359 13.4001 11.6068 12.7099 12.4996C12.0196 13.3923 11.0894 14.0701 10.028 14.4535C8.96657 14.8368 7.81794 14.91 6.71648 14.6644C5.61502 14.4188 4.60629 13.8646 3.80831 13.0666C3.01034 12.2686 2.45613 11.2599 2.21053 10.1585C1.96493 9.057 2.0381 7.90837 2.42148 6.84698C2.80486 5.78559 3.4826 4.85533 4.37538 4.16506C5.26816 3.4748 6.33907 3.05306 7.46279 2.94922C6.80489 3.83929 6.4883 4.93593 6.57061 6.03968C6.65292 7.14344 7.12866 8.181 7.9113 8.96364C8.69394 9.74628 9.7315 10.222 10.8353 10.3043C11.939 10.3866 13.0357 10.0701 13.9257 9.41215Z" stroke="#475569" stroke-width="1.32031" stroke-linecap="round" stroke-linejoin="round"/>
</svg>
