<svg width="19" height="19" viewBox="0 0 19 19" fill="none" xmlns="http://www.w3.org/2000/svg">
<path fill-rule="evenodd" clip-rule="evenodd" d="M7.27658 3.05907C4.87867 3.05907 2.93478 5.00249 2.93478 7.39981C2.93478 9.79714 4.87867 11.7406 7.27658 11.7406C9.67449 11.7406 11.6184 9.79714 11.6184 7.39981C11.6184 5.00249 9.67449 3.05907 7.27658 3.05907ZM0.763885 7.39981C0.763885 3.80383 3.67972 0.888702 7.27658 0.888702C10.8734 0.888702 13.7893 3.80383 13.7893 7.39981C13.7893 8.80603 13.3434 10.1081 12.5852 11.1725L17.8132 16.3991C18.237 16.8229 18.237 17.51 17.8132 17.9338C17.3893 18.3576 16.702 18.3576 16.2781 17.9338L11.0502 12.7072C9.98555 13.4651 8.68314 13.9109 7.27658 13.9109C3.67972 13.9109 0.763885 10.9958 0.763885 7.39981Z" fill="#475569"/>
</svg>
