<svg width="17" height="17" viewBox="0 0 17 17" fill="none" xmlns="http://www.w3.org/2000/svg">
<path d="M8.60938 11.4102C10.4323 11.4102 11.9102 9.93235 11.9102 8.10938C11.9102 6.2864 10.4323 4.80859 8.60938 4.80859C6.7864 4.80859 5.30859 6.2864 5.30859 8.10938C5.30859 9.93235 6.7864 11.4102 8.60938 11.4102Z" stroke="#E2E8F0" stroke-width="1.32031" stroke-linecap="round" stroke-linejoin="round"/>
<path d="M8.60938 0.847656V2.16797" stroke="#E2E8F0" stroke-width="1.32031" stroke-linecap="round" stroke-linejoin="round"/>
<path d="M8.60938 14.0508V15.3711" stroke="#E2E8F0" stroke-width="1.32031" stroke-linecap="round" stroke-linejoin="round"/>
<path d="M3.47339 2.97336L4.41081 3.91078" stroke="#E2E8F0" stroke-width="1.32031" stroke-linecap="round" stroke-linejoin="round"/>
<path d="M12.808 12.308L13.7454 13.2454" stroke="#E2E8F0" stroke-width="1.32031" stroke-linecap="round" stroke-linejoin="round"/>
<path d="M1.34766 8.10938H2.66797" stroke="#E2E8F0" stroke-width="1.32031" stroke-linecap="round" stroke-linejoin="round"/>
<path d="M14.5508 8.10938H15.8711" stroke="#E2E8F0" stroke-width="1.32031" stroke-linecap="round" stroke-linejoin="round"/>
<path d="M3.47339 13.2454L4.41081 12.308" stroke="#E2E8F0" stroke-width="1.32031" stroke-linecap="round" stroke-linejoin="round"/>
<path d="M12.808 3.91078L13.7454 2.97336" stroke="#E2E8F0" stroke-width="1.32031" stroke-linecap="round" stroke-linejoin="round"/>
<defs>
<clipPath id="clip0_255_3794">
<rect width="15.8438" height="15.8438" fill="white" transform="translate(0.6875 0.1875)"/>
</clipPath>
</defs>
</svg>