<svg width="20" height="21" viewBox="0 0 20 21" fill="none" xmlns="http://www.w3.org/2000/svg">
<path d="M9.9365 10.8967C10.3938 10.8967 10.7645 10.526 10.7645 10.0686C10.7645 9.61133 10.3938 9.2406 9.9365 9.2406C9.47919 9.2406 9.10846 9.61133 9.10846 10.0686C9.10846 10.526 9.47919 10.8967 9.9365 10.8967Z" stroke="#94A3B8" stroke-width="1.65609" stroke-linecap="round" stroke-linejoin="round"/>
<path d="M15.7328 10.8967C16.1901 10.8967 16.5609 10.526 16.5609 10.0686C16.5609 9.61133 16.1901 9.2406 15.7328 9.2406C15.2755 9.2406 14.9048 9.61133 14.9048 10.0686C14.9048 10.526 15.2755 10.8967 15.7328 10.8967Z" stroke="#94A3B8" stroke-width="1.65609" stroke-linecap="round" stroke-linejoin="round"/>
<path d="M4.14024 10.8967C4.59755 10.8967 4.96828 10.526 4.96828 10.0686C4.96828 9.61133 4.59755 9.2406 4.14024 9.2406C3.68292 9.2406 3.31219 9.61133 3.31219 10.0686C3.31219 10.526 3.68292 10.8967 4.14024 10.8967Z" stroke="#94A3B8" stroke-width="1.65609" stroke-linecap="round" stroke-linejoin="round"/>
</svg>
