<svg width="16" height="17" viewBox="0 0 16 17" fill="none" xmlns="http://www.w3.org/2000/svg">
<path d="M10.6667 14.1321V12.7988C10.6667 12.0916 10.3857 11.4133 9.88564 10.9132C9.38554 10.4131 8.70726 10.1321 8.00002 10.1321H3.33335C2.62611 10.1321 1.94783 10.4131 1.44774 10.9132C0.947639 11.4133 0.666687 12.0916 0.666687 12.7988V14.1321" stroke="#EFF6FF" stroke-width="1.33333" stroke-linecap="round" stroke-linejoin="round"/>
<path d="M5.66667 7.46547C7.13943 7.46547 8.33333 6.27157 8.33333 4.79881C8.33333 3.32605 7.13943 2.13214 5.66667 2.13214C4.19391 2.13214 3 3.32605 3 4.79881C3 6.27157 4.19391 7.46547 5.66667 7.46547Z" stroke="#EFF6FF" stroke-width="1.33333" stroke-linecap="round" stroke-linejoin="round"/>
<path d="M11.3333 7.46547L12.6666 8.79881L15.3333 6.13214" stroke="#EFF6FF" stroke-width="1.33333" stroke-linecap="round" stroke-linejoin="round"/>
</svg>
