<svg width="66" height="66" viewBox="0 0 66 66" fill="none" xmlns="http://www.w3.org/2000/svg">
<g filter="url(#filter0_d_1424_138)">
<g clip-path="url(#clip0_1424_138)">
<path fill-rule="evenodd" clip-rule="evenodd" d="M57.5455 32C57.5455 45.556 46.5561 56.5455 33 56.5455C19.444 56.5455 8.45459 45.556 8.45459 32C8.45459 18.444 19.444 7.45454 33 7.45454C46.5561 7.45454 57.5455 18.444 57.5455 32Z" fill="#D9D9D9"/>
<mask id="mask0_1424_138" style="mask-type:luminance" maskUnits="userSpaceOnUse" x="3" y="2" width="60" height="60">
<path d="M63 2H3V62H63V2Z" fill="white"/>
<path fill-rule="evenodd" clip-rule="evenodd" d="M57.5455 32C57.5455 45.556 46.5561 56.5455 33 56.5455C19.444 56.5455 8.45459 45.556 8.45459 32C8.45459 18.444 19.444 7.45454 33 7.45454C46.5561 7.45454 57.5455 18.444 57.5455 32Z" fill="black"/>
</mask>
<g mask="url(#mask0_1424_138)">
<path d="M33 62C49.5686 62 63 48.5686 63 32H52.0909C52.0909 42.5436 43.5436 51.0909 33 51.0909V62ZM3 32C3 48.5686 16.4315 62 33 62V51.0909C22.4564 51.0909 13.9091 42.5436 13.9091 32H3ZM33 2C16.4315 2 3 15.4315 3 32H13.9091C13.9091 21.4564 22.4564 12.9091 33 12.9091V2ZM63 32C63 15.4315 49.5686 2 33 2V12.9091C43.5436 12.9091 52.0909 21.4564 52.0909 32H63Z" fill="white"/>
</g>
<path d="M33 56.5455C46.5561 56.5455 57.5455 45.556 57.5455 32C57.5455 18.444 46.5561 7.45454 33 7.45454C19.444 7.45454 8.45459 18.444 8.45459 32C8.45459 45.556 19.444 56.5455 33 56.5455Z" fill="#FFCC4D"/>
<path d="M40.4795 46.835C40.4645 46.775 38.9182 40.8636 33 40.8636C27.0818 40.8636 25.5355 46.775 25.5205 46.835C25.4482 47.1255 25.5805 47.4227 25.8368 47.5768C26.0932 47.7295 26.4273 47.6941 26.6495 47.495C26.6618 47.4841 28.0309 46.3182 33 46.3182C37.8955 46.3182 39.2959 47.45 39.3491 47.495C39.4786 47.6177 39.6477 47.6818 39.8182 47.6818C39.9327 47.6818 40.0486 47.6532 40.1536 47.5945C40.4209 47.4418 40.5545 47.1323 40.4795 46.835ZM23.7627 28.6073C23.3305 28.6073 22.8955 28.6605 22.4714 28.7655C18.5577 29.7295 17.6809 34.385 17.6455 34.5841C17.5909 34.8882 17.7491 35.1882 18.0286 35.3205C18.12 35.3627 18.2195 35.3845 18.3164 35.3845C18.5141 35.3845 18.7077 35.2986 18.8414 35.1391C18.855 35.1227 20.2186 33.5327 23.4491 32.7377C24.4227 32.4977 25.3745 32.3764 26.2759 32.3764C27.7814 32.3764 28.6377 32.7214 28.6418 32.7227C28.7332 32.7609 28.8205 32.7773 28.9241 32.7773C29.295 32.7936 29.6182 32.4759 29.6182 32.0955C29.6182 31.8705 29.5091 31.6714 29.3414 31.5473C28.8409 30.9541 26.6782 28.6073 23.7627 28.6073ZM42.2373 28.6073C42.6695 28.6073 43.1045 28.6605 43.5286 28.7655C47.4423 29.7295 48.3191 34.385 48.3545 34.5841C48.4091 34.8882 48.2509 35.1882 47.9714 35.3205C47.88 35.3627 47.7805 35.3845 47.6836 35.3845C47.4859 35.3845 47.2923 35.2986 47.1586 35.1391C47.145 35.1227 45.7814 33.5327 42.5509 32.7377C41.5773 32.4977 40.6255 32.3764 39.7241 32.3764C38.2186 32.3764 37.3636 32.7214 37.3582 32.7227C37.2668 32.7609 37.1795 32.7773 37.0773 32.7773C36.7064 32.7936 36.3832 32.4759 36.3832 32.0955C36.3832 31.8705 36.4923 31.6714 36.66 31.5473C37.1591 30.9541 39.3218 28.6073 42.2373 28.6073Z" fill="#664500"/>
</g>
</g>
<defs>
<filter id="filter0_d_1424_138" x="0" y="0" width="66" height="66" filterUnits="userSpaceOnUse" color-interpolation-filters="sRGB">
<feFlood flood-opacity="0" result="BackgroundImageFix"/>
<feColorMatrix in="SourceAlpha" type="matrix" values="0 0 0 0 0 0 0 0 0 0 0 0 0 0 0 0 0 0 127 0" result="hardAlpha"/>
<feOffset dy="1"/>
<feGaussianBlur stdDeviation="1.5"/>
<feColorMatrix type="matrix" values="0 0 0 0 0 0 0 0 0 0 0 0 0 0 0 0 0 0 0.34902 0"/>
<feBlend mode="normal" in2="BackgroundImageFix" result="effect1_dropShadow_1424_138"/>
<feBlend mode="normal" in="SourceGraphic" in2="effect1_dropShadow_1424_138" result="shape"/>
</filter>
<clipPath id="clip0_1424_138">
<rect width="60" height="60" fill="white" transform="translate(3 2)"/>
</clipPath>
</defs>
</svg>
