<svg width="230" height="229" viewBox="0 0 230 229" fill="none" xmlns="http://www.w3.org/2000/svg">
<path d="M114.73 0.414246C51.7996 0.414246 0.437195 51.7767 0.437195 114.707C0.437195 177.638 51.7996 229 114.73 229C177.661 229 229.023 177.638 229.023 114.707C229.023 51.7767 177.661 0.414246 114.73 0.414246ZM32.3652 114.707C32.3652 91.1083 42.5451 69.3602 58.7404 54.553C65.2186 48.5376 76.324 50.3885 80.9512 58.2548L109.64 107.766C112.416 112.394 112.416 117.946 109.64 122.573L80.9512 172.085C76.324 180.414 65.2186 181.802 58.2777 175.324C42.5451 159.591 32.3652 138.306 32.3652 114.707ZM148.509 171.159L119.82 121.648C117.044 117.021 117.044 111.468 119.82 106.841L148.509 57.3293C153.136 49.463 163.779 47.6121 170.72 53.6275C186.915 68.4347 197.095 90.1828 197.095 113.782C197.095 137.381 186.915 159.129 170.72 173.936C163.779 181.339 153.136 179.489 148.509 171.159Z" fill="#3B82F6"/>
</svg>
