<svg width="74" height="74" viewBox="0 0 74 74" fill="none" xmlns="http://www.w3.org/2000/svg">
<circle cx="37" cy="37" r="34.5333" stroke="#6CDA29" stroke-width="4.93333"/>
<path d="M42.7156 23.1508C43.8039 23.1508 44.8477 22.7185 45.6172 21.949C46.3868 21.1794 46.8191 20.1357 46.8191 19.0474C46.8191 17.9591 46.3868 16.9153 45.6172 16.1458C44.8477 15.3762 43.8039 14.9439 42.7156 14.9439C41.6273 14.9439 40.5836 15.3762 39.8141 16.1458C39.0445 16.9153 38.6122 17.9591 38.6122 19.0474C38.6122 20.1357 39.0445 21.1794 39.8141 21.949C40.5836 22.7185 41.6273 23.1508 42.7156 23.1508ZM35.3294 51.6699L37.3811 42.6423L41.6898 46.7457V59.0561H45.7932V43.6681L41.4846 39.5647L42.7156 33.4095C44.1213 35.0206 45.8557 36.3119 47.8022 37.1967C49.7487 38.0814 51.862 38.5391 54.0002 38.5388V34.4354C50.3891 34.4969 47.0243 32.6093 45.1777 29.5112L43.126 26.2284C42.3874 24.9974 41.0743 24.1767 39.638 24.1767C39.0225 24.1767 38.6122 24.3819 37.9967 24.3819L27.3277 28.8957V38.5388H31.4311V31.5629L35.1242 30.1267L31.8415 46.7457L21.788 44.694L20.9673 48.7975L35.3294 51.6699Z" fill="#6CDA29"/>
</svg>
