<svg width="74" height="74" viewBox="0 0 74 74" fill="none" xmlns="http://www.w3.org/2000/svg">
<circle cx="37" cy="37" r="34.5333" stroke="#45A982" stroke-width="4.93333"/>
<path d="M37 19C34.6362 19 32.2956 19.4656 30.1117 20.3702C27.9278 21.2748 25.9435 22.6006 24.2721 24.2721C22.6006 25.9435 21.2748 27.9278 20.3702 30.1117C19.4656 32.2956 19 34.6362 19 37C19 39.3638 19.4656 41.7044 20.3702 43.8883C21.2748 46.0722 22.6006 48.0565 24.2721 49.7279C25.9435 51.3994 27.9278 52.7252 30.1117 53.6298C32.2956 54.5344 34.6362 55 37 55C41.7739 55 46.3523 53.1036 49.7279 49.7279C53.1036 46.3523 55 41.7739 55 37C55 32.2261 53.1036 27.6477 49.7279 24.2721C46.3523 20.8964 41.7739 19 37 19ZM15 37C15 24.85 24.85 15 37 15C49.15 15 59 24.85 59 37C59 49.15 49.15 59 37 59C24.85 59 15 49.15 15 37ZM37 27C34.3478 27 31.8043 28.0536 29.9289 29.9289C28.0536 31.8043 27 34.3478 27 37C27 39.6522 28.0536 42.1957 29.9289 44.0711C31.8043 45.9464 34.3478 47 37 47C39.6522 47 42.1957 45.9464 44.0711 44.0711C45.9464 42.1957 47 39.6522 47 37C47 34.3478 45.9464 31.8043 44.0711 29.9289C42.1957 28.0536 39.6522 27 37 27ZM23 37C23 35.1615 23.3621 33.341 24.0657 31.6424C24.7693 29.9439 25.8005 28.4005 27.1005 27.1005C28.4005 25.8005 29.9439 24.7693 31.6424 24.0657C33.341 23.3621 35.1615 23 37 23C38.8385 23 40.659 23.3621 42.3576 24.0657C44.0561 24.7693 45.5995 25.8005 46.8995 27.1005C48.1995 28.4005 49.2307 29.9439 49.9343 31.6424C50.6379 33.341 51 35.1615 51 37C51 40.713 49.525 44.274 46.8995 46.8995C44.274 49.525 40.713 51 37 51C33.287 51 29.726 49.525 27.1005 46.8995C24.475 44.274 23 40.713 23 37ZM33 37C33 35.9391 33.4214 34.9217 34.1716 34.1716C34.9217 33.4214 35.9391 33 37 33C38.0609 33 39.0783 33.4214 39.8284 34.1716C40.5786 34.9217 41 35.9391 41 37C41 38.0609 40.5786 39.0783 39.8284 39.8284C39.0783 40.5786 38.0609 41 37 41C35.9391 41 34.9217 40.5786 34.1716 39.8284C33.4214 39.0783 33 38.0609 33 37Z" fill="#45A982"/>
</svg>
