<svg width="74" height="74" viewBox="0 0 74 74" fill="none" xmlns="http://www.w3.org/2000/svg">
<circle cx="37" cy="37" r="34.5333" stroke="#C64191" stroke-width="4.93333"/>
<path d="M39.955 19.8132C39.6373 19.627 39.2696 19.5443 38.9028 19.5767C38.536 19.6091 38.1884 19.7549 37.9083 19.994L23.4558 32.3218C18.2745 37.5032 18.2745 45.9344 23.4558 51.1157C24.6883 52.3498 26.1524 53.3282 27.7641 53.9948C29.3758 54.6614 31.1034 55.003 32.8475 54.9999C36.2568 54.9999 39.6697 53.6993 42.2692 51.098L54.5014 38.5238C54.744 38.2742 54.9078 37.9586 54.9722 37.6164C55.0365 37.2742 54.9987 36.9207 54.8633 36.5999C54.728 36.2791 54.5012 36.0053 54.2111 35.8127C53.9211 35.62 53.5808 35.5171 53.2326 35.5167H47.3832L54.7813 22.2019C54.9666 21.8653 55.0376 21.4777 54.9837 21.0974C54.9297 20.717 54.7537 20.3644 54.4822 20.0927C54.2106 19.8209 53.8582 19.6447 53.4779 19.5905C53.0975 19.5362 52.7099 19.6069 52.3732 19.792L39.7742 26.7914L40.7949 21.6898C40.8669 21.3285 40.8247 20.9538 40.6742 20.6176C40.5237 20.2813 40.2723 20.0002 39.955 19.8132ZM40.8286 41.7188C40.8286 43.8336 39.9885 45.8618 38.493 47.3572C36.9976 48.8527 34.9694 49.6928 32.8545 49.6928C30.7397 49.6928 28.7115 48.8527 27.2161 47.3572C25.7206 45.8618 24.8805 43.8336 24.8805 41.7188C24.8805 38.9367 26.3105 36.4931 28.4688 35.0667C28.4511 35.2155 28.4245 35.3626 28.4245 35.5167C28.4245 36.0413 28.541 36.5593 28.7655 37.0334C28.99 37.5075 29.3169 37.9259 29.7227 38.2583C30.1285 38.5907 30.603 38.8289 31.1121 38.9557C31.6211 39.0825 32.1519 39.0947 32.6662 38.9914C33.1805 38.8881 33.6655 38.672 34.0861 38.3586C34.5067 38.0451 34.8525 37.6422 35.0986 37.1789C35.3446 36.7157 35.4847 36.2035 35.5088 35.6795C35.5329 35.1555 35.4404 34.6327 35.2379 34.1488C38.47 35.1659 40.8286 38.1499 40.8286 41.7188Z" fill="#C64191"/>
</svg>
