<svg width="74" height="74" viewBox="0 0 74 74" fill="none" xmlns="http://www.w3.org/2000/svg">
<circle cx="37" cy="37" r="34.5333" stroke="#66D592" stroke-width="4.93333"/>
<path d="M52.6471 50.2C53.5363 50.2 54.3891 50.5477 55.0179 51.1666C55.6467 51.7854 56 52.6248 56 53.5C56 54.3752 55.6467 55.2146 55.0179 55.8335C54.3891 56.4523 53.5363 56.8 52.6471 56.8C51.7578 56.8 50.905 56.4523 50.2762 55.8335C49.6474 55.2146 49.2941 54.3752 49.2941 53.5C49.2941 52.6248 49.6474 51.7854 50.2762 51.1666C50.905 50.5477 51.7578 50.2 52.6471 50.2ZM47.0588 23.624L33.6471 30.4V50.266C39.9953 50.618 44.8235 52.4 44.8235 54.6C44.8235 57.02 38.8106 59 31.4118 59C24.0129 59 18 57.02 18 54.6C18 52.972 20.7047 51.564 24.7059 50.794V54.6H29.1765V15L47.0588 23.624Z" fill="#66D592"/>
</svg>
