<svg width="74" height="74" viewBox="0 0 74 74" fill="none" xmlns="http://www.w3.org/2000/svg">
<circle cx="37" cy="37" r="34.5333" stroke="#C559C7" stroke-width="4.93333"/>
<path d="M37.6471 15C36.4302 15 35.2631 15.4755 34.4027 16.3218C33.5422 17.1681 33.0588 18.3159 33.0588 19.5128C33.0588 20.7097 33.5422 21.8575 34.4027 22.7039C35.2631 23.5502 36.4302 24.0256 37.6471 24.0256C40.1935 24.0256 42.2353 22.0174 42.2353 19.5128C42.2353 18.3159 41.7519 17.1681 40.8914 16.3218C40.031 15.4755 38.8639 15 37.6471 15ZM17 26.2821V30.7949H30.7647V44.3333L19.1335 55.7733L22.3682 59L37.7847 43.8144L46.8235 49.1395V57.8718H51.4118V47.8759C51.4118 47.0636 50.9988 46.3415 50.2647 45.9354L42.2353 41.1744V30.7949H56V26.2821H17Z" fill="#C559C7"/>
</svg>
