<svg width="74" height="74" viewBox="0 0 74 74" fill="none" xmlns="http://www.w3.org/2000/svg">
<circle cx="37" cy="37" r="34.5333" stroke="#75BCFD" stroke-width="4.93333"/>
<path d="M31.5031 21.6914C30.7662 21.712 30.0945 22.1953 29.8655 22.9408L28.9934 25.7743C28.7364 26.6107 29.1266 27.4864 29.8803 27.8681L28.6887 31.7485L28.1342 31.2284C28.03 31.1293 27.9071 31.0519 27.7728 31.0006C27.6385 30.9493 27.4955 30.9252 27.3518 30.9296C27.209 30.9349 27.0686 30.9684 26.9388 31.028C26.8089 31.0876 26.6919 31.1722 26.5948 31.277C26.4968 31.3812 26.4205 31.5038 26.3699 31.6376C26.3193 31.7714 26.2956 31.9139 26.3001 32.0569C26.3047 32.1999 26.3373 32.3405 26.3963 32.4709C26.4553 32.6012 26.5394 32.7186 26.6439 32.8164L27.9765 34.0637L26.723 38.1488L26.6119 38.1509C26.4689 38.1529 26.3277 38.1832 26.1964 38.2398C26.0651 38.2964 25.9462 38.3784 25.8466 38.4809C25.747 38.5835 25.6687 38.7046 25.6159 38.8375C25.5632 38.9704 25.5372 39.1125 25.5394 39.2554C25.5425 39.4458 25.5956 39.6321 25.6932 39.7956C25.7909 39.9591 25.9297 40.0942 26.0959 40.1872L25.6973 41.4899C24.9615 41.3941 24.2456 41.7717 23.9063 42.4302L11.8679 42.6715C11.7605 42.6707 11.6539 42.691 11.5544 42.7313C11.4548 42.7717 11.3644 42.8314 11.2879 42.9069C11.2115 42.9823 11.1506 43.0721 11.1089 43.1712C11.0672 43.2702 11.0455 43.3764 11.0449 43.4838C11.0449 44.4577 11.5498 45.3588 12.3265 46.1127C13.1031 46.8666 14.1697 47.525 15.5095 48.134C18.1892 49.3521 21.836 50.6401 23.0088 50.8178C32.3116 52.2274 38.0841 52.4628 47.3868 51.0532C52.0382 50.3484 55.8112 49.346 58.4907 48.128C59.8306 47.5189 60.906 46.8606 61.6826 46.1067C62.4593 45.3527 62.9553 44.4517 62.9553 43.4778C62.9542 43.2623 62.8682 43.056 62.7156 42.9039C62.563 42.7517 62.3564 42.666 62.1409 42.6655L40.6819 42.4302V32.9955C40.6818 32.5301 39.3617 31.7952 37.9091 31.7952C37.079 31.5877 36.0171 32.1884 35.9272 32.247C35.8777 32.2613 35.8293 32.2791 35.7824 32.3003L31.3666 34.2576L29.5756 32.5774L30.9254 28.1875C31.7633 28.2947 32.5766 27.7888 32.8335 26.9529L33.7035 24.1193C33.9911 23.1838 33.4682 22.2001 32.5328 21.9126L32.0725 21.7698C31.8823 21.7112 31.6911 21.686 31.5031 21.6914ZM37.5048 26.1538C36.8322 26.1536 36.1871 26.4207 35.7113 26.8961C35.2355 27.3715 34.9681 28.0164 34.9677 28.689C34.9676 29.0222 35.0331 29.3521 35.1606 29.66C35.2881 29.9679 35.475 30.2476 35.7106 30.4832C35.9462 30.7188 36.2259 30.9057 36.5338 31.0332C36.8417 31.1607 37.1716 31.2263 37.5048 31.2262C37.8381 31.2263 38.168 31.1607 38.4759 31.0332C38.7837 30.9057 39.0635 30.7188 39.2991 30.4832C39.5347 30.2476 39.7216 29.9679 39.8491 29.66C39.9765 29.3521 40.0421 29.0222 40.042 28.689C40.0416 28.0164 39.7741 27.3715 39.2983 26.8961C38.8225 26.4207 38.1774 26.1537 37.5048 26.1538ZM35.5731 34.7762V35.934L33.4134 38.0212L27.8678 38.1277L28.8635 34.8933L30.4072 36.3368C30.5628 36.4829 30.7578 36.58 30.9682 36.616C31.1786 36.6521 31.3951 36.6254 31.5905 36.5394L35.5731 34.7762ZM35.5731 38.9572V42.4304H27.4243C27.258 42.1713 27.0228 41.9551 26.7355 41.81L27.1939 40.3155L33.8803 40.1896C34.1545 40.184 34.4163 40.0752 34.6136 39.8847L35.5731 38.9572ZM13.1237 44.3071L23.3732 44.0658L22.9149 45.5582C22.6273 46.4938 23.1496 47.4775 24.0853 47.765L24.5459 47.9077C25.4815 48.1953 26.4652 47.6726 26.7527 46.7373L27.5756 44.0658L60.8828 44.3011C60.7586 44.5136 60.7952 44.6885 60.5464 44.93C59.9722 45.4875 59.0497 46.0879 57.8214 46.6463C55.3648 47.7631 51.6969 48.7452 47.1438 49.4352C38.0374 50.815 32.3647 50.5797 23.2584 49.1999C22.3101 48.7513 18.6443 47.7691 16.1877 46.6524C14.9594 46.094 14.0371 45.4935 13.4629 44.9361C13.2142 44.6947 13.2479 44.5195 13.1237 44.3071Z" fill="#75BCFD"/>
<path d="M18.1335 43.8315H61.5759L58.7315 46.7789L52.9564 49.3053L36.4069 51.0948L22.2709 49.9369L15.8062 47.4105L12.186 43.8315H18.1335Z" fill="#75BCFD"/>
</svg>
