<svg width="74" height="74" viewBox="0 0 74 74" fill="none" xmlns="http://www.w3.org/2000/svg">
<circle cx="37" cy="37" r="34.5333" stroke="#E9658C" stroke-width="4.93333"/>
<path d="M49.8916 56.1429C48.0901 56.1429 46.3291 55.6087 44.8312 54.6079C43.3333 53.607 42.1659 52.1845 41.4765 50.5201C40.7871 48.8558 40.6067 47.0244 40.9582 45.2575C41.3096 43.4907 42.1771 41.8677 43.4509 40.5939C44.7248 39.3201 46.3477 38.4526 48.1146 38.1011C49.8815 37.7497 51.7129 37.93 53.3772 38.6194C55.0415 39.3088 56.4641 40.4763 57.4649 41.9741C58.4658 43.472 59 45.233 59 47.0345C58.9973 49.4494 58.0369 51.7646 56.3293 53.4722C54.6217 55.1798 52.3065 56.1403 49.8916 56.1429ZM49.8916 41.0942C48.7167 41.0942 47.5682 41.4426 46.5913 42.0954C45.6145 42.7481 44.8531 43.6758 44.4035 44.7613C43.9539 45.8467 43.8362 47.0411 44.0654 48.1934C44.2946 49.3457 44.8604 50.4041 45.6912 51.2349C46.5219 52.0657 47.5804 52.6314 48.7327 52.8606C49.885 53.0898 51.0794 52.9722 52.1648 52.5226C53.2502 52.073 54.178 51.3116 54.8307 50.3347C55.4834 49.3579 55.8318 48.2094 55.8318 47.0345C55.83 45.4596 55.2036 43.9497 54.0899 42.8361C52.9763 41.7225 51.4665 41.0961 49.8916 41.0942ZM23.7544 56.1429C21.9529 56.1429 20.1919 55.6087 18.694 54.6079C17.1962 53.607 16.0287 52.1845 15.3393 50.5201C14.6499 48.8558 14.4696 47.0244 14.821 45.2575C15.1725 43.4907 16.04 41.8677 17.3138 40.5939C18.5876 39.3201 20.2106 38.4526 21.9774 38.1011C23.7443 37.7497 25.5757 37.93 27.24 38.6194C28.9044 39.3088 30.3269 40.4763 31.3278 41.9741C32.3286 43.472 32.8628 45.233 32.8628 47.0345C32.8602 49.4494 31.8997 51.7646 30.1921 53.4722C28.4845 55.1798 26.1693 56.1403 23.7544 56.1429ZM23.7544 41.0942C22.5795 41.0942 21.431 41.4426 20.4542 42.0954C19.4773 42.7481 18.7159 43.6758 18.2663 44.7613C17.8167 45.8467 17.6991 47.0411 17.9283 48.1934C18.1575 49.3457 18.7232 50.4041 19.554 51.2349C20.3848 52.0657 21.4432 52.6314 22.5955 52.8606C23.7478 53.0898 24.9422 52.9722 26.0276 52.5226C27.1131 52.073 28.0408 51.3116 28.6936 50.3347C29.3463 49.3579 29.6947 48.2094 29.6947 47.0345C29.6928 45.4596 29.0664 43.9497 27.9528 42.8361C26.8392 41.7225 25.3293 41.0961 23.7544 41.0942ZM43.1593 24.4615C43.5765 24.463 43.99 24.3817 44.3757 24.2223C44.7613 24.063 45.1116 23.8288 45.4062 23.5333C45.7008 23.2378 45.9339 22.8868 46.092 22.5006C46.2502 22.1144 46.3302 21.7007 46.3274 21.2835C46.332 20.8683 46.2538 20.4563 46.0974 20.0717C45.9409 19.6871 45.7093 19.3375 45.4162 19.0435C45.123 18.7494 44.7742 18.5167 44.3901 18.3591C44.006 18.2014 43.5943 18.1219 43.1791 18.1252C42.763 18.1239 42.3508 18.2046 41.9659 18.3626C41.581 18.5206 41.2311 18.7529 40.936 19.0461C40.6408 19.3394 40.4064 19.6879 40.246 20.0718C40.0856 20.4557 40.0023 20.8674 40.001 21.2835C39.9997 21.6995 40.0804 22.1117 40.2384 22.4966C40.3964 22.8815 40.6287 23.2315 40.922 23.5266C41.2152 23.8217 41.5637 24.0561 41.9476 24.2166C42.3315 24.377 42.7432 24.4602 43.1593 24.4615Z" fill="#E9658C"/>
<path d="M47.8667 30.7978H43.5343C43.4632 30.7978 43.3934 30.7787 43.3323 30.7424C43.2712 30.7062 43.2209 30.6542 43.1868 30.5918L40.0444 24.8327C39.823 24.4048 39.5039 24.0349 39.113 23.7532C38.7221 23.4714 38.2703 23.2857 37.7943 23.2109C37.3183 23.1362 36.8313 23.1747 36.3729 23.3231C35.9145 23.4716 35.4974 23.7259 35.1555 24.0655L28.2391 31.0354C27.658 31.6284 27.3282 32.4228 27.3184 33.2531C27.3184 34.9757 28.5658 35.5896 29.1499 35.9361C31.9716 37.5617 33.9586 38.7508 35.0486 39.4111C35.1066 39.4464 35.1545 39.496 35.1878 39.5551C35.2211 39.6142 35.2386 39.6809 35.2387 39.7487V46.5919C35.2387 47.4443 35.8941 48.176 36.7465 48.2186C36.9606 48.2289 37.1744 48.1957 37.3753 48.1209C37.5761 48.0462 37.7596 47.9315 37.9148 47.7838C38.07 47.6361 38.1937 47.4584 38.2782 47.2616C38.3628 47.0647 38.4066 46.8527 38.4069 46.6385V38.1241C38.407 37.8726 38.3473 37.6247 38.2326 37.4009C38.118 37.1771 37.9517 36.9838 37.7475 36.837L34.0843 34.2025C34.0383 34.1696 33.9999 34.1272 33.9717 34.0783C33.9435 34.0293 33.926 33.9748 33.9206 33.9186C33.9151 33.8623 33.9218 33.8055 33.9402 33.752C33.9585 33.6985 33.9881 33.6496 34.0269 33.6085L38.1851 29.1741C38.2277 29.1285 38.2805 29.0936 38.3392 29.0722C38.3979 29.0509 38.4608 29.0438 38.5228 29.0514C38.5848 29.059 38.6441 29.0812 38.6958 29.1161C38.7476 29.151 38.7904 29.1977 38.8207 29.2523L40.981 33.1511C41.1183 33.3982 41.3192 33.6041 41.5629 33.7474C41.8067 33.8907 42.0843 33.9661 42.367 33.9659H47.9113C48.1259 33.9661 48.3383 33.9228 48.5356 33.8385C48.7329 33.7541 48.9111 33.6306 49.0592 33.4753C49.2074 33.32 49.3224 33.1363 49.3974 32.9352C49.4723 32.7341 49.5057 32.5199 49.4953 32.3056C49.4538 31.4532 48.7191 30.7978 47.8667 30.7978Z" fill="#E9658C"/>
</svg>
