<svg width="74" height="74" viewBox="0 0 74 74" fill="none" xmlns="http://www.w3.org/2000/svg">
<circle cx="37" cy="37" r="34.5333" stroke="#E2642E" stroke-width="4.93333"/>
<path d="M18.663 41.626C19.833 41.1972 21.042 40.9828 22.329 40.9828C24.942 40.9828 27.2235 41.8014 29.1735 43.4386L23.0505 49.5585C21.0191 47.2712 19.5206 44.5619 18.663 41.626ZM44.442 32.2121C48.2835 35.0772 52.437 35.7789 56.883 34.3171C56.9415 34.7264 57 35.467 57 36.5C57 38.5075 56.5125 40.7489 55.596 43.2242C54.6795 45.6799 53.5485 47.668 52.2225 49.1687L39.879 36.8703L44.442 32.2121ZM31.2015 45.5435C33.2685 48.5255 33.6975 51.7804 32.469 55.3277C29.7 54.5286 27.2235 53.2812 25.1565 51.566L31.2015 45.5435ZM37.8705 38.8778L50.175 51.2152C45.9435 54.9184 40.971 56.4776 35.316 55.8734C35.7255 54.587 35.94 53.1837 35.94 51.6635C35.94 50.4551 35.667 49.0323 35.121 47.4146C34.575 45.7969 33.9315 44.4715 33.21 43.4386L37.8705 38.8778ZM31.2795 41.3726C29.5025 39.7842 27.3242 38.7124 24.981 38.2736C22.602 37.8253 20.3205 37.9618 18.117 38.7024C18.0585 38.2736 18 37.533 18 36.5C18 34.4925 18.4875 32.2511 19.404 29.7758C20.3205 27.3201 21.4515 25.332 22.7775 23.8313L35.7645 36.8703L31.2795 41.3726ZM44.442 28.1776C41.829 24.9617 41.2245 21.4535 42.6285 17.6723C43.8375 17.9842 45.222 18.5689 46.782 19.4654C48.3225 20.3425 49.59 21.2196 50.565 22.0577L44.442 28.1776ZM56.337 31.3935C55.167 31.8028 53.958 32.0172 52.671 32.0172C50.5455 32.0172 48.498 31.3935 46.548 30.1072L52.5735 24.1626C54.2895 26.3066 55.5375 28.7039 56.337 31.3935ZM37.8705 34.7654L24.825 21.7848C29.0565 18.0816 34.029 16.5224 39.7035 17.1266C39.2745 18.413 39.06 19.8163 39.06 21.3365C39.06 22.7398 39.372 24.3185 40.0155 26.0922C40.659 27.8463 41.4 29.2496 42.375 30.2826L37.8705 34.7654Z" fill="#E2642E"/>
</svg>
