<svg width="74" height="74" viewBox="0 0 74 74" fill="none" xmlns="http://www.w3.org/2000/svg">
<circle cx="37" cy="37" r="34.5333" stroke="#CCE04B" stroke-width="4.93333"/>
<path d="M37 15C39.8891 15 42.7499 15.569 45.419 16.6747C48.0882 17.7803 50.5135 19.4008 52.5563 21.4437C54.5992 23.4865 56.2197 25.9118 57.3254 28.581C58.431 31.2501 59 34.1109 59 37C59 42.8348 56.6821 48.4305 52.5563 52.5563C48.4305 56.6821 42.8348 59 37 59C34.1109 59 31.2501 58.431 28.581 57.3254C25.9118 56.2197 23.4865 54.5992 21.4437 52.5563C17.3179 48.4305 15 42.8348 15 37C15 31.1652 17.3179 25.5695 21.4437 21.4437C25.5695 17.3179 31.1652 15 37 15ZM38.1 34.8C37.2248 34.8 36.3854 35.1477 35.7665 35.7665C35.1477 36.3854 34.8 37.2248 34.8 38.1C34.8 38.9752 35.1477 39.8146 35.7665 40.4335C36.3854 41.0523 37.2248 41.4 38.1 41.4C38.9752 41.4 39.8146 41.0523 40.4335 40.4335C41.0523 39.8146 41.4 38.9752 41.4 38.1C41.4 37.2248 41.0523 36.3854 40.4335 35.7665C39.8146 35.1477 38.9752 34.8 38.1 34.8ZM37 21.6C35.833 21.6 34.7139 22.0636 33.8887 22.8887C33.0636 23.7139 32.6 24.833 32.6 26C32.6 27.167 33.0636 28.2861 33.8887 29.1113C34.7139 29.9364 35.833 30.4 37 30.4C38.167 30.4 39.2861 29.9364 40.1113 29.1113C40.9364 28.2861 41.4 27.167 41.4 26C41.4 24.833 40.9364 23.7139 40.1113 22.8887C39.2861 22.0636 38.167 21.6 37 21.6ZM23.646 29.3C22.436 31.39 23.162 34.074 25.252 35.284C27.364 36.516 30.048 35.79 31.28 33.7C32.49 31.566 31.764 28.882 29.652 27.672C27.562 26.462 24.9 27.166 23.646 29.3Z" fill="#CCE04B"/>
</svg>
