<svg width="74" height="74" viewBox="0 0 74 74" fill="none" xmlns="http://www.w3.org/2000/svg">
<circle cx="37" cy="37" r="34.5333" stroke="#3E9D4D" stroke-width="4.93333"/>
<path d="M39.355 28.2849C42.0023 28.2849 44.156 26.131 44.156 23.4836C44.156 20.8363 42.0023 18.6826 39.355 18.6826C36.7083 18.6826 34.5552 20.8363 34.5552 23.4836C34.5552 26.1311 36.7083 28.2849 39.355 28.2849Z" fill="#3E9D4D"/>
<path d="M50.9209 54.7834L46.8592 48.041C46.6692 47.7255 46.3985 47.0374 46.3227 46.6777L44.8127 37.5073L44.9466 37.4992C45.9726 37.437 46.8316 36.8943 47.2446 36.0474C47.6577 35.2005 47.5565 34.1894 46.9739 33.3429L44.5218 29.7794C44.1426 29.2283 43.6043 28.8993 42.8464 28.8993C42.829 28.8993 35.3417 28.8993 35.3417 28.8993L31.8436 17.5081C32.0096 17.4818 32.1769 17.4679 32.3456 17.4679C32.7509 17.4679 33.0795 17.1393 33.0795 16.734C33.0795 16.3286 32.7509 16 32.3456 16C30.0394 16 27.9117 17.6808 26.3542 20.733C25.1754 23.0429 24.4198 25.9499 24.1622 29.0951C23.4758 29.4216 23 30.1217 23 30.9309C23 31.7104 23.4414 32.3884 24.0873 32.7289C24.2313 36.3429 25.0233 39.7119 26.3541 42.3198C27.9116 45.372 30.0393 47.0528 32.3455 47.0528C32.7508 47.0528 33.0794 46.7242 33.0794 46.3189C33.0794 45.9135 32.7508 45.5849 32.3455 45.5849C32.2349 45.5849 32.125 45.5789 32.0155 45.5674L35.4065 37.8335C35.6364 37.9401 35.8887 38.0043 36.154 38.0176L36.3119 39.7815C36.3165 39.8801 36.2993 39.9381 36.2914 39.9744L32.7931 56.1187C32.5429 57.2731 33.2786 58.4158 34.4332 58.6661C34.5839 58.6985 34.7372 58.715 34.8885 58.715C35.8884 58.715 36.7681 58.0047 36.9802 57.026L40.0765 42.7371H41.1148L42.1306 47.5605C42.3057 48.3921 42.751 49.5237 43.1893 50.2515L47.251 56.9941C47.6422 57.6435 48.3288 58.0312 49.0877 58.0312C49.4757 58.0312 49.8573 57.9249 50.1913 57.7237C51.203 57.1143 51.5302 55.7953 50.9209 54.7834ZM30.4694 18.034L33.8062 28.8994H25.6564C26.15 23.7575 28.0545 19.5162 30.4694 18.034ZM25.5682 32.9626H35.0541L35.4162 34.1419C34.6735 34.4808 34.177 35.2514 34.2293 36.1137C34.2402 36.2939 34.2763 36.4669 34.3309 36.631L30.6155 45.1047C27.946 43.6018 25.8675 38.7384 25.5682 32.9626Z" fill="#3E9D4D"/>
</svg>
