<svg width="74" height="74" viewBox="0 0 74 74" fill="none" xmlns="http://www.w3.org/2000/svg">
<circle cx="37" cy="37" r="34.5333" stroke="#E1EBFC" stroke-width="4.93333"/>
<path d="M39.3356 50.3049L42.3333 53.3202L40.1209 55.5326L37.9036 53.3152L37.6699 53.0816L37.4363 53.3152L35.2181 55.5334L32.9891 53.3201L36.0036 50.3055L36.1004 50.2088V50.0719V45.7779V45.5888L35.9374 45.493L31.2824 42.757L31.1182 42.6606L30.9524 42.7542L27.1524 44.9012L27.0314 44.9696L26.9957 45.1039L25.9029 49.2106L22.8743 48.3946L23.6822 45.3692L23.7676 45.0495L23.4478 44.9645L20.4053 44.1567L21.2214 41.128L25.33 42.2212L25.4602 42.2559L25.5775 42.1896L29.3775 40.0426L29.5454 39.9478V39.7549V34.2639V34.0711L29.3775 33.9763L25.5775 31.8293L25.4602 31.763L25.33 31.7976L21.2214 32.8909L20.4053 29.8622L23.4478 29.0543L23.7672 28.9695L23.6824 28.6502L22.8737 25.605L25.8788 24.7911L26.8993 28.8908L26.9337 29.0287L27.0574 29.0987L30.8574 31.2456L31.0215 31.3384L31.1849 31.2443L35.9349 28.5083L36.1004 28.413V28.222V23.928V23.7911L36.0036 23.6943L32.9891 20.6798L35.2181 18.4665L37.4363 20.6846L37.6699 20.9183L37.9036 20.6846L40.1218 18.4665L42.3508 20.6798L39.3363 23.6943L39.2395 23.7911V23.928V28.222V28.411L39.4025 28.5068L44.0575 31.2428L44.2217 31.3393L44.3875 31.2456L48.1875 29.0987L48.3085 29.0303L48.3442 28.8959L49.437 24.7893L52.4677 25.6058L51.6761 28.6519L51.5934 28.97L51.9111 29.0543L54.9535 29.8622L54.1375 32.8909L50.0289 31.7976L49.8987 31.763L49.7814 31.8293L45.9814 33.9763L45.8135 34.0711V34.2639V39.7359V39.9288L45.9814 40.0236L49.7814 42.1706L49.8987 42.2369L50.0289 42.2022L54.136 41.1094L54.9361 44.1373L51.8921 44.9455L51.5727 45.0303L51.6575 45.3497L52.4662 48.395L49.5318 49.1911L48.4392 45.0849L48.4035 44.9506L48.2825 44.8822L44.4825 42.7352L44.3178 42.6422L44.1541 42.7371L39.4042 45.4921L39.2395 45.5876V45.7779V50.0719V50.2082L39.3356 50.3049ZM32.7542 33.9781L32.5895 34.0736V34.2639V39.7359V39.9263L32.7542 40.0218L37.5042 42.7768L37.6699 42.8729L37.8357 42.7768L42.5857 40.0218L42.7504 39.9263V39.7359V34.2639V34.0736L42.5857 33.9781L37.8357 31.2231L37.6699 31.127L37.5042 31.2231L32.7542 33.9781Z" fill="#E1EBFC" stroke="#E1EBFC" stroke-width="0.660867"/>
</svg>
