<svg width="74" height="74" viewBox="0 0 74 74" fill="none" xmlns="http://www.w3.org/2000/svg">
<circle cx="37" cy="37" r="34.5333" stroke="#E5F9FD" stroke-width="4.93333"/>
<path d="M48.636 40.2274C48.1235 40.1455 46.1555 39.5721 45.643 39.3469L41.3995 52.6159L35.065 50.302L39.575 38.4869L33.3225 31.3814L38.55 28.3918C39.4725 30.7057 40.9485 32.651 42.896 34.2482C44.8435 35.8454 47.078 36.8487 49.579 37.2378L51.875 30.2143L48.923 29.2518L47.857 32.5281C46.504 31.9548 45.315 31.0948 44.29 29.989C43.265 28.8628 42.527 27.5523 42.076 26.0779L41.3995 23.8664C41.1535 23.0474 40.682 22.3921 40.0055 21.9007C39.329 21.4297 38.55 21.143 37.7915 21.0816C36.992 21.0202 36.213 21.143 35.475 21.573L28.3 25.7094C27.5415 26.1394 26.988 26.7537 26.6395 27.5318C26.25 28.3099 26.168 29.088 26.25 29.9276C26.332 30.7671 26.783 31.5043 27.357 32.1391L34.6755 39.736L31.211 48.8686L16.9635 43.7699L16 46.6571L44.782 57.1412C47.6322 58.1339 50.7115 58.2692 53.638 57.5303C54.8475 57.2027 55.975 56.7522 57 56.1788L54.6835 53.9059C53.146 54.5816 51.547 54.9297 49.8865 54.9297C48.5335 54.9297 47.1805 54.7045 45.8275 54.254L44.29 53.6806L48.636 40.2274ZM50.85 19.0954C50.85 21.3683 49.0255 23.1907 46.75 23.1907C44.4745 23.1907 42.65 21.3683 42.65 19.0954C42.65 16.8224 44.495 15 46.75 15C49.005 15 50.85 16.8429 50.85 19.0954Z" fill="#E5F9FD"/>
</svg>
