<svg width="74" height="74" viewBox="0 0 74 74" fill="none" xmlns="http://www.w3.org/2000/svg">
<circle cx="37" cy="37" r="34.5333" stroke="#4E5D91" stroke-width="4.93333"/>
<path d="M20.8564 48.1458C16.718 48.9122 16.8809 45.6072 18.0304 44.3139L26.9396 38.7098C28.6639 37.8955 31.8571 40.1308 33.358 41.0568C30.3883 30.9981 32.879 27.5973 33.358 25.7293C33.6351 24.6484 37.9562 19.0714 42.2671 16.1496L54.4333 15C58.0257 16.7722 56.3014 19.5983 54.4333 20.2688L44.662 21.61L40.0638 29.178C40.0638 32.1762 40.0638 34.8776 41.2706 36.8315C43.0075 40.667 44.3899 41.6709 45.2368 43.6434C46.9228 50.2342 41.3091 51.4508 38.531 49.966L27.7059 43.6434L20.8564 48.1458Z" fill="#4E5D91"/>
<circle cx="48.6858" cy="54.3059" r="4.69406" fill="#4E5D91"/>
<path d="M45.4005 22.5122L44.5439 23.9875L53.6457 25.3611C56.0061 24.752 55.8064 21.9931 55.3463 21.2L45.4005 22.5122Z" fill="#4E5D91"/>
</svg>
