<svg width="74" height="74" viewBox="0 0 74 74" fill="none" xmlns="http://www.w3.org/2000/svg">
<circle cx="37" cy="37" r="34.5333" stroke="#84D752" stroke-width="4.93333"/>
<path d="M47.1135 46.484L45.5535 43.832L48.4005 35.3105L51.15 34.394L53.1 35.8565V36.1295C53.1 36.266 53.1585 36.383 53.1585 36.5C53.1585 40.3415 51.8715 43.7345 49.317 46.6595L47.1135 46.484ZM33.1125 42.35L30.441 34.4915L37.5 29.5385L44.559 34.4915L41.8875 42.35H33.1125ZM37.5 52.1585C35.784 52.1585 34.1655 51.8855 32.625 51.3395L31.2795 48.395L32.5665 46.25H42.531L43.7205 48.395L42.375 51.3395C40.8345 51.8855 39.216 52.1585 37.5 52.1585ZM25.683 46.6595C24.6495 45.4505 23.7525 43.832 22.992 41.8625C22.2315 39.8735 21.8415 38.0795 21.8415 36.5C21.8415 36.383 21.9 36.266 21.9 36.1295V35.8565L23.85 34.394L26.5995 35.3105L29.4465 43.832L27.8865 46.484L25.683 46.6595ZM35.55 23.4155V26.1455L27.75 31.547L25.137 30.728L24.318 28.076C25.176 26.75 26.4435 25.424 28.1205 24.137C29.7975 22.85 31.3965 22.0115 32.9175 21.5825L35.55 23.4155ZM42.0825 21.5825C43.6035 22.0115 45.2025 22.85 46.8795 24.137C48.5565 25.424 49.824 26.75 50.682 28.076L49.863 30.728L47.25 31.5665L39.45 26.165V23.4155L42.0825 21.5825ZM23.7135 22.7135C19.95 26.5355 18 31.1375 18 36.5C18 41.8625 19.95 46.4645 23.7135 50.2865C27.477 54.1085 32.1375 56 37.5 56C42.8625 56 47.4645 54.05 51.2865 50.2865C55.1085 46.523 57 41.8625 57 36.5C57 31.1375 55.05 26.5355 51.2865 22.7135C47.523 18.8915 42.8625 17 37.5 17C32.1375 17 27.5355 18.95 23.7135 22.7135Z" fill="#84D752"/>
</svg>
