<svg width="74" height="74" viewBox="0 0 74 74" fill="none" xmlns="http://www.w3.org/2000/svg">
<circle cx="37" cy="37" r="34.5333" stroke="#5F8FDE" stroke-width="4.93333"/>
<path d="M18 48.2793C22.218 46.3724 26.436 44.4655 30.673 44.4655C34.891 44.4655 39.109 48.2793 43.327 48.2793C47.564 48.2793 51.782 44.4655 56 44.4655V50.1862C51.782 50.1862 47.564 54 43.327 54C39.109 54 34.891 50.1862 30.673 50.1862C26.436 50.1862 22.218 52.0931 18 54V48.2793ZM30.673 38.7448C29.191 38.7448 27.728 38.9736 26.265 39.355L35.613 32.7953L33.637 30.4307C33.371 30.1066 33.2 29.668 33.2 29.2103C33.2 28.562 33.523 27.9708 34.036 27.6276L44.904 20L47.089 23.1082L37.893 29.5726L47.83 41.4526C46.329 42.0819 44.828 42.5586 43.327 42.5586C39.109 42.5586 34.891 38.7448 30.673 38.7448ZM48.4 27.3034C49.4078 27.3034 50.3744 27.7052 51.087 28.4205C51.7996 29.1357 52.2 30.1057 52.2 31.1172C52.2 32.1287 51.7996 33.0988 51.087 33.814C50.3744 34.5292 49.4078 34.931 48.4 34.931C47.3922 34.931 46.4256 34.5292 45.713 33.814C45.0004 33.0988 44.6 32.1287 44.6 31.1172C44.6 30.1057 45.0004 29.1357 45.713 28.4205C46.4256 27.7052 47.3922 27.3034 48.4 27.3034Z" fill="#5F8FDE"/>
</svg>
