<svg width="74" height="74" viewBox="0 0 74 74" fill="none" xmlns="http://www.w3.org/2000/svg">
<circle cx="37" cy="37" r="34.5333" stroke="#F0CA77" stroke-width="4.93333"/>
<path d="M51.228 22.5575C47.913 19.34 43.9935 17.4875 39.45 17V24.059L57 34.16C56.454 29.675 54.5235 25.775 51.228 22.5575ZM37.5 56C44.208 56 49.512 53.309 53.4315 47.927L47.367 44.3L29.8365 54.44C32.274 55.4735 34.848 56 37.5 56ZM39.45 35.3495L55.3425 44.4365C56.2005 42.6035 56.766 40.673 57 38.6645L39.45 28.5635V35.3495ZM21.666 47.8295C22.953 49.604 24.357 51.047 25.8975 52.1L43.428 42.155L37.5 38.7425L21.666 47.8295ZM35.628 17C33.6 17.1755 31.65 17.702 29.7 18.56V38.7425L35.628 35.3495V17ZM18 36.5C18 39.2105 18.585 41.9015 19.7355 44.534L25.8 40.946V20.9C20.5935 24.8 18 29.9675 18 36.5Z" fill="#F0CA77"/>
</svg>
