<svg width="74" height="74" viewBox="0 0 74 74" fill="none" xmlns="http://www.w3.org/2000/svg">
<circle cx="37" cy="37" r="34.5333" stroke="#E3EAF8" stroke-width="4.93333"/>
<path d="M57.7325 54.7205C57.5062 54.3719 57.2181 54.1463 56.8272 54.0848C56.5977 54.0202 56.3558 54.0126 56.1227 54.0627C55.8895 54.1127 55.6722 54.2189 55.4898 54.3719C54.7696 54.9871 53.9672 55.4587 53.0207 55.7253C52.0948 56.0124 51.1277 56.0124 50.0989 55.8073L47.7944 55.2332L45.6546 42.6013L38.9469 37.1262L42.5682 31.2819C43.7616 33.148 45.3459 34.6449 47.3623 35.7933C49.3788 36.9416 51.5804 37.5568 53.9466 37.5568V33.3941C52.0125 33.3941 50.3047 32.8814 48.8026 31.8561C47.3006 30.8308 46.1895 29.4979 45.49 27.8369L44.3377 25.3556C44.132 24.966 43.7616 24.5149 43.2266 24.0022C42.6711 23.4896 41.9304 23.2025 40.9633 23.2025H29.338L24.1323 31.405L27.6919 33.5786L31.5396 27.3037H36.3955L31.2515 35.4037C30.6137 36.3675 30.4285 37.4133 30.6754 38.5821L32.4038 45.6568L25.2023 50.4552L24.2352 50.2502C23.2859 50.0725 22.3954 49.664 21.6427 49.0608C20.8814 48.4456 20.3052 47.7279 19.9349 46.9076C19.7291 46.395 19.3793 46.1079 18.9061 46.0464C18.4123 45.9234 18.0008 45.9849 17.651 46.2309C17.3012 46.477 17.0954 46.7846 17.0337 47.1947C16.972 47.5023 16.9926 47.8099 17.116 48.1585C17.7127 49.4299 18.5563 50.5372 19.6674 51.46C20.7991 52.3828 22.0953 52.9365 23.5768 53.2236L49.5228 58.7807C51.0042 59.0883 52.424 59.0883 53.8025 58.6782C55.1811 58.3091 56.4157 57.6324 57.5062 56.6686C57.7531 56.484 57.9177 56.238 58 55.9099C58 55.4587 58 55.0691 57.7325 54.7205ZM30.7783 51.6856L37.0333 47.5844L36.0663 40.7763L41.9304 44.898L43.4735 54.3719L30.7783 51.6856ZM49.7697 19.1012C49.7697 21.3774 47.9385 23.2025 45.6546 23.2025C43.3707 23.2025 41.5394 21.3774 41.5394 19.1012C41.5394 16.8251 43.3912 15 45.6546 15C47.9179 15 49.7697 16.8456 49.7697 19.1012Z" fill="#E3EAF8"/>
</svg>
