<svg width="74" height="74" viewBox="0 0 74 74" fill="none" xmlns="http://www.w3.org/2000/svg">
<circle cx="37" cy="37" r="34.5333" stroke="#3BD7CF" stroke-width="4.93333"/>
<path d="M20.62 18.3365C20.62 16.6682 22.09 15 23.98 15C25.87 15 27.34 16.4597 27.34 18.3365C27.34 20.2133 25.66 21.4645 23.98 21.4645C22.3 21.4645 20.62 20.0047 20.62 18.3365ZM58 19.1706L56.95 17.2938L40.15 25.8436L41.2 27.7204L58 19.1706ZM55.48 53.3697L57.37 55.2464C56.11 56.4976 54.85 57.3318 53.38 57.9573C51.91 58.5829 50.23 59 48.55 59H16V56.2891H21.67L26.08 48.9905L21.25 42.3175L19.57 26.0521C19.57 24.1754 21.25 22.5071 23.14 22.5071C23.77 22.5071 24.4 22.7156 24.82 22.9242L32.17 28.346L37 26.6777L38.68 30.0142L31.33 33.1422C31.12 32.9337 27.97 30.6398 25.66 28.763L26.5 36.0616L37.63 45.4455L41.2 56.2891H48.55C49.81 56.2891 51.07 56.0806 52.33 55.455C53.59 55.0379 54.64 54.2038 55.48 53.3697ZM26.5 56.2891H37L33.64 48.1564L28.81 44.1943L31.33 49.4076L26.5 56.2891Z" fill="#3BD7CF"/>
</svg>
