<svg width="74" height="74" viewBox="0 0 74 74" fill="none" xmlns="http://www.w3.org/2000/svg">
<circle cx="37" cy="37" r="34.5333" stroke="#E95555" stroke-width="4.93333"/>
<path d="M51.7 45.5V24.25H58V45.5H51.7ZM37 20H26.5C26.5 20 16 20 16 28.5V41.25C16 45.0112 18.1 47.115 20.347 48.2837C20.6858 46.3165 21.6988 44.533 23.2082 43.2467C24.7175 41.9603 26.6266 41.2533 28.6 41.25H34.9V45.5H28.6C27.4861 45.5 26.4178 45.9478 25.6302 46.7448C24.8425 47.5418 24.4 48.6228 24.4 49.75C24.4 50.8772 24.8425 51.9582 25.6302 52.7552C26.4178 53.5522 27.4861 54 28.6 54H39.1C47.5 54 47.5 45.5 47.5 45.5V24.25C47.5 24.25 45.4 20 37 20Z" fill="#E95555"/>
</svg>
