<svg width="74" height="74" viewBox="0 0 74 74" fill="none" xmlns="http://www.w3.org/2000/svg">
<circle cx="37" cy="37" r="34.5333" stroke="#D6873F" stroke-width="4.93333"/>
<path d="M27.4727 26.7324C27.8119 27.1771 28.0975 27.6395 28.3296 28.1197C28.3117 28.1909 28.3117 28.2798 28.3474 28.351C27.8655 28.9912 27.7226 29.845 28.0797 30.6453L30.2754 35.572C30.5789 36.2301 31.168 36.7103 31.882 36.8704C32.0427 36.906 32.2034 36.9237 32.364 36.9237C32.9174 36.9237 33.453 36.7281 33.8814 36.3368L37.8266 32.8152L39.3975 38.5956L38.5406 46.2258L31.4357 53.6069C30.4361 54.6385 30.4718 56.2748 31.5072 57.2708C32.007 57.751 32.6675 58 33.3102 58C33.9885 58 34.6847 57.7332 35.1846 57.1996L42.8964 49.196C43.2891 48.7869 43.539 48.2533 43.6104 47.6842L44.3781 40.89L48.7874 45.123V53.927C48.7874 55.3499 49.9477 56.5238 51.3937 56.5238C52.8218 56.5238 54 55.3677 54 53.927V44.0381C54 43.3444 53.7144 42.6686 53.1967 42.1706L46.9665 36.159C46.913 36.1056 46.8594 36.07 46.8059 36.0345L44.2352 28.5466C44.271 28.5288 44.3067 28.511 44.3245 28.4932L50.0905 24.1357C51.0902 23.3887 51.3044 21.9658 50.5368 20.952C49.7871 19.956 48.3589 19.7426 47.3414 20.5074L41.7717 24.6693L36.4699 27.9419V27.9597C36.3628 28.0308 36.2378 28.102 36.1307 28.1909L33.1138 30.8588L32.1855 28.7778C31.7392 27.764 30.6324 27.2482 29.5792 27.4972L29.5613 27.4794C29.4899 27.3905 29.3828 27.3549 29.2757 27.3549C29.0258 27.1415 28.5617 26.6969 28.0797 26.0921C27.8119 25.7364 27.5798 25.3807 27.3835 25.025C27.3478 24.9183 26.9729 23.9223 26.598 21.8591C26.4373 20.952 26.2767 20.2406 26.0803 19.6537C26.0982 19.6003 26.0803 19.5469 26.0625 19.4936C26.0446 19.4758 26.0446 19.4758 26.0268 19.458C25.759 18.6932 25.4198 18.1063 24.92 17.4838C24.313 16.6834 23.4026 16.1498 22.51 16.0253C21.7067 15.9186 20.9391 16.1498 20.225 16.7012C19.5467 17.217 19.1361 17.9284 19.029 18.7466C18.904 19.6714 19.1896 20.703 19.7609 21.45C20.6713 22.6239 21.5282 23.2286 23.5811 24.1891C25.5983 25.1139 26.4552 25.7542 26.4552 25.7542C26.5623 25.7542 26.9907 26.0921 27.4727 26.7324Z" fill="#D6873F"/>
<path d="M33 20.5C33 21.6935 33.4741 22.8381 34.318 23.682C35.1619 24.5259 36.3065 25 37.5 25C38.6935 25 39.8381 24.5259 40.682 23.682C41.5259 22.8381 42 21.6935 42 20.5C42 19.3065 41.5259 18.1619 40.682 17.318C39.8381 16.4741 38.6935 16 37.5 16C36.3065 16 35.1619 16.4741 34.318 17.318C33.4741 18.1619 33 19.3065 33 20.5Z" fill="#D6873F"/>
</svg>
