<svg width="74" height="74" viewBox="0 0 74 74" fill="none" xmlns="http://www.w3.org/2000/svg">
<circle cx="37" cy="37" r="34.5333" stroke="#B9E049" stroke-width="4.93333"/>
<path d="M49.2734 42.7104C51.3226 42.7104 53.2879 43.5158 54.7369 44.9495C56.1859 46.3832 57 48.3277 57 50.3552C57 52.3827 56.1859 54.3272 54.7369 55.7609C53.2879 57.1946 51.3226 58 49.2734 58C47.2242 58 45.2589 57.1946 43.8099 55.7609C42.3609 54.3272 41.5468 52.3827 41.5468 50.3552C41.5468 48.3277 42.3609 46.3832 43.8099 44.9495C45.2589 43.5158 47.2242 42.7104 49.2734 42.7104ZM49.2734 46.5328C48.2488 46.5328 47.2661 46.9355 46.5416 47.6524C45.8171 48.3692 45.4101 49.3414 45.4101 50.3552C45.4101 51.369 45.8171 52.3412 46.5416 53.058C47.2661 53.7749 48.2488 54.1776 49.2734 54.1776C50.298 54.1776 51.2807 53.7749 52.0052 53.058C52.7297 52.3412 53.1367 51.369 53.1367 50.3552C53.1367 49.3414 52.7297 48.3692 52.0052 47.6524C51.2807 46.9355 50.298 46.5328 49.2734 46.5328ZM26.1902 41.8313C26.1902 41.8313 28.9138 39.1174 28.9331 33.7278C28.2377 29.5422 29.899 24.6305 33.7043 20.8845C39.364 15.2847 47.6122 14.3673 52.1709 18.8204C56.6716 23.3308 55.7444 31.4917 50.0847 37.0915C46.2987 40.8565 41.3343 42.5002 37.104 41.8121C31.6568 41.8313 28.9138 44.526 28.9138 44.526L20.7236 52.6295L18 49.9347L26.1902 41.8313ZM49.4086 21.5534C46.3759 18.572 40.581 19.4702 36.4279 23.5984C32.2942 27.6884 31.367 33.4411 34.3804 36.4226C37.4131 39.404 43.208 38.4867 47.3418 34.3967C51.5141 30.2876 52.422 24.554 49.4086 21.5534Z" fill="#B9E049"/>
</svg>
