<svg width="74" height="74" viewBox="0 0 74 74" fill="none" xmlns="http://www.w3.org/2000/svg">
<circle cx="37" cy="37" r="34.5333" stroke="#3A97DA" stroke-width="4.93333"/>
<path d="M49.4311 42.5C52.5497 42.5 55 44.92 55 48C55 51.08 52.5497 53.5 49.4311 53.5C46.3126 53.5 43.8623 51.08 43.8623 48C43.8623 44.92 46.3126 42.5 49.4311 42.5ZM27.9102 43.6C27.9102 43.6 30.1377 45.8 30.1377 48V55.7C30.1377 57.46 31.697 59 33.4791 59C35.2611 59 36.8204 57.46 36.8204 55.7V48C36.8204 45.8 39.0479 43.6 39.0479 43.6H27.9102ZM30.1377 41.4H36.8204C36.8204 41.4 47.9581 41.4 47.9581 30.4C47.9581 19.4 39.0479 15 33.4791 15C27.9102 15 19 19.4 19 30.4C19 41.4 30.1377 41.4 30.1377 41.4Z" fill="#3A97DA"/>
</svg>
