<svg width="74" height="74" viewBox="0 0 74 74" fill="none" xmlns="http://www.w3.org/2000/svg">
<circle cx="37" cy="37" r="34.5333" stroke="#376896" stroke-width="4.93333"/>
<path d="M51 23.8C50.9974 25.747 50.3385 27.6379 49.127 29.1752C47.9155 30.7125 46.2202 31.8089 44.3077 32.292V48C44.3077 50.9174 43.1326 53.7153 41.0408 55.7782C38.9491 57.8411 36.112 59 33.1538 59C30.1957 59 27.3586 57.8411 25.2669 55.7782C23.1751 53.7153 22 50.9174 22 48V37L33.1538 48H26.4615C26.4615 49.7504 27.1666 51.4292 28.4217 52.6669C29.6767 53.9046 31.3789 54.6 33.1538 54.6C34.9288 54.6 36.631 53.9046 37.886 52.6669C39.1411 51.4292 39.8462 49.7504 39.8462 48V32.292C35.8977 31.28 33.1538 27.76 33.1538 23.734C33.1538 18.872 37.1692 15 42.0769 15C47.0292 15 51 18.938 51 23.8ZM42.0769 28.2C43.2602 28.2 44.395 27.7364 45.2317 26.9113C46.0684 26.0861 46.5385 24.967 46.5385 23.8C46.5385 22.633 46.0684 21.5139 45.2317 20.6887C44.395 19.8636 43.2602 19.4 42.0769 19.4C40.8936 19.4 39.7588 19.8636 38.9221 20.6887C38.0854 21.5139 37.6154 22.633 37.6154 23.8C37.6154 24.967 38.0854 26.0861 38.9221 26.9113C39.7588 27.7364 40.8936 28.2 42.0769 28.2Z" fill="#376896"/>
</svg>
