<svg width="74" height="74" viewBox="0 0 74 74" fill="none" xmlns="http://www.w3.org/2000/svg">
<circle cx="37" cy="37" r="34.5333" stroke="#6EBF2E" stroke-width="4.93333"/>
<path d="M48.9023 30.34H52V59H48.9023V38.2C47.2826 37.88 45.7641 37.28 44.3266 36.42C42.8891 35.56 41.6743 34.56 40.6418 33.4L39.3865 39.54L43.9014 43.94V59H39.8522V47L35.317 42.6L31.5309 59H27.1577C27.1577 59 33.4948 27.44 33.5555 27.18C33.7782 26.22 34.2237 25.48 34.9728 25C35.7219 24.46 36.471 24.2 37.2404 24.2C38.03 24.2 38.7589 24.38 39.427 24.74C40.1154 25.08 40.6418 25.58 41.0265 26.22L43.1726 29.48C43.7597 30.56 44.5493 31.5 45.5414 32.26C46.5335 33.02 47.6673 33.6 48.9023 34V30.34ZM30.8425 24.78L28.5142 24.3C27.3601 24 26.3073 24.24 25.3557 24.88C24.4244 25.52 23.8575 26.4 23.6551 27.56L22.0151 35.52C21.9544 36.1 22.0758 36.62 22.3998 37.1C22.7237 37.58 23.1489 37.84 23.6551 37.92L28.1295 38.78L30.8425 24.78ZM39.8522 15C37.6251 15 35.8029 16.8 35.8029 19C35.8029 21.2 37.6251 23 39.8522 23C42.0793 23 43.9014 21.22 43.9014 19C43.9014 16.78 42.0995 15 39.8522 15Z" fill="#6EBF2E"/>
</svg>
