<svg width="74" height="74" viewBox="0 0 74 74" fill="none" xmlns="http://www.w3.org/2000/svg">
<circle cx="37" cy="37" r="34.5333" stroke="#BC6F36" stroke-width="4.93333"/>
<path d="M37.2398 44.3954C36.8256 44.5483 36.3621 44.637 35.8887 44.637C35.3807 44.637 34.8777 44.5779 34.4142 44.4447L29.1772 56.4819C28.6989 57.5915 27.3822 57.9662 26.2332 57.3202C25.0892 56.6742 24.5468 55.259 25.0399 54.1494L31.4604 39.4247H39.6463V38.0489L43.7885 36.1208C44.8734 35.5931 46.2837 36.4955 46.5698 37.6445L48.6014 45.791C48.8924 46.9449 48.1872 48.1136 47.0333 48.3996C45.8744 48.6905 44.7008 47.9854 44.4148 46.8315L43.1228 41.6388L37.2398 44.3954Z" fill="#BC6F36"/>
<path d="M41.0117 35.9578C49.9817 31.5099 53.4582 16.2723 53.4582 15H52.2254C51.7619 18.1757 47.9105 30.8934 41.0117 34.582V35.9578Z" fill="#BC6F36"/>
<path d="M24.4628 32.6244C24.9313 33.3592 25.8781 33.6847 26.7164 33.3395L31.4603 31.4804V38.0587H39.6462V30.4399L46.9839 18.6986C47.5214 17.8405 47.2748 16.7063 46.4069 16.154C45.5489 15.6165 44.4147 15.868 43.9314 16.7063L37.6983 26.6823L33.9456 26.6921C33.704 26.6921 33.4624 26.7316 33.2208 26.8253L26.7361 29.3698L23.3928 24.3054C22.8454 23.4572 21.7063 23.2057 20.8482 23.7531C19.9902 24.3054 19.7436 25.4495 20.291 26.3075L24.4628 32.6244Z" fill="#BC6F36"/>
<path d="M34.9911 26.0167C36.7959 26.0167 38.2605 24.562 38.2605 22.7621C38.2605 20.9621 36.7959 19.4976 34.9911 19.4976C33.1911 19.4976 31.7266 20.9621 31.7266 22.7621C31.7266 24.562 33.1911 26.0167 34.9911 26.0167Z" fill="#BC6F36"/>
<path d="M39.6458 59.3223V45.2779L38.27 45.2781V59.3223H39.6458Z" fill="#BC6F36"/>
</svg>
