<svg width="74" height="74" viewBox="0 0 74 74" fill="none" xmlns="http://www.w3.org/2000/svg">
<circle cx="37" cy="37" r="34.5333" stroke="#82D4EE" stroke-width="4.93333"/>
<path d="M19.006 39.9881L35.0542 17.059V39.9881H19.006ZM38.0632 39.9881C40.7713 32.4917 40.4102 22.4165 38.0632 15C47.6118 18.0785 54.9137 29.793 55.0341 39.9881H38.0632ZM55.3149 47.1447C54.4925 48.4241 53.5296 49.5236 52.4062 50.4631C51.1023 49.8834 49.9388 48.9838 49.016 47.9843C46.0271 51.8425 39.989 51.8425 37 47.9843C34.0512 51.8425 27.9729 51.8425 25.0241 47.9843C24.0211 48.9838 22.9178 49.8834 21.6138 50.4631C19.327 48.584 17.6018 45.9053 17 42.9867H57C56.6879 44.4606 56.1175 45.8682 55.3149 47.1447ZM55.0341 58.9791C52.9077 58.9791 50.9017 58.4793 49.016 57.4798C45.325 59.4788 40.6911 59.4788 37 57.4798C33.3089 59.4788 28.675 59.4788 25.0241 57.4798C22.5567 58.8591 19.7282 59.079 17 58.9791V54.981C19.8285 55.0809 22.5567 54.7811 25.0241 52.9819C28.5145 55.4807 33.4694 55.4807 37 52.9819C40.5507 55.4807 45.4855 55.4807 49.016 52.9819C51.4433 54.7811 54.1916 55.0809 57 54.981V58.9791H55.0341Z" fill="#82D4EE"/>
</svg>
