<svg width="81" height="98" viewBox="0 0 81 98" fill="none" xmlns="http://www.w3.org/2000/svg">
<path fill-rule="evenodd" clip-rule="evenodd" d="M40.3665 0.768311C50.9714 0.779747 61.1386 4.78698 68.6374 11.9109C76.1363 19.0348 80.3544 28.6936 80.3665 38.7683C80.3665 71.2842 44.0028 95.8417 42.4528 96.8695C41.8414 97.2763 41.113 97.4946 40.3664 97.4946L40.3665 0.768311Z" fill="#83D154"/>
<path fill-rule="evenodd" clip-rule="evenodd" d="M40.3664 0.768311C29.7615 0.779747 19.5943 4.78698 12.0955 11.9109C4.59662 19.0348 0.378486 28.6936 0.366455 38.7683C0.366455 71.2842 36.7301 95.8417 38.2801 96.8695C38.8915 97.2763 39.6199 97.4946 40.3665 97.4946L40.3664 0.768311Z" fill="#94E363"/>
<path d="M48.5143 49.9348L47.1921 47.6871L49.6051 40.4647L51.9354 39.688L53.5881 40.9275V41.1589C53.5881 41.2746 53.6377 41.3737 53.6377 41.4729C53.6377 44.7287 52.5469 47.6045 50.3819 50.0835L48.5143 49.9348ZM36.6479 46.431L34.3836 39.7706L40.3665 35.5727L46.3493 39.7706L44.0851 46.431H36.6479ZM40.3665 54.7442C38.9121 54.7442 37.5403 54.5128 36.2347 54.05L35.0943 51.5544L36.1851 49.7365H44.6304L45.6386 51.5544L44.4982 54.05C43.1926 54.5128 41.8208 54.7442 40.3665 54.7442ZM30.351 50.0835C29.4751 49.0588 28.7148 47.6871 28.0703 46.0179C27.4257 44.3321 27.0952 42.8116 27.0952 41.4729C27.0952 41.3737 27.1448 41.2746 27.1448 41.1589V40.9275L28.7975 39.688L31.1278 40.4647L33.5408 47.6871L32.2186 49.9348L30.351 50.0835ZM38.7137 30.3832V32.697L32.1029 37.275L29.8883 36.5809L29.1941 34.3332C29.9213 33.2094 30.9956 32.0855 32.4169 30.9947C33.8383 29.9039 35.1935 29.1933 36.4826 28.8297L38.7137 30.3832ZM44.2503 28.8297C45.5394 29.1933 46.8947 29.9039 48.316 30.9947C49.7373 32.0855 50.8116 33.2094 51.5388 34.3332L50.8446 36.5809L48.63 37.2915L42.0192 32.7135V30.3832L44.2503 28.8297ZM28.6818 29.7882C25.4921 33.0276 23.8394 36.9279 23.8394 41.4729C23.8394 46.0179 25.4921 49.9182 28.6818 53.1576C31.8715 56.3969 35.8215 58 40.3665 58C44.9114 58 48.8118 56.3473 52.0511 53.1576C55.2904 49.9678 56.8936 46.0179 56.8936 41.4729C56.8936 36.9279 55.2408 33.0276 52.0511 29.7882C48.8614 26.5489 44.9114 24.9458 40.3665 24.9458C35.8215 24.9458 31.9211 26.5985 28.6818 29.7882Z" fill="white"/>
</svg>
