<svg width="81" height="98" viewBox="0 0 81 98" fill="none" xmlns="http://www.w3.org/2000/svg">
<path fill-rule="evenodd" clip-rule="evenodd" d="M40.5 0.315674C51.105 0.327111 61.2721 4.33434 68.771 11.4582C76.2698 18.5821 80.488 28.241 80.5 38.3157C80.5 70.8316 44.1364 95.3891 42.5864 96.4168C41.9749 96.8237 41.2465 97.042 40.5 97.042L40.5 0.315674Z" fill="#E2642E"/>
<path fill-rule="evenodd" clip-rule="evenodd" d="M40.5 0.315674C29.895 0.327111 19.7279 4.33434 12.229 11.4582C4.73017 18.5821 0.512031 28.241 0.5 38.3157C0.5 70.8316 36.8636 95.3891 38.4136 96.4168C39.0251 96.8237 39.7535 97.042 40.5 97.042L40.5 0.315674Z" fill="#F16F37"/>
<path d="M24.561 45.3596C25.551 44.9966 26.574 44.8151 27.663 44.8151C29.874 44.8151 31.8045 45.5081 33.4545 46.8941L28.2735 52.0751C26.5546 50.1387 25.2867 47.8451 24.561 45.3596ZM46.374 37.3901C49.6245 39.8156 53.139 40.4096 56.901 39.1721C56.9505 39.5186 57 40.1456 57 41.0201C57 42.7196 56.5875 44.6171 55.812 46.7126C55.0365 48.7916 54.0795 50.4746 52.9575 51.7451L42.513 41.3336L46.374 37.3901ZM35.1705 48.6761C36.9195 51.2006 37.2825 53.9561 36.243 56.9591C33.9 56.2826 31.8045 55.2266 30.0555 53.7746L35.1705 48.6761ZM40.8135 43.0331L51.225 53.4776C47.6445 56.6126 43.437 57.9326 38.652 57.4211C38.9985 56.3321 39.18 55.1441 39.18 53.8571C39.18 52.8341 38.949 51.6296 38.487 50.2601C38.025 48.8906 37.4805 47.7686 36.87 46.8941L40.8135 43.0331ZM35.2365 45.1451C33.7329 43.8004 31.8897 42.8931 29.907 42.5216C27.894 42.1421 25.9635 42.2576 24.099 42.8846C24.0495 42.5216 24 41.8946 24 41.0201C24 39.3206 24.4125 37.4231 25.188 35.3276C25.9635 33.2486 26.9205 31.5656 28.0425 30.2951L39.0315 41.3336L35.2365 45.1451ZM46.374 33.9746C44.163 31.2521 43.6515 28.2821 44.8395 25.0811C45.8625 25.3451 47.034 25.8401 48.354 26.5991C49.6575 27.3416 50.73 28.0841 51.555 28.7936L46.374 33.9746ZM56.439 36.6971C55.449 37.0436 54.426 37.2251 53.337 37.2251C51.5385 37.2251 49.806 36.6971 48.156 35.6081L53.2545 30.5756C54.7065 32.3906 55.7625 34.4201 56.439 36.6971ZM40.8135 39.5516L29.775 28.5626C33.3555 25.4276 37.563 24.1076 42.3645 24.6191C42.0015 25.7081 41.82 26.8961 41.82 28.1831C41.82 29.3711 42.084 30.7076 42.6285 32.2091C43.173 33.6941 43.8 34.8821 44.625 35.7566L40.8135 39.5516Z" fill="white"/>
</svg>
