<svg width="81" height="98" viewBox="0 0 81 98" fill="none" xmlns="http://www.w3.org/2000/svg">
<path fill-rule="evenodd" clip-rule="evenodd" d="M40.7139 0.315735C51.3188 0.327164 61.486 4.33439 68.9849 11.4583C76.4837 18.5822 80.7018 28.241 80.7139 38.3157C80.7139 70.8316 44.3502 95.3891 42.8002 96.4169C42.1888 96.8238 41.4604 97.042 40.7139 97.042V0.315735Z" fill="#58C525"/>
<path fill-rule="evenodd" clip-rule="evenodd" d="M40.7139 0.315735C30.1089 0.327164 19.9417 4.33439 12.4429 11.4583C4.94403 18.5822 0.725898 28.241 0.713867 38.3157C0.713867 70.8316 37.0775 95.3891 38.6275 96.4169C39.2389 96.8238 39.9674 97.042 40.7139 97.042V0.315735Z" fill="#6CDA29"/>
<path d="M45.2209 29.0901C46.1584 29.0901 47.0575 28.7177 47.7204 28.0548C48.3833 27.3918 48.7558 26.4927 48.7558 25.5552C48.7558 24.6177 48.3833 23.7186 47.7204 23.0557C47.0575 22.3927 46.1584 22.0203 45.2209 22.0203C44.2834 22.0203 43.3842 22.3927 42.7213 23.0557C42.0584 23.7186 41.686 24.6177 41.686 25.5552C41.686 26.4927 42.0584 27.3918 42.7213 28.0548C43.3842 28.7177 44.2834 29.0901 45.2209 29.0901ZM38.8581 53.6576L40.6255 45.8808L44.3371 49.4157V60.0204H47.872V46.7645L44.1604 43.2296L45.2209 37.9273C46.4318 39.3152 47.9259 40.4276 49.6026 41.1898C51.2794 41.9519 53.0999 42.3462 54.9418 42.3459V38.811C51.8311 38.8641 48.9325 37.238 47.3418 34.5692L45.5744 31.7413C44.9381 30.6808 43.8069 29.9738 42.5697 29.9738C42.0395 29.9738 41.686 30.1506 41.1557 30.1506L31.965 34.0389V42.3459H35.4999V36.3366L38.6813 35.0994L35.8534 49.4157L27.1929 47.6483L26.486 51.1831L38.8581 53.6576Z" fill="white"/>
</svg>
