<svg width="123" height="139" viewBox="0 0 123 139" fill="none" xmlns="http://www.w3.org/2000/svg">
<g filter="url(#filter0_d_1289_1057)">
<path fill-rule="evenodd" clip-rule="evenodd" d="M61.6846 12.3157C72.2895 12.3272 82.4567 16.3344 89.9556 23.4583C97.4544 30.5822 101.673 40.241 101.685 50.3157C101.685 82.8316 65.3209 107.389 63.7709 108.417C63.1595 108.824 62.4311 109.042 61.6846 109.042V12.3157Z" fill="#60CF2C"/>
<path fill-rule="evenodd" clip-rule="evenodd" d="M61.6846 12.3157C51.0796 12.3272 40.9124 16.3344 33.4136 23.4583C25.9147 30.5822 21.6966 40.241 21.6846 50.3157C21.6846 82.8316 58.0482 107.389 59.5982 108.417C60.2096 108.824 60.9381 109.042 61.6846 109.042V12.3157Z" fill="#6CDA29"/>
<path d="M66.1916 41.0901C67.1291 41.0901 68.0282 40.7177 68.6911 40.0548C69.354 39.3918 69.7265 38.4927 69.7265 37.5552C69.7265 36.6177 69.354 35.7186 68.6911 35.0557C68.0282 34.3927 67.1291 34.0203 66.1916 34.0203C65.2541 34.0203 64.3549 34.3927 63.692 35.0557C63.0291 35.7186 62.6567 36.6177 62.6567 37.5552C62.6567 38.4927 63.0291 39.3918 63.692 40.0548C64.3549 40.7177 65.2541 41.0901 66.1916 41.0901ZM59.8288 65.6576L61.5962 57.8808L65.3078 61.4157V72.0204H68.8427V58.7645L65.1311 55.2296L66.1916 49.9273C67.4025 51.3152 68.8966 52.4276 70.5733 53.1898C72.2501 53.9519 74.0707 54.3462 75.9125 54.3459V50.811C72.8018 50.8641 69.9032 49.238 68.3125 46.5692L66.5451 43.7413C65.9088 42.6808 64.7776 41.9738 63.5404 41.9738C63.0102 41.9738 62.6567 42.1506 62.1264 42.1506L52.9357 46.0389V54.3459H56.4706V48.3366L59.652 47.0994L56.8241 61.4157L48.1636 59.6483L47.4567 63.1831L59.8288 65.6576Z" fill="white"/>
</g>
<defs>
<filter id="filter0_d_1289_1057" x="0.784571" y="0.415735" width="121.8" height="138.526" filterUnits="userSpaceOnUse" color-interpolation-filters="sRGB">
<feFlood flood-opacity="0" result="BackgroundImageFix"/>
<feColorMatrix in="SourceAlpha" type="matrix" values="0 0 0 0 0 0 0 0 0 0 0 0 0 0 0 0 0 0 127 0" result="hardAlpha"/>
<feOffset dy="9"/>
<feGaussianBlur stdDeviation="10.45"/>
<feComposite in2="hardAlpha" operator="out"/>
<feColorMatrix type="matrix" values="0 0 0 0 0 0 0 0 0 0 0 0 0 0 0 0 0 0 0.25 0"/>
<feBlend mode="normal" in2="BackgroundImageFix" result="effect1_dropShadow_1289_1057"/>
<feBlend mode="normal" in="SourceGraphic" in2="effect1_dropShadow_1289_1057" result="shape"/>
</filter>
</defs>
</svg>
