<svg width="81" height="98" viewBox="0 0 81 98" fill="none" xmlns="http://www.w3.org/2000/svg">
<path fill-rule="evenodd" clip-rule="evenodd" d="M40.7139 0.315918C51.3188 0.327355 61.486 4.33458 68.9849 11.4585C76.4837 18.5824 80.7018 28.2412 80.7139 38.3159C80.7139 70.8318 44.3502 95.3893 42.8002 96.4171C42.1888 96.8239 41.4604 97.0422 40.7139 97.0422L40.7139 0.315918Z" fill="#CBCBCB"/>
<path fill-rule="evenodd" clip-rule="evenodd" d="M40.7138 0.315918C30.1089 0.327355 19.9417 4.33458 12.4429 11.4585C4.94403 18.5824 0.725898 28.2412 0.713867 38.3159C0.713867 70.8318 37.0775 95.3893 38.6275 96.4171C39.2389 96.8239 39.9674 97.0422 40.7139 97.0422L40.7138 0.315918Z" fill="#E3E3E3"/>
<path d="M40.7139 22.0205C43.209 22.0205 45.6797 22.512 47.9849 23.4668C50.2901 24.4216 52.3847 25.8212 54.149 27.5855C55.9133 29.3498 57.3128 31.4444 58.2677 33.7495C59.2225 36.0547 59.714 38.5254 59.714 41.0206C59.714 46.0597 57.7122 50.8924 54.149 54.4556C50.5858 58.0188 45.753 60.0206 40.7139 60.0206C38.2188 60.0206 35.7481 59.5291 33.4429 58.5743C31.1377 57.6195 29.0432 56.2199 27.2789 54.4556C23.7157 50.8924 21.7139 46.0597 21.7139 41.0206C21.7139 35.9814 23.7157 31.1487 27.2789 27.5855C30.842 24.0223 35.6748 22.0205 40.7139 22.0205ZM41.6639 39.1205C40.908 39.1205 40.1831 39.4208 39.6487 39.9553C39.1142 40.4898 38.8139 41.2147 38.8139 41.9706C38.8139 42.7264 39.1142 43.4513 39.6487 43.9858C40.1831 44.5203 40.908 44.8206 41.6639 44.8206C42.4198 44.8206 43.1447 44.5203 43.6792 43.9858C44.2137 43.4513 44.5139 42.7264 44.5139 41.9706C44.5139 41.2147 44.2137 40.4898 43.6792 39.9553C43.1447 39.4208 42.4198 39.1205 41.6639 39.1205ZM40.7139 27.7205C39.7061 27.7205 38.7395 28.1209 38.0269 28.8335C37.3143 29.5462 36.9139 30.5127 36.9139 31.5205C36.9139 32.5284 37.3143 33.4949 38.0269 34.2075C38.7395 34.9202 39.7061 35.3205 40.7139 35.3205C41.7217 35.3205 42.6883 34.9202 43.4009 34.2075C44.1136 33.4949 44.5139 32.5284 44.5139 31.5205C44.5139 30.5127 44.1136 29.5462 43.4009 28.8335C42.6883 28.1209 41.7217 27.7205 40.7139 27.7205ZM29.1809 34.3705C28.1359 36.1755 28.7629 38.4935 30.5679 39.5385C32.3919 40.6025 34.7099 39.9755 35.7739 38.1705C36.8189 36.3275 36.1919 34.0095 34.3679 32.9645C32.5629 31.9195 30.2639 32.5275 29.1809 34.3705Z" fill="white"/>
</svg>
