<svg width="81" height="98" viewBox="0 0 81 98" fill="none" xmlns="http://www.w3.org/2000/svg">
<path fill-rule="evenodd" clip-rule="evenodd" d="M40.7049 0.315918C51.3098 0.327355 61.477 4.33458 68.9758 11.4585C76.4747 18.5824 80.6928 28.2412 80.7048 38.3159C80.7048 70.8318 44.3412 95.3893 42.7912 96.4171C42.1798 96.824 41.4513 97.0422 40.7048 97.0422L40.7049 0.315918Z" fill="#C7DC46"/>
<path fill-rule="evenodd" clip-rule="evenodd" d="M40.7048 0.315918C30.0999 0.327355 19.9327 4.33458 12.4339 11.4585C4.935 18.5824 0.716865 28.2412 0.704834 38.3159C0.704834 70.8318 37.0685 95.3893 38.6185 96.4171C39.2299 96.824 39.9583 97.0422 40.7048 97.0422L40.7048 0.315918Z" fill="#D5EA53"/>
<path d="M40.7049 22.0205C43.2 22.0205 45.6707 22.512 47.9759 23.4668C50.2811 24.4216 52.3756 25.8212 54.1399 27.5855C55.9043 29.3498 57.3038 31.4444 58.2586 33.7495C59.2135 36.0547 59.7049 38.5254 59.7049 41.0205C59.7049 46.0597 57.7031 50.8924 54.1399 54.4556C50.5767 58.0188 45.744 60.0206 40.7049 60.0206C38.2098 60.0206 35.7391 59.5291 33.4339 58.5743C31.1287 57.6195 29.0341 56.2199 27.2698 54.4556C23.7066 50.8924 21.7048 46.0597 21.7048 41.0205C21.7048 35.9814 23.7066 31.1487 27.2698 27.5855C30.833 24.0223 35.6658 22.0205 40.7049 22.0205ZM41.6549 39.1205C40.899 39.1205 40.1741 39.4208 39.6396 39.9553C39.1051 40.4898 38.8049 41.2147 38.8049 41.9706C38.8049 42.7264 39.1051 43.4513 39.6396 43.9858C40.1741 44.5203 40.899 44.8206 41.6549 44.8206C42.4107 44.8206 43.1357 44.5203 43.6701 43.9858C44.2046 43.4513 44.5049 42.7264 44.5049 41.9706C44.5049 41.2147 44.2046 40.4898 43.6701 39.9553C43.1357 39.4208 42.4107 39.1205 41.6549 39.1205ZM40.7049 27.7205C39.6971 27.7205 38.7305 28.1209 38.0179 28.8335C37.3052 29.5462 36.9049 30.5127 36.9049 31.5205C36.9049 32.5284 37.3052 33.4949 38.0179 34.2075C38.7305 34.9202 39.6971 35.3205 40.7049 35.3205C41.7127 35.3205 42.6792 34.9202 43.3919 34.2075C44.1045 33.4949 44.5049 32.5284 44.5049 31.5205C44.5049 30.5127 44.1045 29.5462 43.3919 28.8335C42.6792 28.1209 41.7127 27.7205 40.7049 27.7205ZM29.1719 34.3705C28.1268 36.1755 28.7538 38.4935 30.5589 39.5385C32.3829 40.6025 34.7009 39.9755 35.7649 38.1705C36.8099 36.3275 36.1829 34.0095 34.3589 32.9645C32.5539 31.9195 30.2549 32.5275 29.1719 34.3705Z" fill="white"/>
</svg>
