<svg width="81" height="98" viewBox="0 0 81 98" fill="none" xmlns="http://www.w3.org/2000/svg">
<path fill-rule="evenodd" clip-rule="evenodd" d="M40.7139 0.315918C51.3188 0.327355 61.486 4.33458 68.9849 11.4585C76.4837 18.5824 80.7018 28.2412 80.7139 38.3159C80.7139 70.8318 44.3502 95.3893 42.8002 96.4171C42.1888 96.8239 41.4604 97.0422 40.7139 97.0422L40.7139 0.315918Z" fill="#D75151"/>
<path fill-rule="evenodd" clip-rule="evenodd" d="M40.7138 0.315918C30.1089 0.327355 19.9417 4.33458 12.4429 11.4585C4.94403 18.5824 0.725898 28.2412 0.713867 38.3159C0.713867 70.8318 37.0775 95.3893 38.6275 96.4171C39.2389 96.8239 39.9674 97.0422 40.7139 97.0422L40.7138 0.315918Z" fill="#F45B5B"/>
<path d="M52.0711 47.5101V31.2855H56.9385V47.5101H52.0711ZM40.7138 28.0405H32.6015C32.6015 28.0405 24.4891 28.0405 24.4891 34.5304V44.2652C24.4891 47.137 26.1116 48.7432 27.8476 49.6356C28.1094 48.1336 28.8921 46.7718 30.0582 45.7897C31.2243 44.8075 32.6993 44.2677 34.2239 44.2652H39.0913V47.5101H34.2239C33.3633 47.5101 32.538 47.852 31.9294 48.4605C31.3209 49.0691 30.979 49.8944 30.979 50.7551C30.979 51.6157 31.3209 52.441 31.9294 53.0496C32.538 53.6581 33.3633 54 34.2239 54H42.3363C48.8261 54 48.8261 47.5101 48.8261 47.5101V31.2855C48.8261 31.2855 47.2037 28.0405 40.7138 28.0405Z" fill="white"/>
</svg>
