<svg width="81" height="98" viewBox="0 0 81 98" fill="none" xmlns="http://www.w3.org/2000/svg">
<path fill-rule="evenodd" clip-rule="evenodd" d="M40.214 0.315918C50.819 0.327355 60.9861 4.33458 68.485 11.4585C75.9838 18.5824 80.202 28.2412 80.214 38.3159C80.214 70.8318 43.8503 95.3893 42.3003 96.4171C41.6889 96.8239 40.9605 97.0422 40.214 97.0422L40.214 0.315918Z" fill="#3E9A77"/>
<path fill-rule="evenodd" clip-rule="evenodd" d="M40.214 0.315918C29.609 0.327355 19.4418 4.33458 11.943 11.4585C4.44416 18.5824 0.22602 28.2412 0.213989 38.3159C0.213989 70.8318 36.5776 95.3893 38.1276 96.4171C38.739 96.8239 39.4675 97.0422 40.214 97.0422L40.214 0.315918Z" fill="#4CB68D"/>
<path d="M40.2139 27.2302C38.403 27.2302 36.6098 27.5869 34.9367 28.2799C33.2636 28.973 31.7434 29.9887 30.4629 31.2693C29.1823 32.5498 28.1666 34.07 27.4736 35.7431C26.7805 37.4162 26.4238 39.2094 26.4238 41.0203C26.4238 42.8313 26.7805 44.6245 27.4736 46.2976C28.1666 47.9707 29.1823 49.4909 30.4629 50.7714C31.7434 52.0519 33.2636 53.0677 34.9367 53.7607C36.6098 54.4538 38.403 54.8104 40.2139 54.8104C43.8713 54.8104 47.3789 53.3576 49.965 50.7714C52.5512 48.1853 54.0041 44.6777 54.0041 41.0203C54.0041 37.363 52.5512 33.8554 49.965 31.2693C47.3789 28.6831 43.8713 27.2302 40.2139 27.2302ZM23.3594 41.0203C23.3594 31.712 30.9056 24.1658 40.2139 24.1658C49.5223 24.1658 57.0685 31.712 57.0685 41.0203C57.0685 50.3287 49.5223 57.8749 40.2139 57.8749C30.9056 57.8749 23.3594 50.3287 23.3594 41.0203ZM40.2139 33.3592C38.1821 33.3592 36.2334 34.1663 34.7967 35.6031C33.3599 37.0398 32.5528 38.9885 32.5528 41.0203C32.5528 43.0522 33.3599 45.0009 34.7967 46.4376C36.2334 47.8744 38.1821 48.6815 40.2139 48.6815C42.2458 48.6815 44.1945 47.8744 45.6312 46.4376C47.068 45.0009 47.8751 43.0522 47.8751 41.0203C47.8751 38.9885 47.068 37.0398 45.6312 35.6031C44.1945 34.1663 42.2458 33.3592 40.2139 33.3592ZM29.4883 41.0203C29.4883 39.6118 29.7657 38.2171 30.3048 36.9158C30.8438 35.6145 31.6338 34.4321 32.6298 33.4362C33.6257 32.4402 34.8081 31.6502 36.1094 31.1111C37.4107 30.5721 38.8054 30.2947 40.2139 30.2947C41.6225 30.2947 43.0172 30.5721 44.3185 31.1111C45.6198 31.6502 46.8021 32.4402 47.7981 33.4362C48.7941 34.4321 49.5841 35.6145 50.1231 36.9158C50.6622 38.2171 50.9396 39.6118 50.9396 41.0203C50.9396 43.865 49.8096 46.5931 47.7981 48.6045C45.7867 50.616 43.0586 51.746 40.2139 51.746C37.3693 51.746 34.6412 50.616 32.6298 48.6045C30.6183 46.5931 29.4883 43.865 29.4883 41.0203ZM37.1495 41.0203C37.1495 40.2076 37.4723 39.4281 38.047 38.8534C38.6217 38.2787 39.4012 37.9559 40.2139 37.9559C41.0267 37.9559 41.8062 38.2787 42.3809 38.8534C42.9556 39.4281 43.2784 40.2076 43.2784 41.0203C43.2784 41.8331 42.9556 42.6125 42.3809 43.1872C41.8062 43.7619 41.0267 44.0848 40.2139 44.0848C39.4012 44.0848 38.6217 43.7619 38.047 43.1872C37.4723 42.6125 37.1495 41.8331 37.1495 41.0203Z" fill="white"/>
</svg>
