<svg width="122" height="139" viewBox="0 0 122 139" fill="none" xmlns="http://www.w3.org/2000/svg">
<g filter="url(#filter0_d_1289_913)">
<path fill-rule="evenodd" clip-rule="evenodd" d="M61.0684 12.3159C71.6733 12.3274 81.8405 16.3346 89.3393 23.4585C96.8382 30.5824 101.056 40.2412 101.068 50.3159C101.068 82.8318 64.7047 107.389 63.1547 108.417C62.5433 108.824 61.8149 109.042 61.0684 109.042L61.0684 12.3159Z" fill="#45A982"/>
<path fill-rule="evenodd" clip-rule="evenodd" d="M61.0683 12.3159C50.4634 12.3274 40.2962 16.3346 32.7974 23.4585C25.2985 30.5824 21.0804 40.2412 21.0684 50.3159C21.0684 82.8318 57.432 107.389 58.982 108.417C59.5934 108.824 60.3218 109.042 61.0684 109.042L61.0683 12.3159Z" fill="#4CB68D"/>
<path d="M61.0683 39.2302C59.2574 39.2302 57.4642 39.5869 55.7911 40.2799C54.118 40.973 52.5978 41.9887 51.3172 43.2693C50.0367 44.5498 49.0209 46.07 48.3279 47.7431C47.6349 49.4162 47.2782 51.2094 47.2782 53.0203C47.2782 54.8313 47.6349 56.6245 48.3279 58.2976C49.0209 59.9707 50.0367 61.4909 51.3172 62.7714C52.5978 64.0519 54.118 65.0677 55.7911 65.7607C57.4642 66.4538 59.2574 66.8104 61.0683 66.8104C64.7257 66.8104 68.2332 65.3576 70.8194 62.7714C73.4055 60.1853 74.8584 56.6777 74.8584 53.0203C74.8584 49.363 73.4055 45.8554 70.8194 43.2693C68.2332 40.6831 64.7257 39.2302 61.0683 39.2302ZM44.2137 53.0203C44.2137 43.712 51.76 36.1658 61.0683 36.1658C70.3766 36.1658 77.9229 43.712 77.9229 53.0203C77.9229 62.3287 70.3766 69.8749 61.0683 69.8749C51.76 69.8749 44.2137 62.3287 44.2137 53.0203ZM61.0683 45.3592C59.0364 45.3592 57.0878 46.1663 55.6511 47.6031C54.2143 49.0398 53.4071 50.9885 53.4071 53.0203C53.4071 55.0522 54.2143 57.0009 55.6511 58.4376C57.0878 59.8744 59.0364 60.6815 61.0683 60.6815C63.1002 60.6815 65.0488 59.8744 66.4856 58.4376C67.9223 57.0009 68.7295 55.0522 68.7295 53.0203C68.7295 50.9885 67.9223 49.0398 66.4856 47.6031C65.0488 46.1663 63.1002 45.3592 61.0683 45.3592ZM50.3427 53.0203C50.3427 51.6118 50.6201 50.2171 51.1591 48.9158C51.6981 47.6145 52.4882 46.4321 53.4841 45.4362C54.4801 44.4402 55.6625 43.6502 56.9638 43.1111C58.2651 42.5721 59.6598 42.2947 61.0683 42.2947C62.4768 42.2947 63.8715 42.5721 65.1728 43.1111C66.4741 43.6502 67.6565 44.4402 68.6525 45.4362C69.6485 46.4321 70.4385 47.6145 70.9775 48.9158C71.5165 50.2171 71.794 51.6118 71.794 53.0203C71.794 55.865 70.6639 58.5931 68.6525 60.6045C66.641 62.616 63.9129 63.746 61.0683 63.746C58.2237 63.746 55.4956 62.616 53.4841 60.6045C51.4727 58.5931 50.3427 55.865 50.3427 53.0203ZM58.0038 53.0203C58.0038 52.2076 58.3267 51.4281 58.9014 50.8534C59.4761 50.2787 60.2556 49.9559 61.0683 49.9559C61.8811 49.9559 62.6605 50.2787 63.2352 50.8534C63.8099 51.4281 64.1328 52.2076 64.1328 53.0203C64.1328 53.8331 63.8099 54.6126 63.2352 55.1872C62.6605 55.7619 61.8811 56.0848 61.0683 56.0848C60.2556 56.0848 59.4761 55.7619 58.9014 55.1872C58.3267 54.6126 58.0038 53.8331 58.0038 53.0203Z" fill="white"/>
</g>
<defs>
<filter id="filter0_d_1289_913" x="0.16836" y="0.415918" width="121.8" height="138.526" filterUnits="userSpaceOnUse" color-interpolation-filters="sRGB">
<feFlood flood-opacity="0" result="BackgroundImageFix"/>
<feColorMatrix in="SourceAlpha" type="matrix" values="0 0 0 0 0 0 0 0 0 0 0 0 0 0 0 0 0 0 127 0" result="hardAlpha"/>
<feOffset dy="9"/>
<feGaussianBlur stdDeviation="10.45"/>
<feComposite in2="hardAlpha" operator="out"/>
<feColorMatrix type="matrix" values="0 0 0 0 0 0 0 0 0 0 0 0 0 0 0 0 0 0 0.25 0"/>
<feBlend mode="normal" in2="BackgroundImageFix" result="effect1_dropShadow_1289_913"/>
<feBlend mode="normal" in="SourceGraphic" in2="effect1_dropShadow_1289_913" result="shape"/>
</filter>
</defs>
</svg>
