<svg width="81" height="98" viewBox="0 0 81 98" fill="none" xmlns="http://www.w3.org/2000/svg">
<path fill-rule="evenodd" clip-rule="evenodd" d="M40.8665 0.958008C51.4714 0.969445 61.6386 4.97667 69.1374 12.1006C76.6363 19.2245 80.8544 28.8833 80.8665 38.958C80.8665 71.4739 44.5028 96.0314 42.9528 97.0591C42.3414 97.466 41.613 97.6843 40.8664 97.6843L40.8665 0.958008Z" fill="#2F5B84"/>
<path fill-rule="evenodd" clip-rule="evenodd" d="M40.8664 0.958008C30.2615 0.969445 20.0943 4.97667 12.5955 12.1006C5.09662 19.2245 0.878486 28.8833 0.866455 38.958C0.866455 71.4739 37.2301 96.0314 38.7801 97.0591C39.3915 97.466 40.1199 97.6843 40.8665 97.6843L40.8664 0.958008Z" fill="#497AA8"/>
<path d="M50.3664 32.1627C50.3646 33.5639 49.8969 34.9248 49.037 36.0312C48.1772 37.1376 46.9738 37.9267 45.6164 38.2743V49.5793C45.6164 51.679 44.7823 53.6926 43.2977 55.1773C41.813 56.6619 39.7994 57.496 37.6997 57.496C35.6001 57.496 33.5865 56.6619 32.1018 55.1773C30.6172 53.6926 29.7831 51.679 29.7831 49.5793V41.6627L37.6997 49.5793H32.9497C32.9497 50.8391 33.4502 52.0473 34.341 52.9381C35.2318 53.8289 36.44 54.3293 37.6997 54.3293C38.9595 54.3293 40.1677 53.8289 41.0585 52.9381C41.9493 52.0473 42.4497 50.8391 42.4497 49.5793V38.2743C39.6472 37.546 37.6997 35.0127 37.6997 32.1152C37.6997 28.616 40.5497 25.8293 44.0331 25.8293C47.5481 25.8293 50.3664 28.6635 50.3664 32.1627ZM44.0331 35.3293C44.8729 35.3293 45.6784 34.9957 46.2723 34.4019C46.8661 33.808 47.1997 33.0025 47.1997 32.1627C47.1997 31.3228 46.8661 30.5174 46.2723 29.9235C45.6784 29.3296 44.8729 28.996 44.0331 28.996C43.1932 28.996 42.3878 29.3296 41.7939 29.9235C41.2 30.5174 40.8664 31.3228 40.8664 32.1627C40.8664 33.0025 41.2 33.808 41.7939 34.4019C42.3878 34.9957 43.1932 35.3293 44.0331 35.3293Z" fill="white"/>
</svg>
