<svg width="81" height="97" viewBox="0 0 81 97" fill="none" xmlns="http://www.w3.org/2000/svg">
<path fill-rule="evenodd" clip-rule="evenodd" d="M40.2139 0.0419922C50.8188 0.0534289 60.986 4.06066 68.4849 11.1846C75.9837 18.3085 80.2018 27.9673 80.2139 38.042C80.2139 70.5579 43.8502 95.1154 42.3002 96.1431C41.6888 96.55 40.9604 96.7683 40.2139 96.7683L40.2139 0.0419922Z" fill="#9ED954"/>
<path fill-rule="evenodd" clip-rule="evenodd" d="M40.2138 0.0419922C29.6089 0.0534289 19.4417 4.06066 11.9429 11.1846C4.44403 18.3085 0.225898 27.9673 0.213867 38.042C0.213867 70.5579 36.5775 95.1154 38.1275 96.1431C38.7389 96.55 39.4674 96.7683 40.2139 96.7683L40.2138 0.0419922Z" fill="#B4F462"/>
<path d="M26.3957 28.6557C26.3957 26.7557 27.9502 25.2012 29.8503 25.2012C31.7503 25.2012 33.3048 26.7557 33.3048 28.6557C33.3048 30.5557 31.7503 32.1103 29.8503 32.1103C27.9502 32.1103 26.3957 30.5557 26.3957 28.6557ZM21.2139 33.8376H31.5775L43.6685 25.2012L45.9312 27.7921L38.7285 32.9739H43.6685L57.1412 25.2012L59.214 27.6194L44.5321 39.0194L43.6685 56.2922H40.2139L39.3503 39.0194L33.3048 37.2921H21.2139V33.8376Z" fill="white"/>
</svg>
