<svg width="123" height="139" viewBox="0 0 123 139" fill="none" xmlns="http://www.w3.org/2000/svg">
<g filter="url(#filter0_d_1289_640)">
<path fill-rule="evenodd" clip-rule="evenodd" d="M61.715 12.3157C72.3199 12.3271 82.4871 16.3343 89.9859 23.4582C97.4848 30.5821 101.703 40.241 101.715 50.3157C101.715 82.8316 65.3513 107.389 63.8013 108.417C63.1899 108.824 62.4615 109.042 61.715 109.042V12.3157Z" fill="#C64191"/>
<path fill-rule="evenodd" clip-rule="evenodd" d="M61.715 12.3157C51.11 12.3271 40.9428 16.3343 33.444 23.4582C25.9451 30.5821 21.727 40.241 21.715 50.3157C21.715 82.8316 58.0786 107.389 59.6286 108.417C60.24 108.824 60.9685 109.042 61.715 109.042V12.3157Z" fill="#CB549B"/>
<path d="M64.0176 37.9454C63.7436 37.7847 63.4263 37.7133 63.1098 37.7413C62.7933 37.7692 62.4934 37.8951 62.2517 38.1013L49.7819 48.738C45.3113 53.2086 45.3113 60.4832 49.7819 64.9537C50.8453 66.0185 52.1085 66.8627 53.4991 67.4379C54.8898 68.013 56.3803 68.3077 57.8851 68.3051C60.8268 68.3051 63.7715 67.1829 66.0144 64.9384L76.5685 54.0892C76.7779 53.8738 76.9192 53.6015 76.9747 53.3063C77.0303 53.011 76.9976 52.706 76.8809 52.4292C76.7641 52.1524 76.5684 51.9162 76.3181 51.75C76.0679 51.5838 75.7742 51.495 75.4738 51.4947H70.4269L76.8101 40.0064C76.97 39.716 77.0312 39.3815 76.9847 39.0534C76.9381 38.7252 76.7863 38.421 76.552 38.1865C76.3177 37.952 76.0136 37.8 75.6854 37.7532C75.3573 37.7064 75.0228 37.7674 74.7323 37.927L63.8617 43.9663L64.7423 39.5645C64.8044 39.2528 64.768 38.9295 64.6382 38.6394C64.5083 38.3493 64.2915 38.1067 64.0176 37.9454ZM64.7714 56.8459C64.7714 58.6706 64.0465 60.4206 62.7563 61.7109C61.466 63.0011 59.716 63.726 57.8913 63.726C56.0665 63.726 54.3165 63.0011 53.0263 61.7109C51.736 60.4206 51.0111 58.6706 51.0111 56.8459C51.0111 54.4455 52.245 52.3371 54.1072 51.1063C54.0919 51.2347 54.069 51.3616 54.069 51.4947C54.069 51.9473 54.1694 52.3942 54.3631 52.8033C54.5568 53.2123 54.8389 53.5733 55.1891 53.8601C55.5392 54.1469 55.9486 54.3525 56.3878 54.4618C56.827 54.5712 57.285 54.5817 57.7287 54.4927C58.1725 54.4036 58.5909 54.2171 58.9539 53.9466C59.3168 53.6762 59.6152 53.3286 59.8274 52.9288C60.0397 52.5291 60.1606 52.0872 60.1814 51.6351C60.2022 51.183 60.1224 50.7319 59.9477 50.3143C62.7364 51.1919 64.7714 53.7666 64.7714 56.8459Z" fill="white"/>
</g>
<defs>
<filter id="filter0_d_1289_640" x="0.814966" y="0.415674" width="121.8" height="138.526" filterUnits="userSpaceOnUse" color-interpolation-filters="sRGB">
<feFlood flood-opacity="0" result="BackgroundImageFix"/>
<feColorMatrix in="SourceAlpha" type="matrix" values="0 0 0 0 0 0 0 0 0 0 0 0 0 0 0 0 0 0 127 0" result="hardAlpha"/>
<feOffset dy="9"/>
<feGaussianBlur stdDeviation="10.45"/>
<feComposite in2="hardAlpha" operator="out"/>
<feColorMatrix type="matrix" values="0 0 0 0 0 0 0 0 0 0 0 0 0 0 0 0 0 0 0.25 0"/>
<feBlend mode="normal" in2="BackgroundImageFix" result="effect1_dropShadow_1289_640"/>
<feBlend mode="normal" in="SourceGraphic" in2="effect1_dropShadow_1289_640" result="shape"/>
</filter>
</defs>
</svg>
