<svg width="81" height="98" viewBox="0 0 81 98" fill="none" xmlns="http://www.w3.org/2000/svg">
<path fill-rule="evenodd" clip-rule="evenodd" d="M40.7139 0.315674C51.3188 0.327103 61.486 4.33433 68.9849 11.4582C76.4837 18.5821 80.7018 28.241 80.7139 38.3157C80.7139 70.8316 44.3502 95.3891 42.8002 96.4168C42.1888 96.8237 41.4604 97.042 40.7139 97.042V0.315674Z" fill="#B63B85"/>
<path fill-rule="evenodd" clip-rule="evenodd" d="M40.7139 0.315674C30.1089 0.327103 19.9417 4.33433 12.4429 11.4582C4.94403 18.5821 0.725898 28.241 0.713867 38.3157C0.713867 70.8316 37.0775 95.3891 38.6275 96.4168C39.2389 96.8237 39.9674 97.042 40.7139 97.042V0.315674Z" fill="#CB549B"/>
<path d="M43.0165 25.9454C42.7425 25.7847 42.4252 25.7133 42.1087 25.7413C41.7922 25.7692 41.4923 25.8951 41.2506 26.1013L28.7808 36.738C24.3102 41.2086 24.3102 48.4832 28.7808 52.9537C29.8442 54.0185 31.1074 54.8627 32.498 55.4379C33.8887 56.013 35.3792 56.3077 36.884 56.3051C39.8257 56.3051 42.7704 55.1829 45.0133 52.9384L55.5674 42.0892C55.7768 41.8738 55.9181 41.6015 55.9737 41.3063C56.0292 41.011 55.9965 40.706 55.8798 40.4292C55.763 40.1524 55.5673 39.9162 55.317 39.75C55.0668 39.5838 54.7731 39.495 54.4727 39.4947H49.4258L55.809 28.0064C55.9689 27.716 56.0301 27.3815 55.9836 27.0534C55.937 26.7252 55.7852 26.421 55.5509 26.1865C55.3166 25.952 55.0125 25.8 54.6843 25.7532C54.3562 25.7064 54.0217 25.7674 53.7312 25.927L42.8606 31.9663L43.7412 27.5645C43.8033 27.2528 43.7669 26.9295 43.6371 26.6394C43.5072 26.3493 43.2904 26.1067 43.0165 25.9454ZM43.7703 44.8459C43.7703 46.6706 43.0454 48.4206 41.7552 49.7109C40.4649 51.0011 38.7149 51.726 36.8902 51.726C35.0654 51.726 33.3154 51.0011 32.0252 49.7109C30.7349 48.4206 30.01 46.6706 30.01 44.8459C30.01 42.4455 31.2439 40.3371 33.1061 39.1063C33.0908 39.2347 33.0679 39.3616 33.0679 39.4947C33.0679 39.9473 33.1683 40.3942 33.362 40.8033C33.5557 41.2123 33.8378 41.5733 34.188 41.8601C34.5381 42.1469 34.9475 42.3525 35.3867 42.4618C35.8259 42.5712 36.2839 42.5817 36.7276 42.4927C37.1714 42.4036 37.5898 42.2171 37.9528 41.9466C38.3157 41.6762 38.6141 41.3286 38.8263 40.9288C39.0386 40.5291 39.1595 40.0872 39.1803 39.6351C39.2011 39.183 39.1213 38.7319 38.9466 38.3143C41.7353 39.1919 43.7703 41.7666 43.7703 44.8459Z" fill="white"/>
</svg>
