<svg width="81" height="98" viewBox="0 0 81 98" fill="none" xmlns="http://www.w3.org/2000/svg">
<path fill-rule="evenodd" clip-rule="evenodd" d="M40.0886 0.315674C50.6936 0.327111 60.8608 4.33434 68.3596 11.4582C75.8585 18.5821 80.0766 28.241 80.0886 38.3157C80.0886 70.8316 43.725 95.3891 42.175 96.4168C41.5636 96.8237 40.8351 97.042 40.0886 97.042L40.0886 0.315674Z" fill="#5AC785"/>
<path fill-rule="evenodd" clip-rule="evenodd" d="M40.0886 0.315674C29.4836 0.327111 19.3165 4.33434 11.8176 11.4582C4.31879 18.5821 0.100654 28.241 0.088623 38.3157C0.088623 70.8316 36.4523 95.3891 38.0023 96.4168C38.6137 96.8237 39.3421 97.042 40.0886 97.042L40.0886 0.315674Z" fill="#6BDF99"/>
<path d="M56.7437 52.3366C57.4975 52.3366 58.2204 52.636 58.7534 53.169C59.2864 53.702 59.5858 54.4249 59.5858 55.1787C59.5858 55.9325 59.2864 56.6554 58.7534 57.1884C58.2204 57.7214 57.4975 58.0209 56.7437 58.0209C55.9899 58.0209 55.267 57.7214 54.734 57.1884C54.201 56.6554 53.9015 55.9325 53.9015 55.1787C53.9015 54.4249 54.201 53.702 54.734 53.169C55.267 52.636 55.9899 52.3366 56.7437 52.3366ZM52.0068 29.4478L40.6381 35.2836V52.3934C46.0193 52.6966 50.112 54.2313 50.112 56.1261C50.112 58.2104 45.0151 59.9156 38.7434 59.9156C32.4717 59.9156 27.3748 58.2104 27.3748 56.1261C27.3748 54.724 29.6674 53.5113 33.0591 52.8482V56.1261H36.8486V22.0203L52.0068 29.4478Z" fill="white"/>
</svg>
