<svg width="81" height="98" viewBox="0 0 81 98" fill="none" xmlns="http://www.w3.org/2000/svg">
<path fill-rule="evenodd" clip-rule="evenodd" d="M40.8664 0.958008C51.4713 0.969445 61.6385 4.97667 69.1373 12.1006C76.6362 19.2245 80.8543 28.8833 80.8663 38.958C80.8663 71.4739 44.5027 96.0314 42.9527 97.0591C42.3413 97.466 41.6128 97.6843 40.8663 97.6843L40.8664 0.958008Z" fill="#5CA025"/>
<path fill-rule="evenodd" clip-rule="evenodd" d="M40.8663 0.958008C30.2614 0.969445 20.0942 4.97667 12.5953 12.1006C5.0965 19.2245 0.878364 28.8833 0.866333 38.958C0.866333 71.4739 37.23 96.0314 38.78 97.0591C39.3914 97.466 40.1198 97.6843 40.8663 97.6843L40.8663 0.958008Z" fill="#74C732"/>
<path d="M51.0756 35.8796H53.7326V60.7657H51.0756V42.7046C49.6863 42.4268 48.3838 41.9058 47.1508 41.159C45.9177 40.4123 44.8758 39.5439 43.9901 38.5367L42.9134 43.8682L46.7861 47.6888V60.7657H43.3128V50.3459L39.4227 46.5253L36.1752 60.7657H32.424C32.424 60.7657 37.8597 33.3615 37.9118 33.1357C38.1028 32.3021 38.4849 31.6596 39.1275 31.2428C39.77 30.7739 40.4126 30.5481 41.0725 30.5481C41.7498 30.5481 42.375 30.7044 42.9481 31.017C43.5385 31.3123 43.9901 31.7464 44.32 32.3021L46.1609 35.1329C46.6645 36.0707 47.3418 36.8869 48.1927 37.5468C49.0437 38.2067 50.0162 38.7104 51.0756 39.0577V35.8796ZM35.5847 31.0518L33.5876 30.635C32.5977 30.3745 31.6946 30.5829 30.8784 31.1386C30.0796 31.6943 29.5933 32.4584 29.4196 33.4657L28.0129 40.3775C27.9608 40.8812 28.065 41.3327 28.3429 41.7495C28.6208 42.1663 28.9855 42.392 29.4196 42.4615L33.2576 43.2083L35.5847 31.0518ZM43.3128 22.5596C41.4025 22.5596 39.8395 24.1225 39.8395 26.0329C39.8395 27.9432 41.4025 29.5061 43.3128 29.5061C45.2231 29.5061 46.7861 27.9605 46.7861 26.0329C46.7861 24.1052 45.2405 22.5596 43.3128 22.5596Z" fill="white"/>
</svg>
