<svg width="123" height="139" viewBox="0 0 123 139" fill="none" xmlns="http://www.w3.org/2000/svg">
<g filter="url(#filter0_d_1289_770)">
<path fill-rule="evenodd" clip-rule="evenodd" d="M61.3109 12.3157C71.9159 12.3271 82.0831 16.3343 89.5819 23.4582C97.0807 30.5821 101.299 40.241 101.311 50.3157C101.311 82.8316 64.9473 107.389 63.3973 108.417C62.7859 108.824 62.0574 109.042 61.3109 109.042L61.3109 12.3157Z" fill="#C559C7"/>
<path fill-rule="evenodd" clip-rule="evenodd" d="M61.3109 12.3157C50.7059 12.3271 40.5388 16.3343 33.0399 23.4582C25.5411 30.5821 21.3229 40.241 21.3109 50.3157C21.3109 82.8316 57.6746 107.389 59.2246 108.417C59.836 108.824 60.5644 109.042 61.3109 109.042L61.3109 12.3157Z" fill="#CD68CF"/>
<path d="M62.2853 34.0203C61.2516 34.0203 60.2603 34.4309 59.5294 35.1618C58.7985 35.8927 58.3879 36.884 58.3879 37.9177C58.3879 38.9514 58.7985 39.9427 59.5294 40.6736C60.2603 41.4045 61.2516 41.8151 62.2853 41.8151C64.4484 41.8151 66.1827 40.0808 66.1827 37.9177C66.1827 36.884 65.7721 35.8927 65.0412 35.1618C64.3103 34.4309 63.319 34.0203 62.2853 34.0203ZM44.7468 43.7639V47.6613H56.4391V59.3536L46.5591 69.2336L49.3068 72.0203L62.4022 58.9054L70.0802 63.5044V71.0459H73.9776V62.4131C73.9776 61.7115 73.6268 61.088 73.0032 60.7372L66.1827 56.6254V47.6613H77.875V43.7639H44.7468Z" fill="white"/>
</g>
<defs>
<filter id="filter0_d_1289_770" x="0.410913" y="0.415674" width="121.8" height="138.526" filterUnits="userSpaceOnUse" color-interpolation-filters="sRGB">
<feFlood flood-opacity="0" result="BackgroundImageFix"/>
<feColorMatrix in="SourceAlpha" type="matrix" values="0 0 0 0 0 0 0 0 0 0 0 0 0 0 0 0 0 0 127 0" result="hardAlpha"/>
<feOffset dy="9"/>
<feGaussianBlur stdDeviation="10.45"/>
<feComposite in2="hardAlpha" operator="out"/>
<feColorMatrix type="matrix" values="0 0 0 0 0 0 0 0 0 0 0 0 0 0 0 0 0 0 0.25 0"/>
<feBlend mode="normal" in2="BackgroundImageFix" result="effect1_dropShadow_1289_770"/>
<feBlend mode="normal" in="SourceGraphic" in2="effect1_dropShadow_1289_770" result="shape"/>
</filter>
</defs>
</svg>
