<svg width="122" height="139" viewBox="0 0 122 139" fill="none" xmlns="http://www.w3.org/2000/svg">
<g filter="url(#filter0_d_1392_114)">
<path fill-rule="evenodd" clip-rule="evenodd" d="M61 12C71.605 12.0114 81.7721 16.0187 89.271 23.1426C96.7698 30.2665 100.988 39.9253 101 50C101 82.5159 64.6364 107.073 63.0864 108.101C62.4749 108.508 61.7465 108.726 61 108.726L61 12Z" fill="#75BCFD"/>
<path fill-rule="evenodd" clip-rule="evenodd" d="M61 12C50.395 12.0114 40.2279 16.0187 32.729 23.1426C25.2302 30.2665 21.012 39.9253 21 50C21 82.5159 57.3636 107.073 58.9136 108.101C59.5251 108.508 60.2535 108.726 61 108.726L61 12Z" fill="#8CC8FF"/>
<path d="M55.4334 39.0007C54.7334 39.0203 54.0954 39.4793 53.8778 40.1875L53.0494 42.8791C52.8052 43.6736 53.1759 44.5054 53.8919 44.868L52.76 48.554L52.2332 48.0599C52.1342 47.9659 52.0175 47.8923 51.8899 47.8436C51.7624 47.7948 51.6265 47.7719 51.49 47.7761C51.3543 47.7812 51.221 47.813 51.0977 47.8696C50.9743 47.9262 50.8632 48.0066 50.7709 48.1061C50.6778 48.2051 50.6053 48.3215 50.5573 48.4486C50.5093 48.5758 50.4867 48.7111 50.491 48.8469C50.4954 48.9827 50.5264 49.1164 50.5824 49.2402C50.6385 49.364 50.7184 49.4755 50.8176 49.5684L52.0835 50.7532L50.8927 54.6337L50.7872 54.6357C50.6514 54.6376 50.5172 54.6664 50.3925 54.7201C50.2678 54.7739 50.1548 54.8517 50.0602 54.9492C49.9656 55.0466 49.8912 55.1617 49.8411 55.2879C49.791 55.4141 49.7663 55.5491 49.7684 55.6849C49.7713 55.8658 49.8218 56.0427 49.9145 56.198C50.0073 56.3533 50.1392 56.4816 50.297 56.5699L49.9184 57.8074C49.2195 57.7165 48.5394 58.0751 48.2171 58.7006L36.7817 58.9299C36.6797 58.929 36.5785 58.9483 36.4839 58.9867C36.3894 59.025 36.3035 59.0817 36.2308 59.1534C36.1582 59.2251 36.1004 59.3104 36.0608 59.4045C36.0212 59.4985 36.0005 59.5994 36 59.7014C36 60.6266 36.4796 61.4825 37.2173 62.1987C37.9551 62.9148 38.9683 63.5402 40.241 64.1187C42.7864 65.2758 46.2505 66.4993 47.3646 66.6681C56.2014 68.0071 61.6847 68.2306 70.5214 66.8916C74.9398 66.2221 78.5238 65.27 81.0691 64.113C82.3418 63.5344 83.3634 62.9091 84.1011 62.1929C84.8388 61.4767 85.3101 60.6208 85.3101 59.6957C85.309 59.491 85.2273 59.2951 85.0823 59.1505C84.9374 59.006 84.7411 58.9246 84.5364 58.9241L64.1523 58.7006V49.7386C64.1523 49.2965 62.8983 48.5984 61.5185 48.5984C60.73 48.4013 59.7212 48.9719 59.6358 49.0275C59.5888 49.0411 59.5429 49.058 59.4983 49.0781L55.3037 50.9374L53.6024 49.3414L54.8846 45.1713C55.6805 45.2732 56.4531 44.7927 56.6971 43.9986L57.5236 41.307C57.7967 40.4183 57.3 39.4839 56.4115 39.2108L55.9742 39.0752C55.7935 39.0195 55.612 38.9956 55.4334 39.0007ZM61.1345 43.2396C60.4956 43.2394 59.8828 43.4931 59.4308 43.9447C58.9788 44.3962 58.7248 45.0088 58.7244 45.6477C58.7243 45.9642 58.7866 46.2777 58.9076 46.5701C59.0287 46.8626 59.2063 47.1283 59.4301 47.3521C59.6539 47.5759 59.9196 47.7534 60.2121 47.8745C60.5045 47.9956 60.8179 48.058 61.1345 48.0579C61.451 48.058 61.7644 47.9956 62.0568 47.8745C62.3493 47.7534 62.615 47.5759 62.8388 47.3521C63.0626 47.1283 63.2402 46.8626 63.3613 46.5701C63.4823 46.2777 63.5446 45.9642 63.5445 45.6477C63.5441 45.0088 63.2901 44.3962 62.8381 43.9447C62.3861 43.4931 61.7734 43.2394 61.1345 43.2396ZM59.2995 51.43V52.5298L57.248 54.5125L51.9801 54.6137L52.926 51.5413L54.3923 52.9124C54.5401 53.0512 54.7254 53.1435 54.9253 53.1777C55.1251 53.2119 55.3308 53.1866 55.5164 53.1049L59.2995 51.43ZM59.2995 55.4016V58.7008H51.5589C51.4009 58.4547 51.1775 58.2493 50.9046 58.1115L51.34 56.6918L57.6915 56.5722C57.9519 56.5669 58.2006 56.4635 58.3881 56.2826L59.2995 55.4016ZM37.9747 60.4835L47.7107 60.2543L47.2753 61.6719C47.0022 62.5606 47.4983 63.495 48.3872 63.7681L48.8247 63.9038C49.7134 64.1769 50.6478 63.6804 50.9209 62.7919L51.7026 60.2543L83.3414 60.4778C83.2234 60.6796 83.2581 60.8458 83.0218 61.0752C82.4763 61.6048 81.6001 62.1751 80.4333 62.7056C78.0997 63.7663 74.6156 64.6993 70.2905 65.3547C61.6403 66.6654 56.2518 66.4419 47.6016 65.1312C46.7009 64.7051 43.2187 63.7721 40.8851 62.7113C39.7184 62.1809 38.8423 61.6105 38.2969 61.081C38.0606 60.8517 38.0926 60.6853 37.9747 60.4835Z" fill="white"/>
<path d="M42.7338 60.0317H84L81.2981 62.8315L75.8123 65.2313L60.0918 66.9311L46.6639 65.8312L40.5231 63.4314L37.0842 60.0317H42.7338Z" fill="white"/>
</g>
<defs>
<filter id="filter0_d_1392_114" x="0.1" y="0.1" width="121.8" height="138.526" filterUnits="userSpaceOnUse" color-interpolation-filters="sRGB">
<feFlood flood-opacity="0" result="BackgroundImageFix"/>
<feColorMatrix in="SourceAlpha" type="matrix" values="0 0 0 0 0 0 0 0 0 0 0 0 0 0 0 0 0 0 127 0" result="hardAlpha"/>
<feOffset dy="9"/>
<feGaussianBlur stdDeviation="10.45"/>
<feComposite in2="hardAlpha" operator="out"/>
<feColorMatrix type="matrix" values="0 0 0 0 0 0 0 0 0 0 0 0 0 0 0 0 0 0 0.25 0"/>
<feBlend mode="normal" in2="BackgroundImageFix" result="effect1_dropShadow_1392_114"/>
<feBlend mode="normal" in="SourceGraphic" in2="effect1_dropShadow_1392_114" result="shape"/>
</filter>
</defs>
</svg>
