<svg width="80" height="97" viewBox="0 0 80 97" fill="none" xmlns="http://www.w3.org/2000/svg">
<path fill-rule="evenodd" clip-rule="evenodd" d="M40 0C50.605 0.0114367 60.7721 4.01867 68.271 11.1426C75.7698 18.2665 79.988 27.9253 80 38C80 70.5159 43.6364 95.0734 42.0864 96.1011C41.4749 96.508 40.7465 96.7263 40 96.7263L40 0Z" fill="#78BEFF"/>
<path fill-rule="evenodd" clip-rule="evenodd" d="M40 0C29.395 0.0114367 19.2279 4.01867 11.729 11.1426C4.23017 18.2665 0.0120306 27.9253 0 38C0 70.5159 36.3636 95.0734 37.9136 96.1011C38.5251 96.508 39.2535 96.7263 40 96.7263L40 0Z" fill="#8CC8FF"/>
<path d="M34.4334 27.0007C33.7334 27.0203 33.0954 27.4793 32.8778 28.1875L32.0494 30.8791C31.8052 31.6736 32.1759 32.5054 32.8919 32.868L31.76 36.554L31.2332 36.0599C31.1342 35.9659 31.0175 35.8923 30.8899 35.8436C30.7624 35.7948 30.6265 35.7719 30.49 35.7761C30.3543 35.7812 30.221 35.813 30.0977 35.8696C29.9743 35.9262 29.8632 36.0066 29.7709 36.1061C29.6778 36.2051 29.6053 36.3215 29.5573 36.4486C29.5093 36.5758 29.4867 36.7111 29.491 36.8469C29.4954 36.9827 29.5264 37.1164 29.5824 37.2402C29.6385 37.364 29.7184 37.4755 29.8176 37.5684L31.0835 38.7532L29.8927 42.6337L29.7872 42.6357C29.6514 42.6376 29.5172 42.6664 29.3925 42.7201C29.2678 42.7739 29.1548 42.8517 29.0602 42.9492C28.9656 43.0466 28.8912 43.1617 28.8411 43.2879C28.791 43.4141 28.7663 43.5491 28.7684 43.6849C28.7713 43.8658 28.8218 44.0426 28.9145 44.198C29.0073 44.3533 29.1392 44.4816 29.297 44.5699L28.9184 45.8074C28.2195 45.7165 27.5394 46.0751 27.2171 46.7006L15.7817 46.9299C15.6797 46.929 15.5785 46.9483 15.4839 46.9867C15.3894 47.025 15.3035 47.0817 15.2308 47.1534C15.1582 47.2251 15.1004 47.3104 15.0608 47.4045C15.0212 47.4985 15.0005 47.5994 15 47.7014C15 48.6266 15.4796 49.4825 16.2173 50.1987C16.9551 50.9148 17.9683 51.5402 19.241 52.1187C21.7864 53.2758 25.2505 54.4993 26.3646 54.6681C35.2014 56.0071 40.6847 56.2306 49.5214 54.8916C53.9398 54.2221 57.5238 53.27 60.0691 52.113C61.3418 51.5344 62.3634 50.9091 63.1011 50.1929C63.8388 49.4767 64.3101 48.6208 64.3101 47.6957C64.309 47.491 64.2273 47.2951 64.0823 47.1505C63.9374 47.006 63.7411 46.9246 63.5365 46.9241L43.1523 46.7006V37.7386C43.1523 37.2965 41.8983 36.5984 40.5185 36.5984C39.73 36.4013 38.7212 36.9719 38.6358 37.0275C38.5888 37.0411 38.5429 37.058 38.4983 37.0781L34.3037 38.9374L32.6024 37.3414L33.8846 33.1713C34.6805 33.2732 35.4531 32.7927 35.6971 31.9986L36.5236 29.307C36.7967 28.4183 36.3 27.4839 35.4115 27.2108L34.9742 27.0752C34.7935 27.0195 34.612 26.9956 34.4334 27.0007ZM40.1345 31.2396C39.4956 31.2394 38.8828 31.4931 38.4308 31.9447C37.9788 32.3962 37.7248 33.0088 37.7244 33.6477C37.7243 33.9642 37.7866 34.2777 37.9076 34.5701C38.0287 34.8626 38.2063 35.1283 38.4301 35.3521C38.6539 35.5759 38.9196 35.7534 39.2121 35.8745C39.5045 35.9956 39.8179 36.058 40.1345 36.0579C40.451 36.058 40.7644 35.9956 41.0568 35.8745C41.3493 35.7534 41.615 35.5759 41.8388 35.3521C42.0626 35.1283 42.2402 34.8626 42.3613 34.5701C42.4823 34.2777 42.5446 33.9642 42.5445 33.6477C42.5441 33.0088 42.2901 32.3962 41.8381 31.9447C41.3861 31.4931 40.7734 31.2394 40.1345 31.2396ZM38.2995 39.43V40.5298L36.248 42.5125L30.9801 42.6137L31.926 39.5413L33.3923 40.9124C33.5401 41.0512 33.7254 41.1435 33.9253 41.1777C34.1251 41.2119 34.3308 41.1866 34.5164 41.1049L38.2995 39.43ZM38.2995 43.4016V46.7008H30.5589C30.4009 46.4547 30.1775 46.2493 29.9046 46.1115L30.34 44.6918L36.6915 44.5722C36.9519 44.5669 37.2006 44.4635 37.3881 44.2826L38.2995 43.4016ZM16.9747 48.4835L26.7107 48.2543L26.2753 49.6719C26.0022 50.5606 26.4983 51.495 27.3872 51.7681L27.8247 51.9038C28.7134 52.1769 29.6478 51.6804 29.9209 50.7919L30.7026 48.2543L62.3414 48.4778C62.2234 48.6796 62.2581 48.8458 62.0218 49.0752C61.4763 49.6048 60.6001 50.1751 59.4333 50.7056C57.0997 51.7663 53.6156 52.6993 49.2905 53.3547C40.6403 54.6654 35.2518 54.4419 26.6016 53.1312C25.7009 52.7051 22.2187 51.7721 19.8851 50.7113C18.7184 50.1809 17.8423 49.6105 17.2969 49.081C17.0606 48.8517 17.0926 48.6853 16.9747 48.4835Z" fill="white"/>
<path d="M21.7338 48.0317H63L60.2981 50.8315L54.8123 53.2313L39.0918 54.9311L25.6639 53.8312L19.5231 51.4314L16.0842 48.0317H21.7338Z" fill="white"/>
</svg>
