<svg width="123" height="139" viewBox="0 0 123 139" fill="none" xmlns="http://www.w3.org/2000/svg">
<g filter="url(#filter0_d_1289_653)">
<path fill-rule="evenodd" clip-rule="evenodd" d="M61.8866 12.042C72.4916 12.0534 82.6587 16.0607 90.1576 23.1846C97.6564 30.3085 101.875 39.9673 101.887 50.042C101.887 82.5579 65.523 107.115 63.973 108.143C63.3615 108.55 62.6331 108.768 61.8866 108.768V12.042Z" fill="#E9658C"/>
<path fill-rule="evenodd" clip-rule="evenodd" d="M61.8866 12.042C51.2816 12.0534 41.1145 16.0607 33.6156 23.1846C26.1168 30.3085 21.8986 39.9673 21.8866 50.042C21.8866 82.5579 58.2502 107.115 59.8002 108.143C60.4117 108.55 61.1401 108.768 61.8866 108.768V12.042Z" fill="#F27399"/>
<path d="M72.7749 68.8807C71.2459 68.8807 69.7512 68.4272 68.4798 67.5778C67.2085 66.7283 66.2176 65.5209 65.6325 64.1083C65.0474 62.6956 64.8943 61.1412 65.1926 59.6416C65.4909 58.1419 66.2271 56.7644 67.3083 55.6832C68.3895 54.602 69.767 53.8657 71.2667 53.5674C72.7663 53.2691 74.3207 53.4222 75.7334 54.0074C77.146 54.5925 78.3534 55.5834 79.2029 56.8547C80.0524 58.1261 80.5058 59.6208 80.5058 61.1498C80.5035 63.1995 79.6883 65.1645 78.239 66.6139C76.7897 68.0632 74.8246 68.8784 72.7749 68.8807ZM72.7749 56.1079C71.7777 56.1079 70.8029 56.4036 69.9738 56.9576C69.1446 57.5116 68.4984 58.2991 68.1168 59.2203C67.7352 60.1416 67.6353 61.1554 67.8299 62.1334C68.0244 63.1114 68.5046 64.0098 69.2097 64.7149C69.9149 65.42 70.8132 65.9002 71.7913 66.0948C72.7693 66.2893 73.7831 66.1895 74.7043 65.8079C75.6256 65.4263 76.4131 64.78 76.9671 63.9509C77.5211 63.1218 77.8168 62.147 77.8168 61.1498C77.8152 59.8131 77.2835 58.5315 76.3383 57.5863C75.3931 56.6412 74.1116 56.1095 72.7749 56.1079ZM50.5906 68.8807C49.0616 68.8807 47.5669 68.4272 46.2956 67.5778C45.0242 66.7283 44.0334 65.5209 43.4482 64.1083C42.8631 62.6956 42.71 61.1412 43.0083 59.6416C43.3066 58.1419 44.0429 56.7644 45.1241 55.6832C46.2053 54.602 47.5828 53.8657 49.0824 53.5674C50.582 53.2691 52.1365 53.4222 53.5491 54.0074C54.9617 54.5925 56.1691 55.5834 57.0186 56.8547C57.8681 58.1261 58.3215 59.6208 58.3215 61.1498C58.3193 63.1995 57.5041 65.1645 56.0547 66.6139C54.6054 68.0632 52.6403 68.8784 50.5906 68.8807ZM50.5906 56.1079C49.5934 56.1079 48.6186 56.4036 47.7895 56.9576C46.9604 57.5116 46.3141 58.2991 45.9325 59.2203C45.5509 60.1416 45.4511 61.1554 45.6456 62.1334C45.8402 63.1114 46.3204 64.0098 47.0255 64.7149C47.7306 65.42 48.629 65.9002 49.607 66.0948C50.585 66.2893 51.5988 66.1895 52.5201 65.8079C53.4414 65.4263 54.2288 64.78 54.7828 63.9509C55.3368 63.1218 55.6325 62.147 55.6325 61.1498C55.6309 59.8131 55.0993 58.5315 54.1541 57.5863C53.2089 56.6412 51.9273 56.1095 50.5906 56.1079ZM67.0608 41.9906C67.4149 41.9919 67.7658 41.9229 68.0932 41.7876C68.4205 41.6524 68.7178 41.4536 68.9679 41.2028C69.2179 40.952 69.4158 40.6541 69.55 40.3263C69.6842 39.9985 69.7521 39.6474 69.7498 39.2932C69.7537 38.9408 69.6873 38.5912 69.5545 38.2647C69.4217 37.9383 69.2252 37.6416 68.9764 37.392C68.7275 37.1424 68.4315 36.9449 68.1054 36.8111C67.7794 36.6773 67.43 36.6098 67.0776 36.6126C66.7244 36.6115 66.3746 36.68 66.0479 36.8141C65.7212 36.9482 65.4242 37.1454 65.1737 37.3943C64.9232 37.6432 64.7242 37.939 64.5881 38.2648C64.4519 38.5907 64.3813 38.9401 64.3802 39.2932C64.3791 39.6464 64.4475 39.9962 64.5816 40.3229C64.7158 40.6496 64.9129 40.9466 65.1618 41.1971C65.4107 41.4476 65.7065 41.6466 66.0324 41.7827C66.3582 41.9189 66.7076 41.9895 67.0608 41.9906Z" fill="white"/>
<path d="M71.0564 47.3686H67.3792C67.3189 47.3686 67.2597 47.3524 67.2078 47.3217C67.1559 47.2909 67.1132 47.2467 67.0843 47.1938L64.4171 42.3057C64.2292 41.9425 63.9584 41.6286 63.6266 41.3894C63.2948 41.1503 62.9114 40.9926 62.5073 40.9292C62.1033 40.8658 61.69 40.8984 61.3009 41.0244C60.9118 41.1504 60.5578 41.3663 60.2676 41.6545L54.3972 47.5703C53.904 48.0737 53.6241 48.7479 53.6157 49.4526C53.6157 50.9147 54.6745 51.4357 55.1703 51.7298C57.5652 53.1096 59.2517 54.1188 60.1769 54.6793C60.2261 54.7093 60.2667 54.7514 60.295 54.8015C60.3232 54.8517 60.3381 54.9083 60.3382 54.9659V60.7741C60.3382 61.4976 60.8945 62.1186 61.618 62.1548C61.7997 62.1635 61.9812 62.1353 62.1516 62.0719C62.3221 62.0085 62.4779 61.9111 62.6096 61.7858C62.7414 61.6604 62.8463 61.5096 62.9181 61.3425C62.9899 61.1754 63.027 60.9955 63.0272 60.8136V53.5869C63.0274 53.3735 62.9767 53.1631 62.8793 52.9731C62.782 52.7832 62.6409 52.6191 62.4676 52.4945L59.3584 50.2584C59.3194 50.2305 59.2868 50.1946 59.2628 50.153C59.2389 50.1114 59.2241 50.0652 59.2194 50.0174C59.2148 49.9697 59.2205 49.9215 59.2361 49.8761C59.2516 49.8307 59.2767 49.7891 59.3097 49.7543L62.839 45.9905C62.8752 45.9518 62.92 45.9222 62.9698 45.9041C63.0196 45.886 63.073 45.8799 63.1256 45.8864C63.1782 45.8929 63.2286 45.9117 63.2725 45.9413C63.3165 45.9709 63.3528 46.0105 63.3785 46.0569L65.212 49.366C65.3286 49.5758 65.4991 49.7506 65.706 49.8722C65.9129 49.9938 66.1485 50.0578 66.3885 50.0576H71.0942C71.2764 50.0578 71.4567 50.021 71.6241 49.9494C71.7916 49.8779 71.9428 49.773 72.0686 49.6412C72.1943 49.5094 72.2919 49.3535 72.3556 49.1828C72.4192 49.0122 72.4475 48.8303 72.4387 48.6484C72.4034 47.9249 71.7799 47.3686 71.0564 47.3686Z" fill="white"/>
</g>
<defs>
<filter id="filter0_d_1289_653" x="0.986597" y="0.141993" width="121.8" height="138.526" filterUnits="userSpaceOnUse" color-interpolation-filters="sRGB">
<feFlood flood-opacity="0" result="BackgroundImageFix"/>
<feColorMatrix in="SourceAlpha" type="matrix" values="0 0 0 0 0 0 0 0 0 0 0 0 0 0 0 0 0 0 127 0" result="hardAlpha"/>
<feOffset dy="9"/>
<feGaussianBlur stdDeviation="10.45"/>
<feComposite in2="hardAlpha" operator="out"/>
<feColorMatrix type="matrix" values="0 0 0 0 0 0 0 0 0 0 0 0 0 0 0 0 0 0 0.25 0"/>
<feBlend mode="normal" in2="BackgroundImageFix" result="effect1_dropShadow_1289_653"/>
<feBlend mode="normal" in="SourceGraphic" in2="effect1_dropShadow_1289_653" result="shape"/>
</filter>
</defs>
</svg>
