<svg width="81" height="97" viewBox="0 0 81 97" fill="none" xmlns="http://www.w3.org/2000/svg">
<path fill-rule="evenodd" clip-rule="evenodd" d="M40.7139 0.0419922C51.3188 0.0534213 61.486 4.06065 68.9849 11.1846C76.4837 18.3085 80.7018 27.9673 80.7139 38.042C80.7139 70.5579 44.3502 95.1154 42.8002 96.1431C42.1888 96.55 41.4604 96.7683 40.7139 96.7683V0.0419922Z" fill="#C6476D"/>
<path fill-rule="evenodd" clip-rule="evenodd" d="M40.7139 0.0419922C30.1089 0.0534213 19.9417 4.06065 12.4429 11.1846C4.94403 18.3085 0.725898 27.9673 0.713867 38.042C0.713867 70.5579 37.0775 95.1154 38.6275 96.1431C39.2389 96.55 39.9674 96.7683 40.7139 96.7683V0.0419922Z" fill="#F25987"/>
<path d="M51.6022 56.8807C50.0731 56.8807 48.5785 56.4273 47.3071 55.5778C46.0358 54.7283 45.0449 53.5209 44.4598 52.1083C43.8746 50.6956 43.7215 49.1412 44.0198 47.6416C44.3181 46.1419 45.0544 44.7644 46.1356 43.6832C47.2168 42.602 48.5943 41.8657 50.0939 41.5674C51.5936 41.2691 53.148 41.4222 54.5606 42.0074C55.9733 42.5925 57.1807 43.5834 58.0302 44.8547C58.8796 46.1261 59.333 47.6208 59.333 49.1498C59.3308 51.1995 58.5156 53.1645 57.0663 54.6139C55.6169 56.0632 53.6518 56.8784 51.6022 56.8807ZM51.6022 44.1079C50.605 44.1079 49.6302 44.4036 48.801 44.9576C47.9719 45.5116 47.3257 46.2991 46.9441 47.2203C46.5625 48.1416 46.4626 49.1554 46.6572 50.1334C46.8517 51.1114 47.3319 52.0098 48.037 52.7149C48.7421 53.42 49.6405 53.9002 50.6185 54.0948C51.5966 54.2893 52.6103 54.1895 53.5316 53.8079C54.4529 53.4263 55.2403 52.78 55.7943 51.9509C56.3483 51.1218 56.644 50.147 56.644 49.1498C56.6425 47.8131 56.1108 46.5315 55.1656 45.5863C54.2204 44.6412 52.9389 44.1095 51.6022 44.1079ZM29.4179 56.8807C27.8889 56.8807 26.3942 56.4273 25.1228 55.5778C23.8515 54.7283 22.8606 53.5209 22.2755 52.1083C21.6904 50.6956 21.5373 49.1412 21.8356 47.6416C22.1339 46.1419 22.8702 44.7644 23.9513 43.6832C25.0325 42.602 26.41 41.8657 27.9097 41.5674C29.4093 41.2691 30.9637 41.4222 32.3764 42.0074C33.789 42.5925 34.9964 43.5834 35.8459 44.8547C36.6954 46.1261 37.1488 47.6208 37.1488 49.1498C37.1466 51.1995 36.3313 53.1645 34.882 54.6139C33.4327 56.0632 31.4676 56.8784 29.4179 56.8807ZM29.4179 44.1079C28.4207 44.1079 27.4459 44.4036 26.6168 44.9576C25.7876 45.5116 25.1414 46.2991 24.7598 47.2203C24.3782 48.1416 24.2784 49.1554 24.4729 50.1334C24.6674 51.1114 25.1476 52.0098 25.8527 52.7149C26.5579 53.42 27.4562 53.9002 28.4343 54.0948C29.4123 54.2893 30.4261 54.1895 31.3473 53.8079C32.2686 53.4263 33.0561 52.78 33.6101 51.9509C34.1641 51.1218 34.4598 50.147 34.4598 49.1498C34.4582 47.8131 33.9265 46.5315 32.9813 45.5863C32.0361 44.6412 30.7546 44.1095 29.4179 44.1079ZM45.888 29.9906C46.2422 29.9919 46.5931 29.9229 46.9205 29.7876C47.2478 29.6524 47.5451 29.4536 47.7952 29.2028C48.0452 28.952 48.2431 28.6541 48.3773 28.3263C48.5115 27.9985 48.5794 27.6474 48.577 27.2932C48.581 26.9408 48.5146 26.5912 48.3818 26.2647C48.249 25.9383 48.0524 25.6416 47.8036 25.392C47.5548 25.1424 47.2587 24.9449 46.9327 24.8111C46.6067 24.6773 46.2573 24.6098 45.9048 24.6126C45.5517 24.6115 45.2018 24.68 44.8752 24.8141C44.5485 24.9482 44.2514 25.1454 44.001 25.3943C43.7505 25.6432 43.5515 25.939 43.4153 26.2648C43.2792 26.5907 43.2085 26.9401 43.2074 27.2932C43.2063 27.6464 43.2748 27.9962 43.4089 28.3229C43.543 28.6496 43.7402 28.9466 43.9891 29.1971C44.238 29.4476 44.5338 29.6466 44.8596 29.7827C45.1855 29.9189 45.5349 29.9895 45.888 29.9906Z" fill="white"/>
<path d="M49.8837 35.3686H46.2065C46.1462 35.3686 46.0869 35.3524 46.035 35.3217C45.9832 35.2909 45.9405 35.2467 45.9115 35.1938L43.2444 30.3057C43.0565 29.9425 42.7856 29.6286 42.4538 29.3894C42.1221 29.1503 41.7386 28.9926 41.3346 28.9292C40.9305 28.8658 40.5172 28.8984 40.1281 29.0244C39.739 29.1504 39.3851 29.3663 39.0949 29.6545L33.2245 35.5703C32.7313 36.0737 32.4514 36.7479 32.443 37.4526C32.443 38.9147 33.5018 39.4357 33.9976 39.7298C36.3925 41.1096 38.079 42.1188 39.0042 42.6793C39.0533 42.7093 39.094 42.7514 39.1223 42.8015C39.1505 42.8517 39.1654 42.9083 39.1655 42.9659V48.7741C39.1655 49.4976 39.7218 50.1186 40.4453 50.1548C40.6269 50.1635 40.8085 50.1353 40.9789 50.0719C41.1494 50.0085 41.3052 49.9111 41.4369 49.7858C41.5686 49.6604 41.6736 49.5096 41.7453 49.3425C41.8171 49.1754 41.8543 48.9955 41.8545 48.8136V41.5869C41.8546 41.3735 41.8039 41.1631 41.7066 40.9731C41.6093 40.7832 41.4681 40.6191 41.2949 40.4945L38.1857 38.2584C38.1467 38.2305 38.1141 38.1946 38.0901 38.153C38.0661 38.1114 38.0513 38.0652 38.0467 38.0174C38.0421 37.9697 38.0478 37.9215 38.0633 37.8761C38.0789 37.8307 38.104 37.7891 38.137 37.7543L41.6663 33.9905C41.7025 33.9518 41.7473 33.9222 41.7971 33.9041C41.8469 33.886 41.9003 33.8799 41.9529 33.8864C42.0055 33.8929 42.0558 33.9117 42.0998 33.9413C42.1437 33.9709 42.18 34.0105 42.2058 34.0569L44.0393 37.366C44.1558 37.5758 44.3264 37.7506 44.5333 37.8722C44.7401 37.9938 44.9758 38.0578 45.2158 38.0576H49.9215C50.1036 38.0578 50.2839 38.021 50.4514 37.9494C50.6189 37.8779 50.7701 37.773 50.8958 37.6412C51.0216 37.5094 51.1192 37.3535 51.1829 37.1828C51.2465 37.0122 51.2748 36.8303 51.266 36.6484C51.2307 35.9249 50.6072 35.3686 49.8837 35.3686Z" fill="white"/>
</svg>
