<svg width="133" height="150" viewBox="0 0 133 150" fill="none" xmlns="http://www.w3.org/2000/svg">
<g filter="url(#filter0_d_1484_445)">
<path fill-rule="evenodd" clip-rule="evenodd" d="M66.0786 11.3157C76.6836 11.3271 86.8508 15.3343 94.3496 22.4582C101.848 29.5821 106.067 39.241 106.079 49.3157C106.079 81.8316 69.715 106.389 68.165 107.417C67.5536 107.824 66.8251 108.042 66.0786 108.042L66.0786 11.3157Z" fill="#E2642E"/>
<path fill-rule="evenodd" clip-rule="evenodd" d="M66.0786 11.3157C55.4736 11.3271 45.3065 15.3343 37.8076 22.4582C30.3088 29.5821 26.0906 39.241 26.0786 49.3157C26.0786 81.8316 62.4423 106.389 63.9923 107.417C64.6037 107.824 65.3321 108.042 66.0786 108.042L66.0786 11.3157Z" fill="#F16F37"/>
<path d="M50.1396 56.3596C51.1296 55.9966 52.1526 55.8151 53.2416 55.8151C55.4526 55.8151 57.3831 56.5081 59.0331 57.8941L53.8521 63.0751C52.1332 61.1387 50.8653 58.8451 50.1396 56.3596ZM71.9526 48.3901C75.2031 50.8156 78.7176 51.4096 82.4796 50.1721C82.5291 50.5186 82.5786 51.1456 82.5786 52.0201C82.5786 53.7196 82.1661 55.6171 81.3906 57.7126C80.6151 59.7916 79.6581 61.4746 78.5361 62.7451L68.0916 52.3336L71.9526 48.3901ZM60.7491 59.6761C62.4981 62.2006 62.8611 64.9561 61.8216 67.9591C59.4786 67.2826 57.3831 66.2266 55.6341 64.7746L60.7491 59.6761ZM66.3921 54.0331L76.8036 64.4776C73.2231 67.6126 69.0156 68.9326 64.2306 68.4211C64.5771 67.3321 64.7586 66.1441 64.7586 64.8571C64.7586 63.8341 64.5276 62.6296 64.0656 61.2601C63.6036 59.8906 63.0591 58.7686 62.4486 57.8941L66.3921 54.0331ZM60.8151 56.1451C59.3115 54.8004 57.4683 53.8931 55.4856 53.5216C53.4726 53.1421 51.5421 53.2576 49.6776 53.8846C49.6281 53.5216 49.5786 52.8946 49.5786 52.0201C49.5786 50.3206 49.9911 48.4231 50.7666 46.3276C51.5421 44.2486 52.4991 42.5656 53.6211 41.2951L64.6101 52.3336L60.8151 56.1451ZM71.9526 44.9746C69.7416 42.2521 69.2301 39.2821 70.4181 36.0811C71.4411 36.3451 72.6126 36.8401 73.9326 37.5991C75.2361 38.3416 76.3086 39.0841 77.1336 39.7936L71.9526 44.9746ZM82.0176 47.6971C81.0276 48.0436 80.0046 48.2251 78.9156 48.2251C77.1171 48.2251 75.3846 47.6971 73.7346 46.6081L78.8331 41.5756C80.2851 43.3906 81.3411 45.4201 82.0176 47.6971ZM66.3921 50.5516L55.3536 39.5626C58.9341 36.4276 63.1416 35.1076 67.9431 35.6191C67.5801 36.7081 67.3986 37.8961 67.3986 39.1831C67.3986 40.3711 67.6626 41.7076 68.2071 43.2091C68.7516 44.6941 69.3786 45.8821 70.2036 46.7566L66.3921 50.5516Z" fill="white"/>
</g>
<defs>
<filter id="filter0_d_1484_445" x="0.0786133" y="0.315674" width="132" height="148.726" filterUnits="userSpaceOnUse" color-interpolation-filters="sRGB">
<feFlood flood-opacity="0" result="BackgroundImageFix"/>
<feColorMatrix in="SourceAlpha" type="matrix" values="0 0 0 0 0 0 0 0 0 0 0 0 0 0 0 0 0 0 127 0" result="hardAlpha"/>
<feOffset dy="15"/>
<feGaussianBlur stdDeviation="13"/>
<feComposite in2="hardAlpha" operator="out"/>
<feColorMatrix type="matrix" values="0 0 0 0 0 0 0 0 0 0 0 0 0 0 0 0 0 0 0.23 0"/>
<feBlend mode="normal" in2="BackgroundImageFix" result="effect1_dropShadow_1484_445"/>
<feBlend mode="normal" in="SourceGraphic" in2="effect1_dropShadow_1484_445" result="shape"/>
</filter>
</defs>
</svg>
