<svg width="122" height="139" viewBox="0 0 122 139" fill="none" xmlns="http://www.w3.org/2000/svg">
<g filter="url(#filter0_d_1289_705)">
<path fill-rule="evenodd" clip-rule="evenodd" d="M61.0785 12.3157C71.6835 12.3271 81.8506 16.3343 89.3495 23.4582C96.8483 30.5821 101.066 40.241 101.078 50.3157C101.078 82.8316 64.7149 107.389 63.1648 108.417C62.5534 108.824 61.825 109.042 61.0785 109.042L61.0785 12.3157Z" fill="#E2642E"/>
<path fill-rule="evenodd" clip-rule="evenodd" d="M61.0785 12.3157C50.4735 12.3271 40.3064 16.3343 32.8075 23.4582C25.3087 30.5821 21.0905 40.241 21.0785 50.3157C21.0785 82.8316 57.4421 107.389 58.9921 108.417C59.6036 108.824 60.332 109.042 61.0785 109.042L61.0785 12.3157Z" fill="#F16F37"/>
<path d="M45.1395 57.3596C46.1295 56.9966 47.1525 56.8151 48.2415 56.8151C50.4525 56.8151 52.383 57.5081 54.033 58.8941L48.852 64.0751C47.1331 62.1387 45.8651 59.8451 45.1395 57.3596ZM66.9525 49.3901C70.203 51.8156 73.7175 52.4096 77.4795 51.1721C77.529 51.5186 77.5785 52.1456 77.5785 53.0201C77.5785 54.7196 77.166 56.6171 76.3905 58.7126C75.615 60.7916 74.658 62.4746 73.536 63.7451L63.0915 53.3336L66.9525 49.3901ZM55.749 60.6761C57.498 63.2006 57.861 65.9561 56.8215 68.9591C54.4785 68.2826 52.383 67.2266 50.634 65.7746L55.749 60.6761ZM61.392 55.0331L71.8035 65.4776C68.223 68.6126 64.0155 69.9326 59.2305 69.4211C59.577 68.3321 59.7585 67.1441 59.7585 65.8571C59.7585 64.8341 59.5275 63.6296 59.0655 62.2601C58.6035 60.8906 58.059 59.7686 57.4485 58.8941L61.392 55.0331ZM55.815 57.1451C54.3113 55.8004 52.4682 54.8931 50.4855 54.5216C48.4725 54.1421 46.542 54.2576 44.6775 54.8846C44.628 54.5216 44.5785 53.8946 44.5785 53.0201C44.5785 51.3206 44.991 49.4231 45.7665 47.3276C46.542 45.2486 47.499 43.5656 48.621 42.2951L59.61 53.3336L55.815 57.1451ZM66.9525 45.9746C64.7415 43.2521 64.23 40.2821 65.418 37.0811C66.441 37.3451 67.6125 37.8401 68.9325 38.5991C70.236 39.3416 71.3085 40.0841 72.1335 40.7936L66.9525 45.9746ZM77.0175 48.6971C76.0275 49.0436 75.0045 49.2251 73.9155 49.2251C72.117 49.2251 70.3845 48.6971 68.7345 47.6081L73.833 42.5756C75.285 44.3906 76.341 46.4201 77.0175 48.6971ZM61.392 51.5516L50.3535 40.5626C53.934 37.4276 58.1415 36.1076 62.943 36.6191C62.58 37.7081 62.3985 38.8961 62.3985 40.1831C62.3985 41.3711 62.6625 42.7076 63.207 44.2091C63.7515 45.6941 64.3785 46.8821 65.2035 47.7566L61.392 51.5516Z" fill="white"/>
</g>
<defs>
<filter id="filter0_d_1289_705" x="0.178492" y="0.415674" width="121.8" height="138.526" filterUnits="userSpaceOnUse" color-interpolation-filters="sRGB">
<feFlood flood-opacity="0" result="BackgroundImageFix"/>
<feColorMatrix in="SourceAlpha" type="matrix" values="0 0 0 0 0 0 0 0 0 0 0 0 0 0 0 0 0 0 127 0" result="hardAlpha"/>
<feOffset dy="9"/>
<feGaussianBlur stdDeviation="10.45"/>
<feComposite in2="hardAlpha" operator="out"/>
<feColorMatrix type="matrix" values="0 0 0 0 0 0 0 0 0 0 0 0 0 0 0 0 0 0 0.25 0"/>
<feBlend mode="normal" in2="BackgroundImageFix" result="effect1_dropShadow_1289_705"/>
<feBlend mode="normal" in="SourceGraphic" in2="effect1_dropShadow_1289_705" result="shape"/>
</filter>
</defs>
</svg>
