<svg width="133" height="150" viewBox="0 0 133 150" fill="none" xmlns="http://www.w3.org/2000/svg">
<g filter="url(#filter0_d_1484_300)">
<path fill-rule="evenodd" clip-rule="evenodd" d="M66.7051 11.3159C77.3101 11.3274 87.4772 15.3346 94.9761 22.4585C102.475 29.5824 106.693 39.2412 106.705 49.3159C106.705 81.8318 70.3414 106.389 68.7914 107.417C68.18 107.824 67.4516 108.042 66.7051 108.042L66.7051 11.3159Z" fill="#CCE04B"/>
<path fill-rule="evenodd" clip-rule="evenodd" d="M66.7051 11.3159C56.1001 11.3274 45.9329 15.3346 38.4341 22.4585C30.9352 29.5824 26.7171 39.2412 26.7051 49.3159C26.7051 81.8318 63.0687 106.389 64.6187 107.417C65.2301 107.824 65.9586 108.042 66.7051 108.042L66.7051 11.3159Z" fill="#D5EA53"/>
<path d="M66.7051 33.0205C69.2002 33.0205 71.6709 33.512 73.9761 34.4668C76.2813 35.4216 78.3759 36.8212 80.1402 38.5855C81.9045 40.3498 83.304 42.4444 84.2589 44.7495C85.2137 47.0547 85.7052 49.5254 85.7052 52.0205C85.7052 57.0597 83.7034 61.8924 80.1402 65.4556C76.577 69.0188 71.7442 71.0206 66.7051 71.0206C64.21 71.0206 61.7393 70.5291 59.4341 69.5743C57.1289 68.6195 55.0344 67.2199 53.2701 65.4556C49.7069 61.8924 47.7051 57.0597 47.7051 52.0205C47.7051 46.9814 49.7069 42.1487 53.2701 38.5855C56.8333 35.0223 61.666 33.0205 66.7051 33.0205ZM67.6551 50.1205C66.8993 50.1205 66.1743 50.4208 65.6399 50.9553C65.1054 51.4898 64.8051 52.2147 64.8051 52.9706C64.8051 53.7264 65.1054 54.4513 65.6399 54.9858C66.1743 55.5203 66.8993 55.8206 67.6551 55.8206C68.411 55.8206 69.1359 55.5203 69.6704 54.9858C70.2049 54.4513 70.5051 53.7264 70.5051 52.9706C70.5051 52.2147 70.2049 51.4898 69.6704 50.9553C69.1359 50.4208 68.411 50.1205 67.6551 50.1205ZM66.7051 38.7205C65.6973 38.7205 64.7307 39.1209 64.0181 39.8335C63.3055 40.5462 62.9051 41.5127 62.9051 42.5205C62.9051 43.5284 63.3055 44.4949 64.0181 45.2075C64.7307 45.9202 65.6973 46.3205 66.7051 46.3205C67.7129 46.3205 68.6795 45.9202 69.3921 45.2075C70.1048 44.4949 70.5051 43.5284 70.5051 42.5205C70.5051 41.5127 70.1048 40.5462 69.3921 39.8335C68.6795 39.1209 67.7129 38.7205 66.7051 38.7205ZM55.1721 45.3705C54.1271 47.1755 54.7541 49.4935 56.5591 50.5385C58.3831 51.6025 60.7011 50.9755 61.7651 49.1705C62.8101 47.3275 62.1831 45.0095 60.3591 43.9645C58.5541 42.9195 56.2551 43.5275 55.1721 45.3705Z" fill="white"/>
</g>
<defs>
<filter id="filter0_d_1484_300" x="0.705078" y="0.315918" width="132" height="148.726" filterUnits="userSpaceOnUse" color-interpolation-filters="sRGB">
<feFlood flood-opacity="0" result="BackgroundImageFix"/>
<feColorMatrix in="SourceAlpha" type="matrix" values="0 0 0 0 0 0 0 0 0 0 0 0 0 0 0 0 0 0 127 0" result="hardAlpha"/>
<feOffset dy="15"/>
<feGaussianBlur stdDeviation="13"/>
<feComposite in2="hardAlpha" operator="out"/>
<feColorMatrix type="matrix" values="0 0 0 0 0 0 0 0 0 0 0 0 0 0 0 0 0 0 0.23 0"/>
<feBlend mode="normal" in2="BackgroundImageFix" result="effect1_dropShadow_1484_300"/>
<feBlend mode="normal" in="SourceGraphic" in2="effect1_dropShadow_1484_300" result="shape"/>
</filter>
</defs>
</svg>
