<svg width="123" height="139" viewBox="0 0 123 139" fill="none" xmlns="http://www.w3.org/2000/svg">
<g filter="url(#filter0_d_1289_874)">
<path fill-rule="evenodd" clip-rule="evenodd" d="M61.7049 12.3159C72.3098 12.3274 82.477 16.3346 89.9758 23.4585C97.4747 30.5824 101.693 40.2412 101.705 50.3159C101.705 82.8318 65.3412 107.389 63.7912 108.417C63.1798 108.824 62.4513 109.042 61.7048 109.042L61.7049 12.3159Z" fill="#CCE04B"/>
<path fill-rule="evenodd" clip-rule="evenodd" d="M61.7048 12.3159C51.0999 12.3274 40.9327 16.3346 33.4339 23.4585C25.935 30.5824 21.7169 40.2412 21.7048 50.3159C21.7048 82.8318 58.0685 107.389 59.6185 108.417C60.2299 108.824 60.9583 109.042 61.7048 109.042L61.7048 12.3159Z" fill="#D5EA53"/>
<path d="M61.7049 34.0205C64.2 34.0205 66.6707 34.512 68.9759 35.4668C71.2811 36.4216 73.3756 37.8212 75.1399 39.5855C76.9043 41.3498 78.3038 43.4444 79.2586 45.7495C80.2135 48.0547 80.7049 50.5254 80.7049 53.0205C80.7049 58.0597 78.7031 62.8924 75.1399 66.4556C71.5767 70.0188 66.744 72.0206 61.7049 72.0206C59.2098 72.0206 56.7391 71.5291 54.4339 70.5743C52.1287 69.6195 50.0341 68.2199 48.2698 66.4556C44.7066 62.8924 42.7048 58.0597 42.7048 53.0205C42.7048 47.9814 44.7066 43.1487 48.2698 39.5855C51.833 36.0223 56.6658 34.0205 61.7049 34.0205ZM62.6549 51.1205C61.899 51.1205 61.1741 51.4208 60.6396 51.9553C60.1051 52.4898 59.8049 53.2147 59.8049 53.9706C59.8049 54.7264 60.1051 55.4513 60.6396 55.9858C61.1741 56.5203 61.899 56.8206 62.6549 56.8206C63.4107 56.8206 64.1357 56.5203 64.6701 55.9858C65.2046 55.4513 65.5049 54.7264 65.5049 53.9706C65.5049 53.2147 65.2046 52.4898 64.6701 51.9553C64.1357 51.4208 63.4107 51.1205 62.6549 51.1205ZM61.7049 39.7205C60.6971 39.7205 59.7305 40.1209 59.0179 40.8335C58.3052 41.5462 57.9049 42.5127 57.9049 43.5205C57.9049 44.5284 58.3052 45.4949 59.0179 46.2075C59.7305 46.9202 60.6971 47.3205 61.7049 47.3205C62.7127 47.3205 63.6792 46.9202 64.3919 46.2075C65.1045 45.4949 65.5049 44.5284 65.5049 43.5205C65.5049 42.5127 65.1045 41.5462 64.3919 40.8335C63.6792 40.1209 62.7127 39.7205 61.7049 39.7205ZM50.1719 46.3705C49.1268 48.1755 49.7538 50.4935 51.5589 51.5385C53.3829 52.6025 55.7009 51.9755 56.7649 50.1705C57.8099 48.3275 57.1829 46.0095 55.3589 44.9645C53.5539 43.9195 51.2549 44.5275 50.1719 46.3705Z" fill="white"/>
</g>
<defs>
<filter id="filter0_d_1289_874" x="0.804834" y="0.415918" width="121.8" height="138.526" filterUnits="userSpaceOnUse" color-interpolation-filters="sRGB">
<feFlood flood-opacity="0" result="BackgroundImageFix"/>
<feColorMatrix in="SourceAlpha" type="matrix" values="0 0 0 0 0 0 0 0 0 0 0 0 0 0 0 0 0 0 127 0" result="hardAlpha"/>
<feOffset dy="9"/>
<feGaussianBlur stdDeviation="10.45"/>
<feComposite in2="hardAlpha" operator="out"/>
<feColorMatrix type="matrix" values="0 0 0 0 0 0 0 0 0 0 0 0 0 0 0 0 0 0 0.25 0"/>
<feBlend mode="normal" in2="BackgroundImageFix" result="effect1_dropShadow_1289_874"/>
<feBlend mode="normal" in="SourceGraphic" in2="effect1_dropShadow_1289_874" result="shape"/>
</filter>
</defs>
</svg>
