<svg width="81" height="98" viewBox="0 0 81 98" fill="none" xmlns="http://www.w3.org/2000/svg">
<path fill-rule="evenodd" clip-rule="evenodd" d="M40.3663 0.768311C50.9713 0.77974 61.1385 4.78697 68.6373 11.9109C76.1362 19.0348 80.3543 28.6936 80.3663 38.7683C80.3663 71.2842 44.0027 95.8417 42.4527 96.8695C41.8413 97.2763 41.1128 97.4946 40.3663 97.4946V0.768311Z" fill="#D7E4F9"/>
<path fill-rule="evenodd" clip-rule="evenodd" d="M40.3663 0.768311C29.7614 0.77974 19.5942 4.78697 12.0953 11.9109C4.5965 19.0348 0.378364 28.6936 0.366333 38.7683C0.366333 71.2842 36.73 95.8417 38.28 96.8695C38.8914 97.2763 39.6198 97.4946 40.3663 97.4946V0.768311Z" fill="#EFF5FF"/>
<path d="M57.0579 45.1778L52.6309 46.3558L48.8309 44.2088V38.7368L52.6309 36.5899L57.0579 37.7679L58.0459 34.1009L54.6829 33.2079L55.5569 29.8449L51.8899 28.8569L50.7119 33.2839L46.9119 35.4309L42.2569 32.6949V28.4009L45.5059 25.1519L42.8079 22.4729L40.357 24.9239L37.906 22.4729L35.208 25.1519L38.457 28.4009V32.6949L33.707 35.4309L29.907 33.2839L28.805 28.8569L25.157 29.8449L26.05 33.2079L22.687 34.1009L23.675 37.7679L28.102 36.5899L31.902 38.7368V44.2278L28.102 46.3748L23.675 45.1968L22.687 48.8638L26.05 49.7568L25.157 53.1008L28.824 54.0888L30.002 49.6618L33.802 47.5148L38.457 50.2508V54.5448L35.208 57.7938L37.906 60.4728L40.357 58.0218L42.8079 60.4728L45.4869 57.7938L42.2569 54.5448V50.2508L47.0069 47.4958L50.8069 49.6428L51.9849 54.0698L55.5569 53.1008L54.6639 49.7378L58.0269 48.8448L57.0579 45.1778ZM35.607 38.7368L40.357 35.9819L45.1069 38.7368V44.2088L40.357 46.9638L35.607 44.2088V38.7368Z" fill="#6877AE"/>
</svg>
