<svg width="123" height="140" viewBox="0 0 123 140" fill="none" xmlns="http://www.w3.org/2000/svg">
<g filter="url(#filter0_d_1289_679)">
<path fill-rule="evenodd" clip-rule="evenodd" d="M61.4825 12.7683C72.0875 12.7797 82.2547 16.787 89.7535 23.9109C97.2524 31.0348 101.471 40.6936 101.483 50.7683C101.483 83.2842 65.1189 107.842 63.5689 108.869C62.9575 109.276 62.2291 109.495 61.4825 109.495V12.7683Z" fill="#E1EBFC"/>
<path fill-rule="evenodd" clip-rule="evenodd" d="M61.4825 12.7683C50.8776 12.7797 40.7104 16.787 33.2116 23.9109C25.7127 31.0348 21.4946 40.6936 21.4825 50.7683C21.4825 83.2842 57.8462 107.842 59.3962 108.869C60.0076 109.276 60.736 109.495 61.4825 109.495V12.7683Z" fill="#EFF5FF"/>
<path d="M78.1741 57.1778L73.7471 58.3558L69.9471 56.2088V50.7368L73.7471 48.5899L78.1741 49.7679L79.1621 46.1009L75.7991 45.2079L76.6731 41.8449L73.0061 40.8569L71.8281 45.2839L68.0281 47.4309L63.3732 44.6949V40.4009L66.6221 37.1519L63.9242 34.4729L61.4732 36.9239L59.0222 34.4729L56.3242 37.1519L59.5732 40.4009V44.6949L54.8232 47.4309L51.0232 45.2839L49.9212 40.8569L46.2732 41.8449L47.1662 45.2079L43.8032 46.1009L44.7912 49.7679L49.2182 48.5899L53.0182 50.7368V56.2278L49.2182 58.3748L44.7912 57.1968L43.8032 60.8638L47.1662 61.7568L46.2732 65.1008L49.9402 66.0888L51.1182 61.6618L54.9182 59.5148L59.5732 62.2508V66.5448L56.3242 69.7938L59.0222 72.4728L61.4732 70.0218L63.9242 72.4728L66.6031 69.7938L63.3732 66.5448V62.2508L68.1231 59.4958L71.9231 61.6428L73.1011 66.0698L76.6731 65.1008L75.7801 61.7378L79.1431 60.8448L78.1741 57.1778ZM56.7232 50.7368L61.4732 47.9819L66.2231 50.7368V56.2088L61.4732 58.9638L56.7232 56.2088V50.7368Z" fill="#6877AE"/>
</g>
<defs>
<filter id="filter0_d_1289_679" x="0.582544" y="0.868311" width="121.8" height="138.526" filterUnits="userSpaceOnUse" color-interpolation-filters="sRGB">
<feFlood flood-opacity="0" result="BackgroundImageFix"/>
<feColorMatrix in="SourceAlpha" type="matrix" values="0 0 0 0 0 0 0 0 0 0 0 0 0 0 0 0 0 0 127 0" result="hardAlpha"/>
<feOffset dy="9"/>
<feGaussianBlur stdDeviation="10.45"/>
<feComposite in2="hardAlpha" operator="out"/>
<feColorMatrix type="matrix" values="0 0 0 0 0 0 0 0 0 0 0 0 0 0 0 0 0 0 0.25 0"/>
<feBlend mode="normal" in2="BackgroundImageFix" result="effect1_dropShadow_1289_679"/>
<feBlend mode="normal" in="SourceGraphic" in2="effect1_dropShadow_1289_679" result="shape"/>
</filter>
</defs>
</svg>
