<svg width="123" height="140" viewBox="0 0 123 140" fill="none" xmlns="http://www.w3.org/2000/svg">
<g filter="url(#filter0_d_1289_809)">
<path fill-rule="evenodd" clip-rule="evenodd" d="M61.8765 12.7686C72.4814 12.78 82.6486 16.7872 90.1474 23.9111C97.6463 31.035 101.864 40.6938 101.876 50.7686C101.876 83.2845 65.5128 107.842 63.9628 108.87C63.3514 109.277 62.623 109.495 61.8765 109.495L61.8765 12.7686Z" fill="#E5F9FD"/>
<path fill-rule="evenodd" clip-rule="evenodd" d="M61.8764 12.7686C51.2715 12.78 41.1043 16.7872 33.6055 23.9111C26.1066 31.035 21.8885 40.6938 21.8765 50.7686C21.8765 83.2845 58.2401 107.842 59.7901 108.87C60.4015 109.277 61.13 109.495 61.8765 109.495L61.8764 12.7686Z" fill="#F7FDFE"/>
<path d="M72.3267 56.6863C71.8854 56.6157 70.1908 56.1214 69.7494 55.9272L66.0954 67.366L60.6408 65.3713L64.5243 55.1858L59.1403 49.0604L63.6417 46.4832C64.4361 48.4779 65.707 50.1549 67.384 51.5318C69.061 52.9087 70.9851 53.7736 73.1387 54.109L75.1158 48.0542L72.5738 47.2246L71.6559 50.049C70.4909 49.5547 69.467 48.8133 68.5844 47.8601C67.7018 46.8892 67.0663 45.7594 66.6779 44.4885L66.0954 42.582C65.8836 41.8759 65.4776 41.311 64.895 40.8874C64.3125 40.4813 63.6417 40.2342 62.9886 40.1813C62.3001 40.1283 61.6293 40.2342 60.9938 40.6049L54.8155 44.1707C54.1623 44.5414 53.6857 45.071 53.3856 45.7418C53.0502 46.4126 52.9796 47.0834 53.0502 47.8071C53.1208 48.5309 53.5092 49.1664 54.0035 49.7136L60.3054 56.2626L57.3221 64.1356L45.0537 59.7402L44.224 62.2292L69.008 71.2672C71.4624 72.123 74.1139 72.2396 76.6339 71.6026C77.6754 71.3202 78.6463 70.9318 79.5289 70.4376L77.5342 68.4781C76.2102 69.0607 74.8334 69.3608 73.4035 69.3608C72.2384 69.3608 71.0734 69.1666 69.9083 68.7782L68.5844 68.284L72.3267 56.6863ZM74.2332 38.469C74.2332 40.4284 72.6621 41.9995 70.7027 41.9995C68.7433 41.9995 67.1722 40.4284 67.1722 38.469C67.1722 36.5095 68.7609 34.9385 70.7027 34.9385C72.6445 34.9385 74.2332 36.5272 74.2332 38.469Z" fill="#42A8BA"/>
</g>
<defs>
<filter id="filter0_d_1289_809" x="0.976465" y="0.868555" width="121.8" height="138.526" filterUnits="userSpaceOnUse" color-interpolation-filters="sRGB">
<feFlood flood-opacity="0" result="BackgroundImageFix"/>
<feColorMatrix in="SourceAlpha" type="matrix" values="0 0 0 0 0 0 0 0 0 0 0 0 0 0 0 0 0 0 127 0" result="hardAlpha"/>
<feOffset dy="9"/>
<feGaussianBlur stdDeviation="10.45"/>
<feComposite in2="hardAlpha" operator="out"/>
<feColorMatrix type="matrix" values="0 0 0 0 0 0 0 0 0 0 0 0 0 0 0 0 0 0 0.25 0"/>
<feBlend mode="normal" in2="BackgroundImageFix" result="effect1_dropShadow_1289_809"/>
<feBlend mode="normal" in="SourceGraphic" in2="effect1_dropShadow_1289_809" result="shape"/>
</filter>
</defs>
</svg>
