<svg width="81" height="98" viewBox="0 0 81 98" fill="none" xmlns="http://www.w3.org/2000/svg">
<path fill-rule="evenodd" clip-rule="evenodd" d="M40.3664 0.768555C50.9713 0.779991 61.1385 4.78722 68.6373 11.9111C76.1362 19.035 80.3543 28.6938 80.3663 38.7686C80.3663 71.2845 44.0027 95.842 42.4527 96.8697C41.8413 97.2766 41.1128 97.4949 40.3663 97.4949L40.3664 0.768555Z" fill="#E0F2F5"/>
<path fill-rule="evenodd" clip-rule="evenodd" d="M40.3663 0.768555C29.7614 0.779991 19.5942 4.78722 12.0953 11.9111C4.5965 19.035 0.378364 28.6938 0.366333 38.7686C0.366333 71.2845 36.73 95.842 38.28 96.8697C38.8914 97.2766 39.6198 97.4949 40.3663 97.4949L40.3663 0.768555Z" fill="#F7FDFE"/>
<path d="M50.8166 44.6863C50.3753 44.6157 48.6806 44.1214 48.2393 43.9272L44.5853 55.366L39.1307 53.3713L43.0142 43.1858L37.6302 37.0604L42.1316 34.4832C42.9259 36.4779 44.1969 38.1549 45.8739 39.5318C47.5509 40.9087 49.475 41.7736 51.6286 42.109L53.6057 36.0542L51.0637 35.2246L50.1458 38.049C48.9807 37.5547 47.9569 36.8133 47.0743 35.8601C46.1916 34.8892 45.5561 33.7594 45.1678 32.4885L44.5853 30.582C44.3734 29.8759 43.9674 29.311 43.3849 28.8874C42.8024 28.4813 42.1316 28.2342 41.4784 28.1813C40.79 28.1283 40.1192 28.2342 39.4837 28.6049L33.3053 32.1707C32.6522 32.5414 32.1756 33.071 31.8755 33.7418C31.5401 34.4126 31.4695 35.0834 31.5401 35.8071C31.6107 36.5309 31.9991 37.1664 32.4933 37.7136L38.7953 44.2626L35.812 52.1356L23.5435 47.7402L22.7139 50.2292L47.4979 59.2672C49.9522 60.123 52.6038 60.2396 55.1238 59.6026C56.1653 59.3202 57.1362 58.9318 58.0188 58.4376L56.0241 56.4781C54.7001 57.0607 53.3232 57.3608 51.8934 57.3608C50.7283 57.3608 49.5632 57.1666 48.3982 56.7782L47.0743 56.284L50.8166 44.6863ZM52.723 26.469C52.723 28.4284 51.152 29.9995 49.1925 29.9995C47.2331 29.9995 45.6621 28.4284 45.6621 26.469C45.6621 24.5095 47.2508 22.9385 49.1925 22.9385C51.1343 22.9385 52.723 24.5272 52.723 26.469Z" fill="#B8D4D9"/>
</svg>
