<svg width="123" height="140" viewBox="0 0 123 140" fill="none" xmlns="http://www.w3.org/2000/svg">
<g filter="url(#filter0_d_1295_172)">
<path fill-rule="evenodd" clip-rule="evenodd" d="M61.6947 12.6736C72.2997 12.685 82.4668 16.6922 89.9657 23.8161C97.4645 30.9401 101.683 40.5989 101.695 50.6736C101.695 83.1895 65.3311 107.747 63.7811 108.775C63.1696 109.182 62.4412 109.4 61.6947 109.4L61.6947 12.6736Z" fill="#4E5D91"/>
<path fill-rule="evenodd" clip-rule="evenodd" d="M61.6947 12.6736C51.0897 12.685 40.9226 16.6922 33.4237 23.8161C25.9249 30.9401 21.7067 40.5989 21.6947 50.6736C21.6947 83.1895 58.0583 107.747 59.6083 108.775C60.2198 109.182 60.9482 109.4 61.6947 109.4L61.6947 12.6736Z" fill="#5768A3"/>
<path d="M47.8143 63.0041C44.2402 63.666 44.3808 60.8117 45.3736 59.6948L53.0679 54.8548C54.5571 54.1516 57.3149 56.082 58.611 56.8818C56.0463 48.1947 58.1974 45.2577 58.611 43.6444C58.8504 42.7109 62.5823 37.8944 66.3053 35.371L76.8125 34.3782C79.915 35.9088 78.4258 38.3494 76.8125 38.9285L68.3736 40.0868L64.4024 46.6228C64.4024 49.2122 64.4024 51.5452 65.4447 53.2327C66.9447 56.5452 68.1386 57.4121 68.87 59.1156C70.3262 64.8077 65.478 65.8584 63.0787 64.5761L53.7297 59.1156L47.8143 63.0041Z" fill="#F8F8F8"/>
<circle cx="71.8485" cy="68.3242" r="4.05396" fill="#F8F8F8"/>
<path d="M69.0114 40.866L68.2716 42.1401L76.1322 43.3264C78.1707 42.8003 77.9982 40.4177 77.601 39.7327L69.0114 40.866Z" fill="#F8F8F8"/>
</g>
<defs>
<filter id="filter0_d_1295_172" x="0.794703" y="0.773584" width="121.8" height="138.526" filterUnits="userSpaceOnUse" color-interpolation-filters="sRGB">
<feFlood flood-opacity="0" result="BackgroundImageFix"/>
<feColorMatrix in="SourceAlpha" type="matrix" values="0 0 0 0 0 0 0 0 0 0 0 0 0 0 0 0 0 0 127 0" result="hardAlpha"/>
<feOffset dy="9"/>
<feGaussianBlur stdDeviation="10.45"/>
<feComposite in2="hardAlpha" operator="out"/>
<feColorMatrix type="matrix" values="0 0 0 0 0 0 0 0 0 0 0 0 0 0 0 0 0 0 0.25 0"/>
<feBlend mode="normal" in2="BackgroundImageFix" result="effect1_dropShadow_1295_172"/>
<feBlend mode="normal" in="SourceGraphic" in2="effect1_dropShadow_1295_172" result="shape"/>
</filter>
</defs>
</svg>
