<svg width="81" height="98" viewBox="0 0 81 98" fill="none" xmlns="http://www.w3.org/2000/svg">
<path fill-rule="evenodd" clip-rule="evenodd" d="M40.6947 0.673584C51.2997 0.685021 61.4668 4.69225 68.9657 11.8161C76.4645 18.9401 80.6827 28.5989 80.6947 38.6736C80.6947 71.1895 44.3311 95.747 42.7811 96.7747C42.1696 97.1816 41.4412 97.3999 40.6947 97.3999L40.6947 0.673584Z" fill="#414F7E"/>
<path fill-rule="evenodd" clip-rule="evenodd" d="M40.6947 0.673584C30.0897 0.685021 19.9226 4.69225 12.4237 11.8161C4.92487 18.9401 0.706733 28.5989 0.694702 38.6736C0.694702 71.1895 37.0583 95.747 38.6083 96.7747C39.2198 97.1816 39.9482 97.3999 40.6947 97.3999L40.6947 0.673584Z" fill="#5768A3"/>
<path d="M26.8143 51.0041C23.2402 51.666 23.3808 48.8117 24.3736 47.6948L32.0679 42.8548C33.5571 42.1516 36.3149 44.082 37.611 44.8818C35.0463 36.1947 37.1974 33.2577 37.611 31.6444C37.8504 30.7109 41.5823 25.8944 45.3053 23.371L55.8125 22.3782C58.915 23.9088 57.4258 26.3494 55.8125 26.9285L47.3736 28.0868L43.4024 34.6228C43.4024 37.2122 43.4024 39.5452 44.4447 41.2327C45.9447 44.5452 47.1386 45.4121 47.87 47.1156C49.3262 52.8077 44.478 53.8584 42.0787 52.5761L32.7297 47.1156L26.8143 51.0041Z" fill="#F8F8F8"/>
<circle cx="50.8485" cy="56.3242" r="4.05396" fill="#F8F8F8"/>
<path d="M48.0114 28.866L47.2716 30.1401L55.1322 31.3264C57.1707 30.8003 56.9982 28.4177 56.601 27.7327L48.0114 28.866Z" fill="#F8F8F8"/>
</svg>
