<svg width="122" height="140" viewBox="0 0 122 140" fill="none" xmlns="http://www.w3.org/2000/svg">
<g filter="url(#filter0_d_1289_692)">
<path fill-rule="evenodd" clip-rule="evenodd" d="M60.9069 12.7683C71.5118 12.7797 81.679 16.787 89.1778 23.9109C96.6767 31.0348 100.895 40.6936 100.907 50.7683C100.907 83.2842 64.5432 107.842 62.9932 108.869C62.3818 109.276 61.6534 109.495 60.9069 109.495L60.9069 12.7683Z" fill="#84D752"/>
<path fill-rule="evenodd" clip-rule="evenodd" d="M60.9068 12.7683C50.3019 12.7797 40.1347 16.787 32.6359 23.9109C25.137 31.0348 20.9189 40.6936 20.9069 50.7683C20.9069 83.2842 57.2705 107.842 58.8205 108.869C59.4319 109.276 60.1603 109.495 60.9069 109.495L60.9068 12.7683Z" fill="#94E363"/>
<path d="M69.0547 61.9348L67.7326 59.6871L70.1455 52.4647L72.4758 51.688L74.1285 52.9275V53.1589C74.1285 53.2746 74.1781 53.3737 74.1781 53.4729C74.1781 56.7287 73.0873 59.6045 70.9223 62.0835L69.0547 61.9348ZM57.1883 58.431L54.9241 51.7706L60.9069 47.5727L66.8897 51.7706L64.6255 58.431H57.1883ZM60.9069 66.7442C59.4525 66.7442 58.0807 66.5128 56.7751 66.05L55.6347 63.5544L56.7255 61.7365H65.1709L66.179 63.5544L65.0386 66.05C63.733 66.5128 62.3612 66.7442 60.9069 66.7442ZM50.8914 62.0835C50.0155 61.0588 49.2553 59.6871 48.6107 58.0179C47.9661 56.3321 47.6356 54.8116 47.6356 53.4729C47.6356 53.3737 47.6852 53.2746 47.6852 53.1589V52.9275L49.3379 51.688L51.6682 52.4647L54.0812 59.6871L52.759 61.9348L50.8914 62.0835ZM59.2542 42.3832V44.697L52.6433 49.275L50.4287 48.5809L49.7345 46.3332C50.4617 45.2094 51.536 44.0855 52.9573 42.9947C54.3787 41.9039 55.7339 41.1933 57.023 40.8297L59.2542 42.3832ZM64.7907 40.8297C66.0798 41.1933 67.4351 41.9039 68.8564 42.9947C70.2777 44.0855 71.352 45.2094 72.0792 46.3332L71.385 48.5809L69.1704 49.2915L62.5596 44.7135V42.3832L64.7907 40.8297ZM49.2222 41.7882C46.0325 45.0276 44.3798 48.9279 44.3798 53.4729C44.3798 58.0179 46.0325 61.9182 49.2222 65.1576C52.4119 68.3969 56.3619 70 60.9069 70C65.4518 70 69.3522 68.3473 72.5915 65.1576C75.8308 61.9678 77.434 58.0179 77.434 53.4729C77.434 48.9279 75.7812 45.0276 72.5915 41.7882C69.4018 38.5489 65.4518 36.9458 60.9069 36.9458C56.3619 36.9458 52.4615 38.5985 49.2222 41.7882Z" fill="white"/>
</g>
<defs>
<filter id="filter0_d_1289_692" x="0.00686073" y="0.868311" width="121.8" height="138.526" filterUnits="userSpaceOnUse" color-interpolation-filters="sRGB">
<feFlood flood-opacity="0" result="BackgroundImageFix"/>
<feColorMatrix in="SourceAlpha" type="matrix" values="0 0 0 0 0 0 0 0 0 0 0 0 0 0 0 0 0 0 127 0" result="hardAlpha"/>
<feOffset dy="9"/>
<feGaussianBlur stdDeviation="10.45"/>
<feComposite in2="hardAlpha" operator="out"/>
<feColorMatrix type="matrix" values="0 0 0 0 0 0 0 0 0 0 0 0 0 0 0 0 0 0 0.25 0"/>
<feBlend mode="normal" in2="BackgroundImageFix" result="effect1_dropShadow_1289_692"/>
<feBlend mode="normal" in="SourceGraphic" in2="effect1_dropShadow_1289_692" result="shape"/>
</filter>
</defs>
</svg>
