<svg width="133" height="150" viewBox="0 0 133 150" fill="none" xmlns="http://www.w3.org/2000/svg">
<g filter="url(#filter0_d_1484_169)">
<path fill-rule="evenodd" clip-rule="evenodd" d="M66.9068 11.7683C77.5117 11.7797 87.6789 15.787 95.1777 22.9109C102.677 30.0348 106.895 39.6936 106.907 49.7683C106.907 82.2842 70.5431 106.842 68.9931 107.869C68.3817 108.276 67.6533 108.495 66.9067 108.495L66.9068 11.7683Z" fill="#84D752"/>
<path fill-rule="evenodd" clip-rule="evenodd" d="M66.9067 11.7683C56.3018 11.7797 46.1346 15.787 38.6358 22.9109C31.1369 30.0348 26.9188 39.6936 26.9067 49.7683C26.9067 82.2842 63.2704 106.842 64.8204 107.869C65.4318 108.276 66.1602 108.495 66.9067 108.495L66.9067 11.7683Z" fill="#94E363"/>
<path d="M75.0544 60.9348L73.7322 58.6871L76.1451 51.4647L78.4755 50.688L80.1282 51.9275V52.1589C80.1282 52.2746 80.1778 52.3737 80.1778 52.4729C80.1778 55.7287 79.087 58.6045 76.9219 61.0835L75.0544 60.9348ZM63.1879 57.431L60.9237 50.7706L66.9065 46.5727L72.8893 50.7706L70.6251 57.431H63.1879ZM66.9065 65.7442C65.4521 65.7442 64.0804 65.5128 62.7747 65.05L61.6343 62.5544L62.7251 60.7365H71.1705L72.1786 62.5544L71.0383 65.05C69.7326 65.5128 68.3609 65.7442 66.9065 65.7442ZM56.8911 61.0835C56.0151 60.0588 55.2549 58.6871 54.6103 57.0179C53.9658 55.3321 53.6352 53.8116 53.6352 52.4729C53.6352 52.3737 53.6848 52.2746 53.6848 52.1589V51.9275L55.3375 50.688L57.6678 51.4647L60.0808 58.6871L58.7586 60.9348L56.8911 61.0835ZM65.2538 41.3832V43.697L58.6429 48.275L56.4283 47.5809L55.7342 45.3332C56.4614 44.2094 57.5356 43.0855 58.957 41.9947C60.3783 40.9039 61.7335 40.1933 63.0226 39.8297L65.2538 41.3832ZM70.7904 39.8297C72.0795 40.1933 73.4347 40.9039 74.856 41.9947C76.2774 43.0855 77.3516 44.2094 78.0788 45.3332L77.3847 47.5809L75.17 48.2915L68.5592 43.7135V41.3832L70.7904 39.8297ZM55.2218 40.7882C52.0321 44.0276 50.3794 47.9279 50.3794 52.4729C50.3794 57.0179 52.0321 60.9182 55.2218 64.1576C58.4116 67.3969 62.3615 69 66.9065 69C71.4514 69 75.3518 67.3473 78.5912 64.1576C81.8305 60.9678 83.4336 57.0179 83.4336 52.4729C83.4336 47.9279 81.7809 44.0276 78.5912 40.7882C75.4014 37.5489 71.4514 35.9458 66.9065 35.9458C62.3615 35.9458 58.4611 37.5985 55.2218 40.7882Z" fill="white"/>
</g>
<defs>
<filter id="filter0_d_1484_169" x="0.906738" y="0.768311" width="132" height="148.726" filterUnits="userSpaceOnUse" color-interpolation-filters="sRGB">
<feFlood flood-opacity="0" result="BackgroundImageFix"/>
<feColorMatrix in="SourceAlpha" type="matrix" values="0 0 0 0 0 0 0 0 0 0 0 0 0 0 0 0 0 0 127 0" result="hardAlpha"/>
<feOffset dy="15"/>
<feGaussianBlur stdDeviation="13"/>
<feComposite in2="hardAlpha" operator="out"/>
<feColorMatrix type="matrix" values="0 0 0 0 0 0 0 0 0 0 0 0 0 0 0 0 0 0 0.23 0"/>
<feBlend mode="normal" in2="BackgroundImageFix" result="effect1_dropShadow_1484_169"/>
<feBlend mode="normal" in="SourceGraphic" in2="effect1_dropShadow_1484_169" result="shape"/>
</filter>
</defs>
</svg>
