<svg width="81" height="98" viewBox="0 0 81 98" fill="none" xmlns="http://www.w3.org/2000/svg">
<path fill-rule="evenodd" clip-rule="evenodd" d="M40.214 0.315918C50.819 0.327355 60.9861 4.33458 68.485 11.4585C75.9838 18.5824 80.202 28.2412 80.214 38.3159C80.214 70.8318 43.8503 95.3893 42.3003 96.4171C41.6889 96.8239 40.9605 97.0422 40.214 97.0422L40.214 0.315918Z" fill="#2D80BC"/>
<path fill-rule="evenodd" clip-rule="evenodd" d="M40.214 0.315918C29.609 0.327355 19.4418 4.33458 11.943 11.4585C4.44416 18.5824 0.22602 28.2412 0.213989 38.3159C0.213989 70.8318 36.5776 95.3893 38.1276 96.4171C38.739 96.8239 39.4675 97.0422 40.214 97.0422L40.214 0.315918Z" fill="#3CA5F1"/>
<path d="M53.25 45.7327C55.8888 45.7327 57.9622 47.8061 57.9622 50.445C57.9622 53.0838 55.8888 55.1572 53.25 55.1572C50.6112 55.1572 48.5378 53.0838 48.5378 50.445C48.5378 47.8061 50.6112 45.7327 53.25 45.7327ZM35.0396 46.6752C35.0396 46.6752 36.9244 48.5601 36.9244 50.445V57.0421C36.9244 58.55 38.2439 59.8694 39.7518 59.8694C41.2597 59.8694 42.5791 58.55 42.5791 57.0421V50.445C42.5791 48.5601 44.464 46.6752 44.464 46.6752H35.0396ZM36.9244 44.7903H42.5791C42.5791 44.7903 52.0036 44.7903 52.0036 35.3659C52.0036 25.9414 44.464 22.1716 39.7518 22.1716C35.0396 22.1716 27.5 25.9414 27.5 35.3659C27.5 44.7903 36.9244 44.7903 36.9244 44.7903Z" fill="white"/>
</svg>
