<svg width="133" height="149" viewBox="0 0 133 149" fill="none" xmlns="http://www.w3.org/2000/svg">
<g filter="url(#filter0_d_1484_196)">
<path fill-rule="evenodd" clip-rule="evenodd" d="M66.1089 11.042C76.7139 11.0534 86.881 15.0607 94.3799 22.1846C101.879 29.3085 106.097 38.9673 106.109 49.042C106.109 81.5579 69.7452 106.115 68.1952 107.143C67.5838 107.55 66.8554 107.768 66.1089 107.768V11.042Z" fill="#5F8FDE"/>
<path fill-rule="evenodd" clip-rule="evenodd" d="M66.1089 11.042C55.5039 11.0534 45.3368 15.0607 37.8379 22.1846C30.3391 29.3085 26.1209 38.9673 26.1089 49.042C26.1089 81.5579 62.4725 106.115 64.0225 107.143C64.6339 107.55 65.3624 107.768 66.1089 107.768V11.042Z" fill="#6E9DEB"/>
<path d="M47.1089 62.9852C51.3269 61.0852 55.5449 59.1851 59.7819 59.1851C63.9999 59.1851 68.2179 62.9852 72.4359 62.9852C76.6729 62.9852 80.891 59.1851 85.109 59.1851V64.8852C80.891 64.8852 76.6729 68.6852 72.4359 68.6852C68.2179 68.6852 63.9999 64.8852 59.7819 64.8852C55.5449 64.8852 51.3269 66.7852 47.1089 68.6852V62.9852ZM59.7819 53.4851C58.2999 53.4851 56.8369 53.7131 55.3739 54.0931L64.7219 47.5571L62.7459 45.2011C62.4799 44.8781 62.3089 44.4411 62.3089 43.9851C62.3089 43.3391 62.6319 42.7501 63.1449 42.4081L74.0129 34.8081L76.1979 37.9051L67.0019 44.3461L76.9389 56.1831C75.4379 56.8101 73.9369 57.2851 72.4359 57.2851C68.2179 57.2851 63.9999 53.4851 59.7819 53.4851ZM77.5089 42.0851C78.5168 42.0851 79.4833 42.4855 80.196 43.1981C80.9086 43.9108 81.309 44.8773 81.309 45.8851C81.309 46.8929 80.9086 47.8595 80.196 48.5721C79.4833 49.2848 78.5168 49.6851 77.5089 49.6851C76.5011 49.6851 75.5346 49.2848 74.8219 48.5721C74.1093 47.8595 73.7089 46.8929 73.7089 45.8851C73.7089 44.8773 74.1093 43.9108 74.8219 43.1981C75.5346 42.4855 76.5011 42.0851 77.5089 42.0851Z" fill="white"/>
</g>
<defs>
<filter id="filter0_d_1484_196" x="0.108887" y="0.0419922" width="132" height="148.726" filterUnits="userSpaceOnUse" color-interpolation-filters="sRGB">
<feFlood flood-opacity="0" result="BackgroundImageFix"/>
<feColorMatrix in="SourceAlpha" type="matrix" values="0 0 0 0 0 0 0 0 0 0 0 0 0 0 0 0 0 0 127 0" result="hardAlpha"/>
<feOffset dy="15"/>
<feGaussianBlur stdDeviation="13"/>
<feComposite in2="hardAlpha" operator="out"/>
<feColorMatrix type="matrix" values="0 0 0 0 0 0 0 0 0 0 0 0 0 0 0 0 0 0 0.23 0"/>
<feBlend mode="normal" in2="BackgroundImageFix" result="effect1_dropShadow_1484_196"/>
<feBlend mode="normal" in="SourceGraphic" in2="effect1_dropShadow_1484_196" result="shape"/>
</filter>
</defs>
</svg>
