<svg width="122" height="139" viewBox="0 0 122 139" fill="none" xmlns="http://www.w3.org/2000/svg">
<g filter="url(#filter0_d_1289_666)">
<path fill-rule="evenodd" clip-rule="evenodd" d="M61.1089 12.042C71.7139 12.0534 81.881 16.0607 89.3799 23.1846C96.8787 30.3085 101.097 39.9673 101.109 50.042C101.109 82.5579 64.7452 107.115 63.1952 108.143C62.5838 108.55 61.8554 108.768 61.1089 108.768V12.042Z" fill="#5F8FDE"/>
<path fill-rule="evenodd" clip-rule="evenodd" d="M61.1089 12.042C50.5039 12.0534 40.3368 16.0607 32.8379 23.1846C25.3391 30.3085 21.1209 39.9673 21.1089 50.042C21.1089 82.5579 57.4725 107.115 59.0225 108.143C59.6339 108.55 60.3624 108.768 61.1089 108.768V12.042Z" fill="#6E9DEB"/>
<path d="M42.1089 63.9852C46.3269 62.0852 50.5449 60.1851 54.7819 60.1851C58.9999 60.1851 63.2179 63.9852 67.4359 63.9852C71.6729 63.9852 75.891 60.1851 80.109 60.1851V65.8852C75.891 65.8852 71.6729 69.6852 67.4359 69.6852C63.2179 69.6852 58.9999 65.8852 54.7819 65.8852C50.5449 65.8852 46.3269 67.7852 42.1089 69.6852V63.9852ZM54.7819 54.4851C53.2999 54.4851 51.8369 54.7131 50.3739 55.0931L59.7219 48.5571L57.7459 46.2011C57.4799 45.8781 57.3089 45.4411 57.3089 44.9851C57.3089 44.3391 57.6319 43.7501 58.1449 43.4081L69.0129 35.8081L71.1979 38.9051L62.0019 45.3461L71.9389 57.1831C70.4379 57.8101 68.9369 58.2851 67.4359 58.2851C63.2179 58.2851 58.9999 54.4851 54.7819 54.4851ZM72.5089 43.0851C73.5168 43.0851 74.4833 43.4855 75.196 44.1981C75.9086 44.9108 76.309 45.8773 76.309 46.8851C76.309 47.8929 75.9086 48.8595 75.196 49.5721C74.4833 50.2848 73.5168 50.6851 72.5089 50.6851C71.5011 50.6851 70.5346 50.2848 69.8219 49.5721C69.1093 48.8595 68.7089 47.8929 68.7089 46.8851C68.7089 45.8773 69.1093 44.9108 69.8219 44.1981C70.5346 43.4855 71.5011 43.0851 72.5089 43.0851Z" fill="white"/>
</g>
<defs>
<filter id="filter0_d_1289_666" x="0.208887" y="0.141993" width="121.8" height="138.526" filterUnits="userSpaceOnUse" color-interpolation-filters="sRGB">
<feFlood flood-opacity="0" result="BackgroundImageFix"/>
<feColorMatrix in="SourceAlpha" type="matrix" values="0 0 0 0 0 0 0 0 0 0 0 0 0 0 0 0 0 0 127 0" result="hardAlpha"/>
<feOffset dy="9"/>
<feGaussianBlur stdDeviation="10.45"/>
<feComposite in2="hardAlpha" operator="out"/>
<feColorMatrix type="matrix" values="0 0 0 0 0 0 0 0 0 0 0 0 0 0 0 0 0 0 0.25 0"/>
<feBlend mode="normal" in2="BackgroundImageFix" result="effect1_dropShadow_1289_666"/>
<feBlend mode="normal" in="SourceGraphic" in2="effect1_dropShadow_1289_666" result="shape"/>
</filter>
</defs>
</svg>
