<svg width="81" height="98" viewBox="0 0 81 98" fill="none" xmlns="http://www.w3.org/2000/svg">
<path fill-rule="evenodd" clip-rule="evenodd" d="M40.3664 0.768555C50.9713 0.779991 61.1385 4.78722 68.6373 11.9111C76.1362 19.035 80.3543 28.6938 80.3663 38.7686C80.3663 71.2845 44.0027 95.842 42.4527 96.8697C41.8413 97.2766 41.1128 97.4949 40.3663 97.4949L40.3664 0.768555Z" fill="#6CC6E2"/>
<path fill-rule="evenodd" clip-rule="evenodd" d="M40.3663 0.768555C29.7614 0.779991 19.5942 4.78722 12.0953 11.9111C4.5965 19.035 0.378364 28.6938 0.366333 38.7686C0.366333 71.2845 36.73 95.842 38.28 96.8697C38.8914 97.2766 39.6198 97.4949 40.3663 97.4949L40.3663 0.768555Z" fill="#85DFFC"/>
<path d="M24.8801 44.0538L38.6917 24.2514V44.0538H24.8801ZM41.2814 44.0538C43.6121 37.5796 43.3014 28.8783 41.2814 22.4731C49.4993 25.1319 55.7836 35.2489 55.8872 44.0538H41.2814ZM56.1289 50.2345C55.4211 51.3394 54.5924 52.289 53.6255 53.1004C52.5034 52.5997 51.502 51.8228 50.7078 50.9596C48.1354 54.2916 42.9388 54.2916 40.3664 50.9596C37.8285 54.2916 32.5974 54.2916 30.0595 50.9596C29.1963 51.8228 28.2467 52.5997 27.1245 53.1004C25.1564 51.4775 23.6716 49.1641 23.1537 46.6435H57.5791C57.3106 47.9164 56.8196 49.132 56.1289 50.2345ZM55.8872 60.4551C54.0572 60.4551 52.3307 60.0235 50.7078 59.1602C47.5312 60.8867 43.5431 60.8867 40.3664 59.1602C37.1897 60.8867 33.2016 60.8867 30.0595 59.1602C27.936 60.3515 25.5017 60.5414 23.1537 60.4551V57.0022C25.588 57.0885 27.936 56.8295 30.0595 55.2757C33.0635 57.4338 37.3279 57.4338 40.3664 55.2757C43.4222 57.4338 47.6693 57.4338 50.7078 55.2757C52.7968 56.8295 55.1621 57.0885 57.5791 57.0022V60.4551H55.8872Z" fill="white"/>
</svg>
