<svg width="123" height="139" viewBox="0 0 123 139" fill="none" xmlns="http://www.w3.org/2000/svg">
<g filter="url(#filter0_d_1289_718)">
<path fill-rule="evenodd" clip-rule="evenodd" d="M61.3008 12.3157C71.9058 12.3271 82.0729 16.3343 89.5718 23.4582C97.0706 30.5821 101.289 40.241 101.301 50.3157C101.301 82.8316 64.9371 107.389 63.3871 108.417C62.7757 108.824 62.0473 109.042 61.3008 109.042L61.3008 12.3157Z" fill="#F0CA77"/>
<path fill-rule="evenodd" clip-rule="evenodd" d="M61.3008 12.3157C50.6958 12.3271 40.5286 16.3343 33.0298 23.4582C25.5309 30.5821 21.3128 40.241 21.3008 50.3157C21.3008 82.8316 57.6644 107.389 59.2144 108.417C59.8258 108.824 60.5543 109.042 61.3008 109.042L61.3008 12.3157Z" fill="#F6D76F" style="mix-blend-mode:darken"/>
<path d="M72.9167 41.2227C70.1117 38.5001 66.7952 36.9326 62.9507 36.5201V42.4932L77.8007 51.0402C77.3387 47.2452 75.7052 43.9452 72.9167 41.2227ZM61.3007 69.5202C66.9767 69.5202 71.4647 67.2432 74.7812 62.6892L69.6497 59.6202L54.8162 68.2002C56.8787 69.0747 59.0567 69.5202 61.3007 69.5202ZM62.9507 52.0467L76.3982 59.7357C77.1242 58.1847 77.6027 56.5512 77.8007 54.8517L62.9507 46.3047V52.0467ZM47.9027 62.6067C48.9917 64.1082 50.1797 65.3292 51.4832 66.2202L66.3167 57.8052L61.3007 54.9177L47.9027 62.6067ZM59.7167 36.5201C58.0007 36.6686 56.3507 37.1141 54.7007 37.8401V54.9177L59.7167 52.0467V36.5201ZM44.8007 53.0202C44.8007 55.3137 45.2957 57.5907 46.2692 59.8182L51.4007 56.7822V39.8201C46.9952 43.1202 44.8007 47.4927 44.8007 53.0202Z" fill="white"/>
</g>
<defs>
<filter id="filter0_d_1289_718" x="0.400782" y="0.415674" width="121.8" height="138.526" filterUnits="userSpaceOnUse" color-interpolation-filters="sRGB">
<feFlood flood-opacity="0" result="BackgroundImageFix"/>
<feColorMatrix in="SourceAlpha" type="matrix" values="0 0 0 0 0 0 0 0 0 0 0 0 0 0 0 0 0 0 127 0" result="hardAlpha"/>
<feOffset dy="9"/>
<feGaussianBlur stdDeviation="10.45"/>
<feComposite in2="hardAlpha" operator="out"/>
<feColorMatrix type="matrix" values="0 0 0 0 0 0 0 0 0 0 0 0 0 0 0 0 0 0 0.25 0"/>
<feBlend mode="normal" in2="BackgroundImageFix" result="effect1_dropShadow_1289_718"/>
<feBlend mode="normal" in="SourceGraphic" in2="effect1_dropShadow_1289_718" result="shape"/>
</filter>
</defs>
</svg>
