<svg width="81" height="98" viewBox="0 0 81 98" fill="none" xmlns="http://www.w3.org/2000/svg">
<path fill-rule="evenodd" clip-rule="evenodd" d="M40.5 0.315674C51.105 0.327111 61.2721 4.33434 68.771 11.4582C76.2698 18.5821 80.488 28.241 80.5 38.3157C80.5 70.8316 44.1364 95.3891 42.5864 96.4168C41.9749 96.8237 41.2465 97.042 40.5 97.042L40.5 0.315674Z" fill="#E9B649"/>
<path fill-rule="evenodd" clip-rule="evenodd" d="M40.5 0.315674C29.895 0.327111 19.7279 4.33434 12.229 11.4582C4.73017 18.5821 0.512031 28.241 0.5 38.3157C0.5 70.8316 36.8636 95.3891 38.4136 96.4168C39.0251 96.8237 39.7535 97.042 40.5 97.042L40.5 0.315674Z" fill="#F6D76F" style="mix-blend-mode:darken"/>
<path d="M52.116 29.2227C49.3109 26.5001 45.9944 24.9326 42.1499 24.5201V30.4932L57 39.0402C56.538 35.2452 54.9045 31.9452 52.116 29.2227ZM40.4999 57.5202C46.1759 57.5202 50.6639 55.2432 53.9805 50.6892L48.8489 47.6202L34.0154 56.2002C36.0779 57.0747 38.2559 57.5202 40.4999 57.5202ZM42.1499 40.0467L55.5975 47.7357C56.3235 46.1847 56.802 44.5512 57 42.8517L42.1499 34.3047V40.0467ZM27.1019 50.6067C28.1909 52.1082 29.3789 53.3292 30.6824 54.2202L45.5159 45.8052L40.4999 42.9177L27.1019 50.6067ZM38.9159 24.5201C37.1999 24.6686 35.5499 25.1141 33.8999 25.8401V42.9177L38.9159 40.0467V24.5201ZM23.9999 41.0202C23.9999 43.3137 24.4949 45.5907 25.4684 47.8182L30.5999 44.7822V27.8201C26.1944 31.1202 23.9999 35.4927 23.9999 41.0202Z" fill="white"/>
</svg>
