<svg width="123" height="139" viewBox="0 0 123 139" fill="none" xmlns="http://www.w3.org/2000/svg">
<g filter="url(#filter0_d_1289_796)">
<path fill-rule="evenodd" clip-rule="evenodd" d="M61.5028 12.042C72.1078 12.0534 82.2749 16.0607 89.7738 23.1846C97.2726 30.3085 101.491 39.9673 101.503 50.042C101.503 82.5579 65.1392 107.115 63.5892 108.143C62.9777 108.55 62.2493 108.768 61.5028 108.768L61.5028 12.042Z" fill="#E3EAF8"/>
<path fill-rule="evenodd" clip-rule="evenodd" d="M61.5028 12.042C50.8978 12.0534 40.7307 16.0607 33.2318 23.1846C25.733 30.3085 21.5148 39.9673 21.5028 50.042C21.5028 82.5579 57.8664 107.115 59.4165 108.143C60.0279 108.55 60.7563 108.768 61.5028 108.768L61.5028 12.042Z" fill="#ECF1FA"/>
<path d="M78.7226 67.8796C78.5299 67.5819 78.2848 67.3892 77.952 67.3367C77.7567 67.2815 77.5508 67.2751 77.3524 67.3178C77.154 67.3605 76.9691 67.4512 76.8138 67.5819C76.2008 68.1072 75.5179 68.51 74.7123 68.7376C73.9243 68.9828 73.1012 68.9828 72.2256 68.8077L70.2643 68.3174L68.4431 57.53L62.7342 52.8543L65.8163 47.8634C66.832 49.457 68.1804 50.7354 69.8965 51.7161C71.6127 52.6967 73.4865 53.2221 75.5004 53.2221V49.6672C73.8542 49.6672 72.4007 49.2294 71.1224 48.3538C69.844 47.4782 68.8984 46.3399 68.303 44.9214L67.3223 42.8025C67.1472 42.4698 66.832 42.0845 66.3767 41.6467C65.9038 41.2089 65.2734 40.9637 64.4503 40.9637H54.5561L50.1256 47.9685L53.1552 49.8248L56.4299 44.4661H60.5627L56.1847 51.3833C55.6418 52.2064 55.4842 53.0995 55.6944 54.0977L57.1654 60.1393L51.0362 64.2371L50.2132 64.062C49.4052 63.9103 48.6473 63.5614 48.0067 63.0463C47.3587 62.5209 46.8684 61.908 46.5532 61.2075C46.378 60.7697 46.0803 60.5246 45.6776 60.472C45.2573 60.3669 44.907 60.4195 44.6093 60.6296C44.3116 60.8398 44.1365 61.1024 44.084 61.4527C44.0314 61.7154 44.049 61.978 44.154 62.2757C44.6619 63.3615 45.3799 64.3071 46.3255 65.0952C47.2887 65.8832 48.3919 66.356 49.6528 66.6012L71.7353 71.3469C72.9962 71.6096 74.2045 71.6096 75.3778 71.2594C76.5511 70.9441 77.6018 70.3662 78.5299 69.5432C78.7401 69.3856 78.8802 69.1754 78.9502 68.8952C78.9502 68.51 78.9502 68.1773 78.7226 67.8796ZM55.7819 65.2878L61.1056 61.7854L60.2825 55.9715L65.2734 59.4914L66.5868 67.5819L55.7819 65.2878ZM71.9454 37.4614C71.9454 39.4052 70.3869 40.9637 68.4431 40.9637C66.4992 40.9637 64.9407 39.4052 64.9407 37.4614C64.9407 35.5175 66.5167 33.959 68.4431 33.959C70.3694 33.959 71.9454 35.5351 71.9454 37.4614Z" fill="#6890B4"/>
</g>
<defs>
<filter id="filter0_d_1289_796" x="0.602808" y="0.141993" width="121.8" height="138.526" filterUnits="userSpaceOnUse" color-interpolation-filters="sRGB">
<feFlood flood-opacity="0" result="BackgroundImageFix"/>
<feColorMatrix in="SourceAlpha" type="matrix" values="0 0 0 0 0 0 0 0 0 0 0 0 0 0 0 0 0 0 127 0" result="hardAlpha"/>
<feOffset dy="9"/>
<feGaussianBlur stdDeviation="10.45"/>
<feComposite in2="hardAlpha" operator="out"/>
<feColorMatrix type="matrix" values="0 0 0 0 0 0 0 0 0 0 0 0 0 0 0 0 0 0 0.25 0"/>
<feBlend mode="normal" in2="BackgroundImageFix" result="effect1_dropShadow_1289_796"/>
<feBlend mode="normal" in="SourceGraphic" in2="effect1_dropShadow_1289_796" result="shape"/>
</filter>
</defs>
</svg>
