<svg width="81" height="97" viewBox="0 0 81 97" fill="none" xmlns="http://www.w3.org/2000/svg">
<path fill-rule="evenodd" clip-rule="evenodd" d="M40.214 0.0419922C50.819 0.0534289 60.9861 4.06066 68.485 11.1846C75.9838 18.3085 80.202 27.9673 80.214 38.042C80.214 70.5579 43.8503 95.1154 42.3003 96.1431C41.6889 96.55 40.9605 96.7683 40.214 96.7683L40.214 0.0419922Z" fill="#E4E2FF"/>
<path fill-rule="evenodd" clip-rule="evenodd" d="M40.214 0.0419922C29.609 0.0534289 19.4418 4.06066 11.943 11.1846C4.44416 18.3085 0.22602 27.9673 0.213989 38.042C0.213989 70.5579 36.5776 95.1154 38.1276 96.1431C38.739 96.55 39.4675 96.7683 40.214 96.7683L40.214 0.0419922Z" fill="#EDECFA"/>
<path d="M57.4337 55.8796C57.2411 55.5819 56.9959 55.3892 56.6632 55.3367C56.4679 55.2815 56.262 55.2751 56.0636 55.3178C55.8652 55.3605 55.6802 55.4512 55.5249 55.5819C54.912 56.1072 54.2291 56.51 53.4235 56.7376C52.6355 56.9828 51.8124 56.9828 50.9368 56.8077L48.9755 56.3174L47.1542 45.53L41.4454 40.8543L44.5275 35.8634C45.5431 37.457 46.8916 38.7354 48.6077 39.7161C50.3239 40.6967 52.1977 41.2221 54.2115 41.2221V37.6672C52.5654 37.6672 51.1119 37.2294 49.8336 36.3538C48.5552 35.4782 47.6095 34.3399 47.0141 32.9214L46.0335 30.8025C45.8584 30.4698 45.5431 30.0845 45.0878 29.6467C44.615 29.2089 43.9846 28.9637 43.1615 28.9637H33.2673L28.8368 35.9685L31.8663 37.8248L35.1411 32.4661H39.2739L34.8959 39.3833C34.353 40.2064 34.1954 41.0995 34.4056 42.0977L35.8766 48.1393L29.7474 52.2371L28.9243 52.062C28.1164 51.9103 27.3585 51.5614 26.7178 51.0463C26.0699 50.5209 25.5796 49.908 25.2643 49.2075C25.0892 48.7697 24.7915 48.5246 24.3888 48.472C23.9685 48.3669 23.6182 48.4195 23.3205 48.6296C23.0228 48.8398 22.8477 49.1024 22.7952 49.4527C22.7426 49.7154 22.7601 49.978 22.8652 50.2757C23.3731 51.3615 24.091 52.3071 25.0367 53.0952C25.9998 53.8832 27.1031 54.356 28.364 54.6012L50.4465 59.3469C51.7073 59.6096 52.9157 59.6096 54.089 59.2594C55.2623 58.9441 56.313 58.3662 57.2411 57.5432C57.4512 57.3856 57.5913 57.1754 57.6614 56.8952C57.6614 56.51 57.6614 56.1773 57.4337 55.8796ZM34.4931 53.2878L39.8167 49.7854L38.9937 43.9715L43.9846 47.4914L45.298 55.5819L34.4931 53.2878ZM50.6566 25.4614C50.6566 27.4052 49.0981 28.9637 47.1542 28.9637C45.2104 28.9637 43.6519 27.4052 43.6519 25.4614C43.6519 23.5175 45.2279 21.959 47.1542 21.959C49.0805 21.959 50.6566 23.5351 50.6566 25.4614Z" fill="#AFABDB"/>
</svg>
