<svg width="122" height="139" viewBox="0 0 122 139" fill="none" xmlns="http://www.w3.org/2000/svg">
<g filter="url(#filter0_d_1289_848)">
<path fill-rule="evenodd" clip-rule="evenodd" d="M61.0988 12.3159C71.7037 12.3274 81.8709 16.3346 89.3697 23.4585C96.8686 30.5824 101.087 40.2412 101.099 50.3159C101.099 82.8318 64.7351 107.389 63.1851 108.417C62.5737 108.824 61.8453 109.042 61.0987 109.042L61.0988 12.3159Z" fill="#3BD7CF"/>
<path fill-rule="evenodd" clip-rule="evenodd" d="M61.0987 12.3159C50.4938 12.3274 40.3266 16.3346 32.8278 23.4585C25.3289 30.5824 21.1108 40.2412 21.0988 50.3159C21.0988 82.8318 57.4624 107.389 59.0124 108.417C59.6238 108.824 60.3522 109.042 61.0988 109.042L61.0987 12.3159Z" fill="#41E1D8"/>
<path d="M47.0513 36.902C47.0513 35.4613 48.312 34.0205 49.9329 34.0205C51.5537 34.0205 52.8144 35.2812 52.8144 36.902C52.8144 38.5229 51.3736 39.6035 49.9329 39.6035C48.4921 39.6035 47.0513 38.3428 47.0513 36.902ZM79.1084 37.6224L78.2079 36.0016L63.8002 43.3855L64.7007 45.0063L79.1084 37.6224ZM76.9472 67.1581L78.5681 68.779C77.4875 69.8596 76.4069 70.5799 75.1463 71.1202C73.8856 71.6605 72.4448 72.0207 71.0041 72.0207H43.0892V69.6795H47.9518L51.7338 63.3761L47.5916 57.6131L46.1509 43.5656C46.1509 41.9447 47.5916 40.504 49.2125 40.504C49.7528 40.504 50.2931 40.6841 50.6533 40.8641L56.9566 45.5466L61.0988 44.1059L62.5396 46.9874L56.2362 49.6888C56.0561 49.5087 53.3547 47.5277 51.3736 45.9068L52.094 52.2102L61.6391 60.3145L64.7007 69.6795H71.0041C72.0847 69.6795 73.1652 69.4994 74.2458 68.9591C75.3264 68.5989 76.2269 67.8785 76.9472 67.1581ZM52.094 69.6795H61.0988L58.2173 62.6557L54.0751 59.2339L56.2362 63.7363L52.094 69.6795Z" fill="white"/>
</g>
<defs>
<filter id="filter0_d_1289_848" x="0.198755" y="0.415918" width="121.8" height="138.526" filterUnits="userSpaceOnUse" color-interpolation-filters="sRGB">
<feFlood flood-opacity="0" result="BackgroundImageFix"/>
<feColorMatrix in="SourceAlpha" type="matrix" values="0 0 0 0 0 0 0 0 0 0 0 0 0 0 0 0 0 0 127 0" result="hardAlpha"/>
<feOffset dy="9"/>
<feGaussianBlur stdDeviation="10.45"/>
<feComposite in2="hardAlpha" operator="out"/>
<feColorMatrix type="matrix" values="0 0 0 0 0 0 0 0 0 0 0 0 0 0 0 0 0 0 0.25 0"/>
<feBlend mode="normal" in2="BackgroundImageFix" result="effect1_dropShadow_1289_848"/>
<feBlend mode="normal" in="SourceGraphic" in2="effect1_dropShadow_1289_848" result="shape"/>
</filter>
</defs>
</svg>
