<svg width="123" height="139" viewBox="0 0 123 139" fill="none" xmlns="http://www.w3.org/2000/svg">
<g filter="url(#filter0_d_1289_861)">
<path fill-rule="evenodd" clip-rule="evenodd" d="M61.4724 12.3159C72.0774 12.3274 82.2446 16.3346 89.7434 23.4585C97.2422 30.5824 101.46 40.2412 101.472 50.3159C101.472 82.8318 65.1088 107.389 63.5588 108.417C62.9473 108.824 62.2189 109.042 61.4724 109.042L61.4724 12.3159Z" fill="#E95555"/>
<path fill-rule="evenodd" clip-rule="evenodd" d="M61.4724 12.3159C50.8674 12.3274 40.7003 16.3346 33.2014 23.4585C25.7026 30.5824 21.4844 40.2412 21.4724 50.3159C21.4724 82.8318 57.8361 107.389 59.3861 108.417C59.9975 108.824 60.7259 109.042 61.4724 109.042L61.4724 12.3159Z" fill="#F45B5B"/>
<path d="M72.8296 59.5101V43.2855H77.697V59.5101H72.8296ZM61.4723 40.0405H53.36C53.36 40.0405 45.2477 40.0405 45.2477 46.5304V56.2652C45.2477 59.137 46.8701 60.7432 48.6062 61.6356C48.8679 60.1336 49.6506 58.7718 50.8168 57.7897C51.9829 56.8075 53.4578 56.2677 54.9825 56.2652H59.8499V59.5101H54.9825C54.1219 59.5101 53.2965 59.852 52.688 60.4605C52.0794 61.0691 51.7375 61.8944 51.7375 62.7551C51.7375 63.6157 52.0794 64.441 52.688 65.0496C53.2965 65.6581 54.1219 66 54.9825 66H63.0948C69.5847 66 69.5847 59.5101 69.5847 59.5101V43.2855C69.5847 43.2855 67.9622 40.0405 61.4723 40.0405Z" fill="white"/>
</g>
<defs>
<filter id="filter0_d_1289_861" x="0.572412" y="0.415918" width="121.8" height="138.526" filterUnits="userSpaceOnUse" color-interpolation-filters="sRGB">
<feFlood flood-opacity="0" result="BackgroundImageFix"/>
<feColorMatrix in="SourceAlpha" type="matrix" values="0 0 0 0 0 0 0 0 0 0 0 0 0 0 0 0 0 0 127 0" result="hardAlpha"/>
<feOffset dy="9"/>
<feGaussianBlur stdDeviation="10.45"/>
<feComposite in2="hardAlpha" operator="out"/>
<feColorMatrix type="matrix" values="0 0 0 0 0 0 0 0 0 0 0 0 0 0 0 0 0 0 0.25 0"/>
<feBlend mode="normal" in2="BackgroundImageFix" result="effect1_dropShadow_1289_861"/>
<feBlend mode="normal" in="SourceGraphic" in2="effect1_dropShadow_1289_861" result="shape"/>
</filter>
</defs>
</svg>
