<svg width="123" height="139" viewBox="0 0 123 139" fill="none" xmlns="http://www.w3.org/2000/svg">
<g filter="url(#filter0_d_1295_198)">
<path fill-rule="evenodd" clip-rule="evenodd" d="M61.513 12.042C72.1179 12.0534 82.2851 16.0607 89.7839 23.1846C97.2828 30.3085 101.501 39.9673 101.513 50.042C101.513 82.5579 65.1493 107.115 63.5993 108.143C62.9879 108.55 62.2595 108.768 61.5129 108.768L61.513 12.042Z" fill="#D6873F"/>
<path fill-rule="evenodd" clip-rule="evenodd" d="M61.5129 12.042C50.908 12.0534 40.7408 16.0607 33.242 23.1846C25.7431 30.3085 21.525 39.9673 21.5129 50.042C21.5129 82.5579 57.8766 107.115 59.4266 108.143C60.038 108.55 60.7664 108.768 61.5129 108.768L61.5129 12.042Z" fill="#E09149"/>
<path d="M54.0066 44.1775C54.2886 44.5486 54.5261 44.9346 54.7191 45.3354C54.7043 45.3947 54.7043 45.469 54.734 45.5283C54.3332 46.0627 54.2144 46.7752 54.5113 47.4432L56.3371 51.5549C56.5894 52.1041 57.0793 52.5049 57.673 52.6385C57.8066 52.6682 57.9402 52.683 58.0738 52.683C58.534 52.683 58.9793 52.5197 59.3355 52.1932L62.616 49.2541L63.9222 54.0783L63.2097 60.4463L57.3019 66.6065C56.4707 67.4674 56.5004 68.833 57.3613 69.6643C57.7769 70.065 58.3261 70.2729 58.8605 70.2729C59.4246 70.2729 60.0035 70.0502 60.4191 69.6049L66.8316 62.9252C67.1582 62.5838 67.366 62.1385 67.4254 61.6635L68.0636 55.9932L71.7301 59.526V66.8736C71.7301 68.0611 72.6949 69.0408 73.8972 69.0408C75.0847 69.0408 76.0644 68.076 76.0644 66.8736V58.6205C76.0644 58.0416 75.8269 57.4775 75.3965 57.0619L70.216 52.0447C70.1715 52.0002 70.1269 51.9705 70.0824 51.9408L67.9449 45.6916C67.9746 45.6768 68.0043 45.6619 68.0191 45.6471L72.8136 42.0104C73.6449 41.3869 73.823 40.1994 73.1847 39.3533C72.5613 38.5221 71.3738 38.344 70.5277 38.9822L65.8965 42.4557L61.4879 45.1869V45.2018C61.3988 45.2611 61.2949 45.3205 61.2058 45.3947L58.6972 47.6213L57.9254 45.8846C57.5543 45.0385 56.634 44.608 55.7582 44.8158L55.7433 44.801C55.684 44.7268 55.5949 44.6971 55.5058 44.6971C55.298 44.519 54.9121 44.1479 54.5113 43.6432C54.2886 43.3463 54.0957 43.0494 53.9324 42.7525C53.9027 42.6635 53.591 41.8322 53.2793 40.1104C53.1457 39.3533 53.0121 38.7596 52.8488 38.2697C52.8636 38.2252 52.8488 38.1807 52.834 38.1361C52.8191 38.1213 52.8191 38.1213 52.8043 38.1065C52.5816 37.4682 52.2996 36.9783 51.884 36.4588C51.3793 35.7908 50.6222 35.3455 49.8801 35.2416C49.2121 35.1525 48.5738 35.3455 47.9801 35.8057C47.416 36.2361 47.0746 36.8299 46.9855 37.5127C46.8816 38.2846 47.1191 39.1455 47.5941 39.769C48.3511 40.7486 49.0636 41.2533 50.7707 42.0549C52.448 42.8268 53.1605 43.3611 53.1605 43.3611C53.2496 43.3611 53.6058 43.6432 54.0066 44.1775Z" fill="white"/>
<path d="M58.252 39.5312C58.252 40.5155 58.6429 41.4593 59.3389 42.1553C60.0348 42.8512 60.9787 43.2422 61.9629 43.2422C62.9471 43.2422 63.891 42.8512 64.5869 42.1553C65.2829 41.4593 65.6738 40.5155 65.6738 39.5312C65.6738 38.547 65.2829 37.6032 64.5869 36.9072C63.891 36.2113 62.9471 35.8203 61.9629 35.8203C60.9787 35.8203 60.0348 36.2113 59.3389 36.9072C58.6429 37.6032 58.252 38.547 58.252 39.5312Z" fill="white"/>
</g>
<defs>
<filter id="filter0_d_1295_198" x="0.61294" y="0.141993" width="121.8" height="138.526" filterUnits="userSpaceOnUse" color-interpolation-filters="sRGB">
<feFlood flood-opacity="0" result="BackgroundImageFix"/>
<feColorMatrix in="SourceAlpha" type="matrix" values="0 0 0 0 0 0 0 0 0 0 0 0 0 0 0 0 0 0 127 0" result="hardAlpha"/>
<feOffset dy="9"/>
<feGaussianBlur stdDeviation="10.45"/>
<feComposite in2="hardAlpha" operator="out"/>
<feColorMatrix type="matrix" values="0 0 0 0 0 0 0 0 0 0 0 0 0 0 0 0 0 0 0.25 0"/>
<feBlend mode="normal" in2="BackgroundImageFix" result="effect1_dropShadow_1295_198"/>
<feBlend mode="normal" in="SourceGraphic" in2="effect1_dropShadow_1295_198" result="shape"/>
</filter>
</defs>
</svg>
