<svg width="81" height="97" viewBox="0 0 81 97" fill="none" xmlns="http://www.w3.org/2000/svg">
<path fill-rule="evenodd" clip-rule="evenodd" d="M40.513 0.0419922C51.1179 0.0534289 61.2851 4.06066 68.7839 11.1846C76.2828 18.3085 80.5009 27.9673 80.5129 38.042C80.5129 70.5579 44.1493 95.1154 42.5993 96.1431C41.9879 96.55 41.2595 96.7683 40.5129 96.7683L40.513 0.0419922Z" fill="#C7803F"/>
<path fill-rule="evenodd" clip-rule="evenodd" d="M40.5129 0.0419922C29.908 0.0534289 19.7408 4.06066 12.242 11.1846C4.74311 18.3085 0.52497 27.9673 0.512939 38.042C0.512939 70.5579 36.8766 95.1154 38.4266 96.1431C39.038 96.55 39.7664 96.7683 40.5129 96.7683L40.5129 0.0419922Z" fill="#E09149"/>
<path d="M33.0066 32.1775C33.2886 32.5486 33.5261 32.9346 33.7191 33.3354C33.7043 33.3947 33.7043 33.469 33.734 33.5283C33.3332 34.0627 33.2144 34.7752 33.5113 35.4432L35.3371 39.5549C35.5894 40.1041 36.0793 40.5049 36.673 40.6385C36.8066 40.6682 36.9402 40.683 37.0738 40.683C37.534 40.683 37.9793 40.5197 38.3355 40.1932L41.616 37.2541L42.9222 42.0783L42.2097 48.4463L36.3019 54.6065C35.4707 55.4674 35.5004 56.833 36.3613 57.6643C36.7769 58.065 37.3261 58.2729 37.8605 58.2729C38.4246 58.2729 39.0035 58.0502 39.4191 57.6049L45.8316 50.9252C46.1582 50.5838 46.366 50.1385 46.4254 49.6635L47.0636 43.9932L50.7301 47.526V54.8736C50.7301 56.0611 51.6949 57.0408 52.8972 57.0408C54.0847 57.0408 55.0644 56.076 55.0644 54.8736V46.6205C55.0644 46.0416 54.8269 45.4775 54.3965 45.0619L49.216 40.0447C49.1715 40.0002 49.1269 39.9705 49.0824 39.9408L46.9449 33.6916C46.9746 33.6768 47.0043 33.6619 47.0191 33.6471L51.8136 30.0104C52.6449 29.3869 52.823 28.1994 52.1847 27.3533C51.5613 26.5221 50.3738 26.344 49.5277 26.9822L44.8965 30.4557L40.4879 33.1869V33.2018C40.3988 33.2611 40.2949 33.3205 40.2058 33.3947L37.6972 35.6213L36.9254 33.8846C36.5543 33.0385 35.634 32.608 34.7582 32.8158L34.7433 32.801C34.684 32.7268 34.5949 32.6971 34.5058 32.6971C34.298 32.519 33.9121 32.1479 33.5113 31.6432C33.2886 31.3463 33.0957 31.0494 32.9324 30.7525C32.9027 30.6635 32.591 29.8322 32.2793 28.1104C32.1457 27.3533 32.0121 26.7596 31.8488 26.2697C31.8636 26.2252 31.8488 26.1807 31.834 26.1361C31.8191 26.1213 31.8191 26.1213 31.8043 26.1065C31.5816 25.4682 31.2996 24.9783 30.884 24.4588C30.3793 23.7908 29.6222 23.3455 28.8801 23.2416C28.2121 23.1525 27.5738 23.3455 26.9801 23.8057C26.416 24.2361 26.0746 24.8299 25.9855 25.5127C25.8816 26.2846 26.1191 27.1455 26.5941 27.769C27.3511 28.7486 28.0636 29.2533 29.7707 30.0549C31.448 30.8268 32.1605 31.3611 32.1605 31.3611C32.2496 31.3611 32.6058 31.6432 33.0066 32.1775Z" fill="white"/>
<path d="M37.252 27.5312C37.252 28.5155 37.6429 29.4593 38.3389 30.1553C39.0348 30.8512 39.9787 31.2422 40.9629 31.2422C41.9471 31.2422 42.891 30.8512 43.5869 30.1553C44.2829 29.4593 44.6738 28.5155 44.6738 27.5312C44.6738 26.547 44.2829 25.6032 43.5869 24.9072C42.891 24.2113 41.9471 23.8203 40.9629 23.8203C39.9787 23.8203 39.0348 24.2113 38.3389 24.9072C37.6429 25.6032 37.252 26.547 37.252 27.5312Z" fill="white"/>
</svg>
