<svg width="81" height="97" viewBox="0 0 81 97" fill="none" xmlns="http://www.w3.org/2000/svg">
<path fill-rule="evenodd" clip-rule="evenodd" d="M40.7139 0.0419922C51.3188 0.0534213 61.486 4.06065 68.9849 11.1846C76.4837 18.3085 80.7018 27.9673 80.7139 38.042C80.7139 70.5579 44.3502 95.1154 42.8002 96.1431C42.1888 96.55 41.4604 96.7683 40.7139 96.7683V0.0419922Z" fill="#5A82C4"/>
<path fill-rule="evenodd" clip-rule="evenodd" d="M40.7139 0.0419922C30.1089 0.0534213 19.9417 4.06065 12.4429 11.1846C4.94403 18.3085 0.725898 27.9673 0.713867 38.042C0.713867 70.5579 37.0775 95.1154 38.6275 96.1431C39.2389 96.55 39.9674 96.7683 40.7139 96.7683V0.0419922Z" fill="#6E9DEB"/>
<path d="M21.7139 51.9852C25.9319 50.0852 30.1499 48.1851 34.3869 48.1851C38.6049 48.1851 42.8229 51.9852 47.0409 51.9852C51.2779 51.9852 55.4959 48.1851 59.7139 48.1851V53.8852C55.4959 53.8852 51.2779 57.6852 47.0409 57.6852C42.8229 57.6852 38.6049 53.8852 34.3869 53.8852C30.1499 53.8852 25.9319 55.7852 21.7139 57.6852V51.9852ZM34.3869 42.4851C32.9049 42.4851 31.4419 42.7131 29.9789 43.0931L39.3269 36.5571L37.3509 34.2011C37.0849 33.8781 36.9139 33.4411 36.9139 32.9851C36.9139 32.3391 37.2369 31.7501 37.7499 31.4081L48.6179 23.8081L50.8029 26.9051L41.6069 33.3461L51.5439 45.1831C50.0429 45.8101 48.5419 46.2851 47.0409 46.2851C42.8229 46.2851 38.6049 42.4851 34.3869 42.4851ZM52.1139 31.0851C53.1218 31.0851 54.0883 31.4855 54.8009 32.1981C55.5136 32.9108 55.9139 33.8773 55.9139 34.8851C55.9139 35.8929 55.5136 36.8595 54.8009 37.5721C54.0883 38.2848 53.1218 38.6851 52.1139 38.6851C51.1061 38.6851 50.1396 38.2848 49.4269 37.5721C48.7143 36.8595 48.3139 35.8929 48.3139 34.8851C48.3139 33.8773 48.7143 32.9108 49.4269 32.1981C50.1396 31.4855 51.1061 31.0851 52.1139 31.0851Z" fill="white"/>
</svg>
