<svg width="123" height="139" viewBox="0 0 123 139" fill="none" xmlns="http://www.w3.org/2000/svg">
<g filter="url(#filter0_d_1289_926)">
<path fill-rule="evenodd" clip-rule="evenodd" d="M61.4927 12.3159C72.0977 12.3274 82.2648 16.3346 89.7637 23.4585C97.2625 30.5824 101.481 40.2412 101.493 50.3159C101.493 82.8318 65.129 107.389 63.579 108.417C62.9676 108.824 62.2392 109.042 61.4927 109.042L61.4927 12.3159Z" fill="#3A97DA"/>
<path fill-rule="evenodd" clip-rule="evenodd" d="M61.4927 12.3159C50.8877 12.3274 40.7205 16.3346 33.2217 23.4585C25.7228 30.5824 21.5047 40.2412 21.4927 50.3159C21.4927 82.8318 57.8563 107.389 59.4063 108.417C60.0177 108.824 60.7462 109.042 61.4927 109.042L61.4927 12.3159Z" fill="#3CA5F1"/>
<path d="M74.5287 57.7327C77.1675 57.7327 79.2409 59.8061 79.2409 62.445C79.2409 65.0838 77.1675 67.1572 74.5287 67.1572C71.8898 67.1572 69.8165 65.0838 69.8165 62.445C69.8165 59.8061 71.8898 57.7327 74.5287 57.7327ZM56.3182 58.6752C56.3182 58.6752 58.2031 60.5601 58.2031 62.445V69.0421C58.2031 70.55 59.5226 71.8694 61.0305 71.8694C62.5384 71.8694 63.8578 70.55 63.8578 69.0421V62.445C63.8578 60.5601 65.7427 58.6752 65.7427 58.6752H56.3182ZM58.2031 56.7903H63.8578C63.8578 56.7903 73.2822 56.7903 73.2822 47.3659C73.2822 37.9414 65.7427 34.1716 61.0305 34.1716C56.3182 34.1716 48.7787 37.9414 48.7787 47.3659C48.7787 56.7903 58.2031 56.7903 58.2031 56.7903Z" fill="white"/>
</g>
<defs>
<filter id="filter0_d_1289_926" x="0.592676" y="0.415918" width="121.8" height="138.526" filterUnits="userSpaceOnUse" color-interpolation-filters="sRGB">
<feFlood flood-opacity="0" result="BackgroundImageFix"/>
<feColorMatrix in="SourceAlpha" type="matrix" values="0 0 0 0 0 0 0 0 0 0 0 0 0 0 0 0 0 0 127 0" result="hardAlpha"/>
<feOffset dy="9"/>
<feGaussianBlur stdDeviation="10.45"/>
<feComposite in2="hardAlpha" operator="out"/>
<feColorMatrix type="matrix" values="0 0 0 0 0 0 0 0 0 0 0 0 0 0 0 0 0 0 0.25 0"/>
<feBlend mode="normal" in2="BackgroundImageFix" result="effect1_dropShadow_1289_926"/>
<feBlend mode="normal" in="SourceGraphic" in2="effect1_dropShadow_1289_926" result="shape"/>
</filter>
</defs>
</svg>
