<svg width="123" height="139" viewBox="0 0 123 139" fill="none" xmlns="http://www.w3.org/2000/svg">
<g filter="url(#filter0_d_1289_731)">
<path fill-rule="evenodd" clip-rule="evenodd" d="M61.6745 12.3157C72.2794 12.3271 82.4466 16.3343 89.9454 23.4582C97.4443 30.5821 101.662 40.241 101.674 50.3157C101.674 82.8316 65.3108 107.389 63.7608 108.417C63.1494 108.824 62.421 109.042 61.6744 109.042L61.6745 12.3157Z" fill="#B9E049"/>
<path fill-rule="evenodd" clip-rule="evenodd" d="M61.6744 12.3157C51.0695 12.3271 40.9023 16.3343 33.4035 23.4582C25.9046 30.5821 21.6865 40.241 21.6744 50.3157C21.6744 82.8316 58.0381 107.389 59.5881 108.417C60.1995 108.824 60.9279 109.042 61.6744 109.042L61.6744 12.3157Z" fill="#C1E94F"/>
<path d="M72.2139 58.1869C74.0483 58.1869 75.8076 58.9156 77.1048 60.2128C78.4019 61.5099 79.1306 63.2692 79.1306 65.1036C79.1306 66.9381 78.4019 68.6974 77.1048 69.9945C75.8076 71.2916 74.0483 72.0204 72.2139 72.0204C70.3795 72.0204 68.6202 71.2916 67.323 69.9945C66.0259 68.6974 65.2972 66.9381 65.2972 65.1036C65.2972 63.2692 66.0259 61.5099 67.323 60.2128C68.6202 58.9156 70.3795 58.1869 72.2139 58.1869ZM72.2139 61.6453C71.2967 61.6453 70.417 62.0096 69.7685 62.6582C69.1199 63.3068 68.7555 64.1864 68.7555 65.1036C68.7555 66.0208 69.1199 66.9005 69.7685 67.5491C70.417 68.1976 71.2967 68.562 72.2139 68.562C73.1311 68.562 74.0108 68.1976 74.6593 67.5491C75.3079 66.9005 75.6723 66.0208 75.6723 65.1036C75.6723 64.1864 75.3079 63.3068 74.6593 62.6582C74.0108 62.0096 73.1311 61.6453 72.2139 61.6453ZM51.5501 57.3915C51.5501 57.3915 53.9883 54.936 54.0056 50.0597C53.3831 46.2728 54.8702 41.8288 58.2767 38.4396C63.3432 33.3731 70.7268 32.5431 74.8077 36.5721C78.8367 40.6529 78.0067 48.0366 72.9402 53.1031C69.5509 56.5096 65.1069 57.9967 61.32 57.3742C56.4437 57.3915 53.9883 59.8296 53.9883 59.8296L46.6565 67.1614L44.2184 64.7232L51.5501 57.3915ZM72.3349 39.0448C69.6201 36.3473 64.4326 37.16 60.7148 40.895C57.0144 44.5955 56.1843 49.8003 58.8819 52.4979C61.5967 55.1954 66.7843 54.3654 70.4847 50.6649C74.2197 46.9472 75.0325 41.7596 72.3349 39.0448Z" fill="white"/>
</g>
<defs>
<filter id="filter0_d_1289_731" x="0.774439" y="0.415674" width="121.8" height="138.526" filterUnits="userSpaceOnUse" color-interpolation-filters="sRGB">
<feFlood flood-opacity="0" result="BackgroundImageFix"/>
<feColorMatrix in="SourceAlpha" type="matrix" values="0 0 0 0 0 0 0 0 0 0 0 0 0 0 0 0 0 0 127 0" result="hardAlpha"/>
<feOffset dy="9"/>
<feGaussianBlur stdDeviation="10.45"/>
<feComposite in2="hardAlpha" operator="out"/>
<feColorMatrix type="matrix" values="0 0 0 0 0 0 0 0 0 0 0 0 0 0 0 0 0 0 0.25 0"/>
<feBlend mode="normal" in2="BackgroundImageFix" result="effect1_dropShadow_1289_731"/>
<feBlend mode="normal" in="SourceGraphic" in2="effect1_dropShadow_1289_731" result="shape"/>
</filter>
</defs>
</svg>
