<svg width="81" height="98" viewBox="0 0 81 98" fill="none" xmlns="http://www.w3.org/2000/svg">
<path fill-rule="evenodd" clip-rule="evenodd" d="M40.6745 0.315674C51.2794 0.327111 61.4466 4.33434 68.9454 11.4582C76.4443 18.5821 80.6624 28.241 80.6744 38.3157C80.6744 70.8316 44.3108 95.3891 42.7608 96.4168C42.1494 96.8237 41.421 97.042 40.6744 97.042L40.6745 0.315674Z" fill="#B2DA42"/>
<path fill-rule="evenodd" clip-rule="evenodd" d="M40.6744 0.315674C30.0695 0.327111 19.9023 4.33434 12.4035 11.4582C4.9046 18.5821 0.686469 28.241 0.674438 38.3157C0.674438 70.8316 37.0381 95.3891 38.5881 96.4168C39.1995 96.8237 39.9279 97.042 40.6744 97.042L40.6744 0.315674Z" fill="#C1E94F"/>
<path d="M51.2139 46.1869C53.0483 46.1869 54.8076 46.9156 56.1048 48.2128C57.4019 49.5099 58.1306 51.2692 58.1306 53.1036C58.1306 54.9381 57.4019 56.6974 56.1048 57.9945C54.8076 59.2916 53.0483 60.0204 51.2139 60.0204C49.3795 60.0204 47.6202 59.2916 46.323 57.9945C45.0259 56.6974 44.2972 54.9381 44.2972 53.1036C44.2972 51.2692 45.0259 49.5099 46.323 48.2128C47.6202 46.9156 49.3795 46.1869 51.2139 46.1869ZM51.2139 49.6453C50.2967 49.6453 49.417 50.0096 48.7685 50.6582C48.1199 51.3068 47.7555 52.1864 47.7555 53.1036C47.7555 54.0208 48.1199 54.9005 48.7685 55.5491C49.417 56.1976 50.2967 56.562 51.2139 56.562C52.1311 56.562 53.0108 56.1976 53.6593 55.5491C54.3079 54.9005 54.6723 54.0208 54.6723 53.1036C54.6723 52.1864 54.3079 51.3068 53.6593 50.6582C53.0108 50.0096 52.1311 49.6453 51.2139 49.6453ZM30.5501 45.3915C30.5501 45.3915 32.9883 42.936 33.0056 38.0597C32.3831 34.2728 33.8702 29.8288 37.2767 26.4396C42.3432 21.3731 49.7268 20.5431 53.8077 24.5721C57.8367 28.6529 57.0067 36.0366 51.9402 41.1031C48.5509 44.5096 44.1069 45.9967 40.32 45.3742C35.4437 45.3915 32.9883 47.8296 32.9883 47.8296L25.6565 55.1614L23.2184 52.7232L30.5501 45.3915ZM51.3349 27.0448C48.6201 24.3473 43.4326 25.16 39.7148 28.895C36.0144 32.5955 35.1843 37.8003 37.8819 40.4979C40.5967 43.1954 45.7843 42.3654 49.4847 38.6649C53.2197 34.9472 54.0325 29.7596 51.3349 27.0448Z" fill="white"/>
</svg>
