<svg width="80" height="98" viewBox="0 0 80 98" fill="none" xmlns="http://www.w3.org/2000/svg">
<path fill-rule="evenodd" clip-rule="evenodd" d="M40 0.315674C50.605 0.327111 60.7721 4.33434 68.271 11.4582C75.7698 18.5821 79.988 28.241 80 38.3157C80 70.8316 43.6364 95.3891 42.0864 96.4168C41.4749 96.8237 40.7465 97.042 40 97.042L40 0.315674Z" fill="#ABD043"/>
<path fill-rule="evenodd" clip-rule="evenodd" d="M40 0.315674C29.395 0.327111 19.2279 4.33434 11.729 11.4582C4.23017 18.5821 0.0120306 28.241 0 38.3157C0 70.8316 36.3636 95.3891 37.9136 96.4168C38.5251 96.8237 39.2535 97.042 40 97.042L40 0.315674Z" fill="#C1E94F"/>
<path d="M50.5395 46.1869C52.3739 46.1869 54.1332 46.9156 55.4303 48.2128C56.7275 49.5099 57.4562 51.2692 57.4562 53.1036C57.4562 54.9381 56.7275 56.6974 55.4303 57.9945C54.1332 59.2916 52.3739 60.0204 50.5395 60.0204C48.705 60.0204 46.9457 59.2916 45.6486 57.9945C44.3514 56.6974 43.6227 54.9381 43.6227 53.1036C43.6227 51.2692 44.3514 49.5099 45.6486 48.2128C46.9457 46.9156 48.705 46.1869 50.5395 46.1869ZM50.5395 49.6453C49.6222 49.6453 48.7426 50.0096 48.094 50.6582C47.4454 51.3068 47.0811 52.1864 47.0811 53.1036C47.0811 54.0208 47.4454 54.9005 48.094 55.5491C48.7426 56.1976 49.6222 56.562 50.5395 56.562C51.4567 56.562 52.3363 56.1976 52.9849 55.5491C53.6335 54.9005 53.9978 54.0208 53.9978 53.1036C53.9978 52.1864 53.6335 51.3068 52.9849 50.6582C52.3363 50.0096 51.4567 49.6453 50.5395 49.6453ZM29.8757 45.3915C29.8757 45.3915 32.3138 42.936 32.3311 38.0597C31.7086 34.2728 33.1957 29.8288 36.6022 26.4396C41.6687 21.3731 49.0524 20.5431 53.1332 24.5721C57.1622 28.6529 56.3322 36.0366 51.2657 41.1031C47.8765 44.5096 43.4325 45.9967 39.6456 45.3742C34.7693 45.3915 32.3138 47.8296 32.3138 47.8296L24.9821 55.1614L22.5439 52.7232L29.8757 45.3915ZM50.6605 27.0448C47.9457 24.3473 42.7581 25.16 39.0404 28.895C35.3399 32.5955 34.5099 37.8003 37.2074 40.4979C39.9223 43.1954 45.1098 42.3654 48.8103 38.6649C52.5453 34.9472 53.358 29.7596 50.6605 27.0448Z" fill="white"/>
</svg>
