<svg width="129" height="169" viewBox="0 0 129 169" fill="none" xmlns="http://www.w3.org/2000/svg">
<g filter="url(#filter0_d_1395_129)">
<rect x="62" y="81.25" width="5" height="57.75" fill="#3B82F6"/>
<circle cx="64.5" cy="55.5" r="42.5" fill="#3B82F6" stroke="white" stroke-width="2"/>
<circle cx="64.5" cy="55.5" r="25.75" fill="white"/>
<path d="M53.0011 64.6312V67.0724C52.9841 67.629 53.1653 68.1725 53.5098 68.5989C56.396 72.1209 60.2796 73 64.4989 73C68.7183 73 72.6044 72.1209 75.4902 68.5989C75.8347 68.1725 76.0159 67.629 75.9989 67.0724V64.6312C76.027 62.2471 75.2577 59.9269 73.8224 58.0674C73.2111 57.253 72.4333 56.5901 71.5453 56.1265C70.6574 55.663 69.6814 55.4104 68.6881 55.3871H60.3123C59.3188 55.4102 58.3427 55.6626 57.4547 56.1262C56.5667 56.5898 55.7889 57.2528 55.1776 58.0674C53.7423 59.9269 52.973 62.2471 53.0011 64.6312ZM69.2001 41.0249C68.2701 40.058 67.0853 39.3996 65.7954 39.1328C64.5055 38.8661 63.1685 39.003 61.9535 39.5262C60.7385 40.0495 59.7 40.9356 58.9693 42.0725C58.2386 43.2093 57.8486 44.5459 57.8486 45.9133C57.8486 47.2806 58.2386 48.6172 58.9693 49.7541C59.7 50.8909 60.7385 51.777 61.9535 52.3003C63.1685 52.8235 64.5055 52.9604 65.7954 52.6937C67.0853 52.4269 68.2701 51.7685 69.2001 50.8016C70.4471 49.5052 71.1476 47.7468 71.1476 45.9133C71.1476 44.0798 70.4471 42.3214 69.2001 41.0249Z" fill="#3B82F6"/>
</g>
<defs>
<filter id="filter0_d_1395_129" x="0.1" y="0.1" width="128.8" height="168.8" filterUnits="userSpaceOnUse" color-interpolation-filters="sRGB">
<feFlood flood-opacity="0" result="BackgroundImageFix"/>
<feColorMatrix in="SourceAlpha" type="matrix" values="0 0 0 0 0 0 0 0 0 0 0 0 0 0 0 0 0 0 127 0" result="hardAlpha"/>
<feOffset dy="9"/>
<feGaussianBlur stdDeviation="10.45"/>
<feComposite in2="hardAlpha" operator="out"/>
<feColorMatrix type="matrix" values="0 0 0 0 0 0 0 0 0 0 0 0 0 0 0 0 0 0 0.25 0"/>
<feBlend mode="normal" in2="BackgroundImageFix" result="effect1_dropShadow_1395_129"/>
<feBlend mode="normal" in="SourceGraphic" in2="effect1_dropShadow_1395_129" result="shape"/>
</filter>
</defs>
</svg>
