<svg width="81" height="98" viewBox="0 0 81 98" fill="none" xmlns="http://www.w3.org/2000/svg">
<path fill-rule="evenodd" clip-rule="evenodd" d="M40.6846 0.315735C51.2895 0.327164 61.4567 4.33439 68.9556 11.4583C76.4544 18.5822 80.6725 28.241 80.6846 38.3157C80.6846 70.8316 44.3209 95.3891 42.7709 96.4169C42.1595 96.8238 41.4311 97.042 40.6846 97.042V0.315735Z" fill="#255BC5"/>
<path fill-rule="evenodd" clip-rule="evenodd" d="M40.6846 0.315735C30.0796 0.327164 19.9124 4.33439 12.4136 11.4583C4.91474 18.5822 0.696601 28.241 0.68457 38.3157C0.68457 70.8316 37.0482 95.3891 38.5982 96.4169C39.2096 96.8238 39.9381 97.042 40.6846 97.042V0.315735Z" fill="#255BC5"/>
<path d="M54.0179 56.0203V52.687C54.0179 50.9189 53.3155 49.2232 52.0652 47.9729C50.815 46.7227 49.1193 46.0203 47.3512 46.0203H34.0179C32.2498 46.0203 30.5541 46.7227 29.3038 47.9729C28.0536 49.2232 27.3512 50.9189 27.3512 52.687V56.0203" stroke="white" stroke-width="3.33333" stroke-linecap="round" stroke-linejoin="round"/>
<path d="M40.6846 39.3537C44.3665 39.3537 47.3513 36.3689 47.3513 32.687C47.3513 29.0051 44.3665 26.0203 40.6846 26.0203C37.0027 26.0203 34.0179 29.0051 34.0179 32.687C34.0179 36.3689 37.0027 39.3537 40.6846 39.3537Z" stroke="white" stroke-width="3.33333" stroke-linecap="round" stroke-linejoin="round"/>
</svg>
