<svg width="87" height="127" viewBox="0 0 87 127" fill="none" xmlns="http://www.w3.org/2000/svg">
<rect x="41" y="69.25" width="5" height="57.75" fill="#3B82F6"/>
<circle cx="43.5" cy="43.5" r="42.5" fill="#3B82F6" stroke="white" stroke-width="2"/>
<circle cx="43.5" cy="43.5" r="25.75" fill="white"/>
<path d="M32.0011 52.6312V55.0724C31.9841 55.629 32.1653 56.1725 32.5098 56.5989C35.396 60.1209 39.2796 61 43.4989 61C47.7183 61 51.6044 60.1209 54.4902 56.5989C54.8347 56.1725 55.0159 55.629 54.9989 55.0724V52.6312C55.027 50.2471 54.2577 47.9269 52.8224 46.0674C52.2111 45.253 51.4333 44.5901 50.5453 44.1265C49.6574 43.663 48.6814 43.4104 47.6881 43.3871H39.3123C38.3188 43.4102 37.3427 43.6626 36.4547 44.1262C35.5667 44.5898 34.7889 45.2528 34.1776 46.0674C32.7423 47.9269 31.973 50.2471 32.0011 52.6312ZM48.2001 29.0249C47.2701 28.058 46.0853 27.3996 44.7954 27.1328C43.5055 26.8661 42.1685 27.003 40.9535 27.5262C39.7385 28.0495 38.7 28.9356 37.9693 30.0725C37.2386 31.2093 36.8486 32.5459 36.8486 33.9133C36.8486 35.2806 37.2386 36.6172 37.9693 37.7541C38.7 38.8909 39.7385 39.777 40.9535 40.3003C42.1685 40.8235 43.5055 40.9604 44.7954 40.6937C46.0853 40.4269 47.2701 39.7685 48.2001 38.8016C49.4471 37.5052 50.1476 35.7468 50.1476 33.9133C50.1476 32.0798 49.4471 30.3214 48.2001 29.0249Z" fill="#3B82F6"/>
</svg>
