<svg width="33" height="39" viewBox="0 0 33 39" fill="none" xmlns="http://www.w3.org/2000/svg">
<path d="M29.4773 30.9413C30.2311 30.9413 30.954 31.2408 31.487 31.7738C32.02 32.3068 32.3195 33.0297 32.3195 33.7835C32.3195 34.5372 32.02 35.2602 31.487 35.7932C30.954 36.3262 30.2311 36.6256 29.4773 36.6256C28.7235 36.6256 28.0006 36.3262 27.4676 35.7932C26.9346 35.2602 26.6352 34.5372 26.6352 33.7835C26.6352 33.0297 26.9346 32.3068 27.4676 31.7738C28.0006 31.2408 28.7235 30.9413 29.4773 30.9413ZM24.7404 8.0525L13.3718 13.8884V30.9982C18.7529 31.3013 22.8456 32.8361 22.8456 34.7308C22.8456 36.8151 17.7487 38.5204 11.477 38.5204C5.20533 38.5204 0.108398 36.8151 0.108398 34.7308C0.108398 33.3287 2.40107 32.1161 5.79271 31.4529V34.7308H9.58224V0.625L24.7404 8.0525Z" fill="#C7A015"/>
</svg>
