<svg width="81" height="98" viewBox="0 0 81 98" fill="none" xmlns="http://www.w3.org/2000/svg">
<path fill-rule="evenodd" clip-rule="evenodd" d="M40.7139 0.315918C51.3188 0.327355 61.486 4.33458 68.9849 11.4585C76.4837 18.5824 80.7018 28.2412 80.7139 38.3159C80.7139 70.8318 44.3502 95.3893 42.8002 96.4171C42.1888 96.8239 41.4604 97.0422 40.7139 97.0422L40.7139 0.315918Z" fill="#60C4CA"/>
<path fill-rule="evenodd" clip-rule="evenodd" d="M40.7138 0.315918C30.1089 0.327355 19.9417 4.33458 12.4429 11.4585C4.94403 18.5824 0.725898 28.2412 0.713867 38.3159C0.713867 70.8318 37.0775 95.3893 38.6275 96.4171C39.2389 96.8239 39.9674 97.0422 40.7139 97.0422L40.7138 0.315918Z" fill="#7CDDE3"/>
<path d="M26.6665 24.902C26.6665 23.4613 27.9271 22.0205 29.548 22.0205C31.1688 22.0205 32.4295 23.2812 32.4295 24.902C32.4295 26.5229 30.9888 27.6035 29.548 27.6035C28.1072 27.6035 26.6665 26.3428 26.6665 24.902ZM58.7235 25.6224L57.823 24.0016L43.4154 31.3855L44.3158 33.0063L58.7235 25.6224ZM56.5623 55.1581L58.1832 56.779C57.1026 57.8596 56.0221 58.5799 54.7614 59.1202C53.5007 59.6605 52.06 60.0207 50.6192 60.0207H22.7043V57.6795H27.5669L31.3489 51.3761L27.2067 45.6131L25.766 31.5656C25.766 29.9447 27.2067 28.504 28.8276 28.504C29.3679 28.504 29.9082 28.6841 30.2684 28.8641L36.5717 33.5466L40.7139 32.1059L42.1547 34.9874L35.8513 37.6888C35.6712 37.5087 32.9698 35.5277 30.9888 33.9068L31.7091 40.2102L41.2542 48.3145L44.3158 57.6795H50.6192C51.6998 57.6795 52.7803 57.4994 53.8609 56.9591C54.9415 56.5989 55.842 55.8785 56.5623 55.1581ZM31.7091 57.6795H40.7139L37.8324 50.6557L33.6902 47.2339L35.8513 51.7363L31.7091 57.6795Z" fill="white"/>
</svg>
