<svg width="133" height="150" viewBox="0 0 133 150" fill="none" xmlns="http://www.w3.org/2000/svg">
<g filter="url(#filter0_d_1484_400)">
<path fill-rule="evenodd" clip-rule="evenodd" d="M66.2906 11.958C76.8955 11.9694 87.0627 15.9767 94.5615 23.1006C102.06 30.2245 106.278 39.8833 106.291 49.958C106.291 82.4739 69.9269 107.031 68.3769 108.059C67.7655 108.466 67.037 108.684 66.2905 108.684L66.2906 11.958Z" fill="#376896"/>
<path fill-rule="evenodd" clip-rule="evenodd" d="M66.2905 11.958C55.6855 11.9694 45.5184 15.9767 38.0195 23.1006C30.5207 30.2245 26.3026 39.8833 26.2905 49.958C26.2905 82.4739 62.6542 107.031 64.2042 108.059C64.8156 108.466 65.544 108.684 66.2905 108.684L66.2905 11.958Z" fill="#497AA8"/>
<path d="M75.7904 43.1627C75.7885 44.5639 75.3209 45.9248 74.461 47.0312C73.6011 48.1376 72.3978 48.9267 71.0404 49.2743V60.5793C71.0404 62.679 70.2063 64.6926 68.7216 66.1773C67.237 67.6619 65.2233 68.496 63.1237 68.496C61.0241 68.496 59.0104 67.6619 57.5258 66.1773C56.0411 64.6926 55.207 62.679 55.207 60.5793V52.6627L63.1237 60.5793H58.3737C58.3737 61.8391 58.8741 63.0473 59.7649 63.9381C60.6557 64.8289 61.8639 65.3293 63.1237 65.3293C64.3835 65.3293 65.5917 64.8289 66.4825 63.9381C67.3733 63.0473 67.8737 61.8391 67.8737 60.5793V49.2743C65.0712 48.546 63.1237 46.0127 63.1237 43.1152C63.1237 39.616 65.9737 36.8293 69.457 36.8293C72.972 36.8293 75.7904 39.6635 75.7904 43.1627ZM69.457 46.3293C70.2969 46.3293 71.1023 45.9957 71.6962 45.4019C72.2901 44.808 72.6237 44.0025 72.6237 43.1627C72.6237 42.3228 72.2901 41.5174 71.6962 40.9235C71.1023 40.3296 70.2969 39.996 69.457 39.996C68.6172 39.996 67.8117 40.3296 67.2179 40.9235C66.624 41.5174 66.2904 42.3228 66.2904 43.1627C66.2904 44.0025 66.624 44.808 67.2179 45.4019C67.8117 45.9957 68.6172 46.3293 69.457 46.3293Z" fill="white"/>
</g>
<defs>
<filter id="filter0_d_1484_400" x="0.290527" y="0.958008" width="132" height="148.726" filterUnits="userSpaceOnUse" color-interpolation-filters="sRGB">
<feFlood flood-opacity="0" result="BackgroundImageFix"/>
<feColorMatrix in="SourceAlpha" type="matrix" values="0 0 0 0 0 0 0 0 0 0 0 0 0 0 0 0 0 0 127 0" result="hardAlpha"/>
<feOffset dy="15"/>
<feGaussianBlur stdDeviation="13"/>
<feComposite in2="hardAlpha" operator="out"/>
<feColorMatrix type="matrix" values="0 0 0 0 0 0 0 0 0 0 0 0 0 0 0 0 0 0 0.23 0"/>
<feBlend mode="normal" in2="BackgroundImageFix" result="effect1_dropShadow_1484_400"/>
<feBlend mode="normal" in="SourceGraphic" in2="effect1_dropShadow_1484_400" result="shape"/>
</filter>
</defs>
</svg>
