<svg width="133" height="150" viewBox="0 0 133 150" fill="none" xmlns="http://www.w3.org/2000/svg">
<g filter="url(#filter0_d_1484_387)">
<path fill-rule="evenodd" clip-rule="evenodd" d="M66.8662 11.958C77.4712 11.9694 87.6384 15.9767 95.1372 23.1006C102.636 30.2245 106.854 39.8833 106.866 49.958C106.866 82.4739 70.5026 107.031 68.9526 108.059C68.3411 108.466 67.6127 108.684 66.8662 108.684L66.8662 11.958Z" fill="#6EBF2E"/>
<path fill-rule="evenodd" clip-rule="evenodd" d="M66.8662 11.958C56.2612 11.9694 46.0941 15.9767 38.5952 23.1006C31.0964 30.2245 26.8782 39.8833 26.8662 49.958C26.8662 82.4739 63.2299 107.031 64.7799 108.059C65.3913 108.466 66.1197 108.684 66.8662 108.684L66.8662 11.958Z" fill="#74C732"/>
<path d="M77.0756 46.8796H79.7326V71.7657H77.0756V53.7046C75.6863 53.4268 74.3838 52.9058 73.1508 52.159C71.9177 51.4123 70.8758 50.5439 69.9901 49.5367L68.9134 54.8682L72.7861 58.6888V71.7657H69.3128V61.3459L65.4227 57.5253L62.1752 71.7657H58.424C58.424 71.7657 63.8597 44.3615 63.9118 44.1357C64.1028 43.3021 64.4849 42.6596 65.1275 42.2428C65.77 41.7739 66.4126 41.5481 67.0725 41.5481C67.7498 41.5481 68.375 41.7044 68.9481 42.017C69.5385 42.3123 69.9901 42.7464 70.32 43.3021L72.1609 46.1329C72.6645 47.0707 73.3418 47.8869 74.1927 48.5468C75.0437 49.2067 76.0162 49.7104 77.0756 50.0577V46.8796ZM61.5847 42.0518L59.5876 41.635C58.5977 41.3745 57.6946 41.5829 56.8784 42.1386C56.0796 42.6943 55.5933 43.4584 55.4196 44.4657L54.0129 51.3775C53.9608 51.8812 54.065 52.3327 54.3429 52.7495C54.6208 53.1663 54.9855 53.392 55.4196 53.4615L59.2576 54.2083L61.5847 42.0518ZM69.3128 33.5596C67.4025 33.5596 65.8395 35.1225 65.8395 37.0329C65.8395 38.9432 67.4025 40.5061 69.3128 40.5061C71.2231 40.5061 72.7861 38.9605 72.7861 37.0329C72.7861 35.1052 71.2405 33.5596 69.3128 33.5596Z" fill="white"/>
</g>
<defs>
<filter id="filter0_d_1484_387" x="0.866211" y="0.958008" width="132" height="148.726" filterUnits="userSpaceOnUse" color-interpolation-filters="sRGB">
<feFlood flood-opacity="0" result="BackgroundImageFix"/>
<feColorMatrix in="SourceAlpha" type="matrix" values="0 0 0 0 0 0 0 0 0 0 0 0 0 0 0 0 0 0 127 0" result="hardAlpha"/>
<feOffset dy="15"/>
<feGaussianBlur stdDeviation="13"/>
<feComposite in2="hardAlpha" operator="out"/>
<feColorMatrix type="matrix" values="0 0 0 0 0 0 0 0 0 0 0 0 0 0 0 0 0 0 0.23 0"/>
<feBlend mode="normal" in2="BackgroundImageFix" result="effect1_dropShadow_1484_387"/>
<feBlend mode="normal" in="SourceGraphic" in2="effect1_dropShadow_1484_387" result="shape"/>
</filter>
</defs>
</svg>
