<svg width="81" height="98" viewBox="0 0 81 98" fill="none" xmlns="http://www.w3.org/2000/svg">
<path fill-rule="evenodd" clip-rule="evenodd" d="M40.2704 0.5896C50.8754 0.601036 61.0425 4.60827 68.5414 11.7322C76.0402 18.8561 80.2584 28.5149 80.2704 38.5896C80.2704 71.1055 43.9067 95.663 42.3567 96.6907C41.7453 97.0976 41.0169 97.3159 40.2704 97.3159L40.2704 0.5896Z" fill="#A9622E"/>
<path fill-rule="evenodd" clip-rule="evenodd" d="M40.2704 0.5896C29.6654 0.601036 19.4982 4.60827 11.9994 11.7322C4.50055 18.8561 0.282416 28.5149 0.270386 38.5896C0.270386 71.1055 36.634 95.663 38.184 96.6907C38.7954 97.0976 39.5239 97.3159 40.2704 97.3159L40.2704 0.5896Z" fill="#C6783F"/>
<path d="M40.708 47.4967C40.3529 47.6278 39.9555 47.7039 39.5496 47.7039C39.1141 47.7039 38.6829 47.6532 38.2855 47.539L33.7955 57.8592C33.3854 58.8104 32.2566 59.1317 31.2715 58.5779C30.2906 58.024 29.8256 56.8107 30.2484 55.8594L35.753 43.2351H42.7712V42.0555L46.3226 40.4024C47.2527 39.9501 48.4619 40.7238 48.7071 41.7088L50.4489 48.6932C50.6984 49.6825 50.0938 50.6845 49.1045 50.9297C48.1109 51.1792 47.1047 50.5746 46.8595 49.5853L45.7518 45.1334L40.708 47.4967Z" fill="white"/>
<path d="M43.9423 40.2627C51.6327 36.4492 54.6133 23.3852 54.6133 22.2944H53.5564C53.1589 25.0172 49.857 35.9207 43.9423 39.0832V40.2627Z" fill="white"/>
<path d="M29.7537 37.4048C30.1554 38.0347 30.9671 38.3138 31.6858 38.0178L35.753 36.4239V42.0639H42.7712V35.5318L49.0622 25.4654C49.5231 24.7297 49.3117 23.7573 48.5676 23.2838C47.8319 22.823 46.8595 23.0386 46.4452 23.7573L41.1012 32.3102L37.8838 32.3187C37.6767 32.3187 37.4695 32.3525 37.2624 32.4328L31.7028 34.6144L28.8363 30.2724C28.367 29.5452 27.3904 29.3296 26.6547 29.7989C25.9191 30.2724 25.7077 31.2533 26.177 31.9889L29.7537 37.4048Z" fill="white"/>
<path d="M38.78 31.7396C40.3274 31.7396 41.5831 30.4924 41.5831 28.9492C41.5831 27.4061 40.3274 26.1504 38.78 26.1504C37.2369 26.1504 35.9812 27.4061 35.9812 28.9492C35.9812 30.4924 37.2369 31.7396 38.78 31.7396Z" fill="white"/>
<path d="M42.7711 60.2943V48.2532L41.5916 48.2534V60.2943H42.7711Z" fill="white"/>
</svg>
