<svg width="123" height="140" viewBox="0 0 123 140" fill="none" xmlns="http://www.w3.org/2000/svg">
<g filter="url(#filter0_d_1295_242)">
<path fill-rule="evenodd" clip-rule="evenodd" d="M61.2704 12.5896C71.8754 12.601 82.0425 16.6083 89.5414 23.7322C97.0402 30.8561 101.258 40.5149 101.27 50.5896C101.27 83.1055 64.9067 107.663 63.3567 108.691C62.7453 109.098 62.0169 109.316 61.2704 109.316L61.2704 12.5896Z" fill="#BC6F36"/>
<path fill-rule="evenodd" clip-rule="evenodd" d="M61.2704 12.5896C50.6654 12.601 40.4982 16.6083 32.9994 23.7322C25.5006 30.8561 21.2824 40.5149 21.2704 50.5896C21.2704 83.1055 57.634 107.663 59.184 108.691C59.7954 109.098 60.5239 109.316 61.2704 109.316L61.2704 12.5896Z" fill="#C6783F"/>
<path d="M61.708 59.4967C61.3529 59.6278 60.9555 59.7039 60.5496 59.7039C60.1141 59.7039 59.6829 59.6532 59.2855 59.539L54.7955 69.8592C54.3854 70.8104 53.2566 71.1317 52.2715 70.5779C51.2906 70.024 50.8256 68.8107 51.2484 67.8594L56.753 55.2351H63.7712V54.0555L67.3226 52.4024C68.2527 51.9501 69.4619 52.7238 69.7071 53.7088L71.4489 60.6932C71.6984 61.6825 71.0938 62.6845 70.1045 62.9297C69.1109 63.1792 68.1047 62.5746 67.8595 61.5853L66.7518 57.1334L61.708 59.4967Z" fill="white"/>
<path d="M64.9423 52.2627C72.6327 48.4492 75.6133 35.3852 75.6133 34.2944H74.5564C74.1589 37.0172 70.857 47.9207 64.9423 51.0832V52.2627Z" fill="white"/>
<path d="M50.7537 49.4048C51.1554 50.0347 51.9671 50.3138 52.6858 50.0178L56.753 48.4239V54.0639H63.7712V47.5318L70.0622 37.4654C70.5231 36.7297 70.3117 35.7573 69.5676 35.2838C68.8319 34.823 67.8595 35.0386 67.4452 35.7573L62.1012 44.3102L58.8838 44.3187C58.6767 44.3187 58.4695 44.3525 58.2624 44.4328L52.7028 46.6144L49.8363 42.2724C49.367 41.5452 48.3904 41.3296 47.6547 41.7989C46.9191 42.2724 46.7077 43.2533 47.177 43.9889L50.7537 49.4048Z" fill="white"/>
<path d="M59.78 43.7396C61.3274 43.7396 62.5831 42.4924 62.5831 40.9492C62.5831 39.4061 61.3274 38.1504 59.78 38.1504C58.2369 38.1504 56.9812 39.4061 56.9812 40.9492C56.9812 42.4924 58.2369 43.7396 59.78 43.7396Z" fill="white"/>
<path d="M63.7711 72.2943V60.2532L62.5916 60.2534V72.2943H63.7711Z" fill="white"/>
</g>
<defs>
<filter id="filter0_d_1295_242" x="0.370386" y="0.6896" width="121.8" height="138.526" filterUnits="userSpaceOnUse" color-interpolation-filters="sRGB">
<feFlood flood-opacity="0" result="BackgroundImageFix"/>
<feColorMatrix in="SourceAlpha" type="matrix" values="0 0 0 0 0 0 0 0 0 0 0 0 0 0 0 0 0 0 127 0" result="hardAlpha"/>
<feOffset dy="9"/>
<feGaussianBlur stdDeviation="10.45"/>
<feComposite in2="hardAlpha" operator="out"/>
<feColorMatrix type="matrix" values="0 0 0 0 0 0 0 0 0 0 0 0 0 0 0 0 0 0 0.25 0"/>
<feBlend mode="normal" in2="BackgroundImageFix" result="effect1_dropShadow_1295_242"/>
<feBlend mode="normal" in="SourceGraphic" in2="effect1_dropShadow_1295_242" result="shape"/>
</filter>
</defs>
</svg>
