<svg width="123" height="139" viewBox="0 0 123 139" fill="none" xmlns="http://www.w3.org/2000/svg">
<g filter="url(#filter0_d_1434_114)">
<path fill-rule="evenodd" clip-rule="evenodd" d="M61.8664 11.958C72.4713 11.9694 82.6385 15.9767 90.1373 23.1006C97.6362 30.2245 101.854 39.8833 101.866 49.958C101.866 82.4739 65.5027 107.031 63.9527 108.059C63.3413 108.466 62.6128 108.684 61.8663 108.684L61.8664 11.958Z" fill="#6EBF2E"/>
<path fill-rule="evenodd" clip-rule="evenodd" d="M61.8663 11.958C51.2614 11.9694 41.0942 15.9767 33.5953 23.1006C26.0965 30.2245 21.8784 39.8833 21.8663 49.958C21.8663 82.4739 58.23 107.031 59.78 108.059C60.3914 108.466 61.1198 108.684 61.8663 108.684L61.8663 11.958Z" fill="#74C732"/>
<path d="M72.0756 46.8796H74.7326V71.7657H72.0756V53.7046C70.6863 53.4268 69.3838 52.9058 68.1508 52.159C66.9177 51.4123 65.8758 50.5439 64.9901 49.5367L63.9134 54.8682L67.7861 58.6888V71.7657H64.3128V61.3459L60.4227 57.5253L57.1752 71.7657H53.424C53.424 71.7657 58.8597 44.3615 58.9118 44.1357C59.1028 43.3021 59.4849 42.6596 60.1275 42.2428C60.77 41.7739 61.4126 41.5481 62.0725 41.5481C62.7498 41.5481 63.375 41.7044 63.9481 42.017C64.5385 42.3123 64.9901 42.7464 65.32 43.3021L67.1609 46.1329C67.6645 47.0707 68.3418 47.8869 69.1927 48.5468C70.0437 49.2067 71.0162 49.7104 72.0756 50.0577V46.8796ZM56.5847 42.0518L54.5876 41.635C53.5977 41.3745 52.6946 41.5829 51.8784 42.1386C51.0796 42.6943 50.5933 43.4584 50.4196 44.4657L49.0129 51.3775C48.9608 51.8812 49.065 52.3327 49.3429 52.7495C49.6208 53.1663 49.9855 53.392 50.4196 53.4615L54.2576 54.2083L56.5847 42.0518ZM64.3128 33.5596C62.4025 33.5596 60.8395 35.1225 60.8395 37.0329C60.8395 38.9432 62.4025 40.5061 64.3128 40.5061C66.2231 40.5061 67.7861 38.9605 67.7861 37.0329C67.7861 35.1052 66.2405 33.5596 64.3128 33.5596Z" fill="white"/>
</g>
<defs>
<filter id="filter0_d_1434_114" x="0.966333" y="0.0580082" width="121.8" height="138.526" filterUnits="userSpaceOnUse" color-interpolation-filters="sRGB">
<feFlood flood-opacity="0" result="BackgroundImageFix"/>
<feColorMatrix in="SourceAlpha" type="matrix" values="0 0 0 0 0 0 0 0 0 0 0 0 0 0 0 0 0 0 127 0" result="hardAlpha"/>
<feOffset dy="9"/>
<feGaussianBlur stdDeviation="10.45"/>
<feComposite in2="hardAlpha" operator="out"/>
<feColorMatrix type="matrix" values="0 0 0 0 0 0 0 0 0 0 0 0 0 0 0 0 0 0 0.25 0"/>
<feBlend mode="normal" in2="BackgroundImageFix" result="effect1_dropShadow_1434_114"/>
<feBlend mode="normal" in="SourceGraphic" in2="effect1_dropShadow_1434_114" result="shape"/>
</filter>
</defs>
</svg>
