<svg width="123" height="139" viewBox="0 0 123 139" fill="none" xmlns="http://www.w3.org/2000/svg">
<g filter="url(#filter0_d_1289_952)">
<path fill-rule="evenodd" clip-rule="evenodd" d="M61.2907 11.958C71.8956 11.9694 82.0628 15.9767 89.5616 23.1006C97.0605 30.2245 101.279 39.8833 101.291 49.958C101.291 82.4739 64.927 107.031 63.377 108.059C62.7656 108.466 62.0372 108.684 61.2906 108.684L61.2907 11.958Z" fill="#376896"/>
<path fill-rule="evenodd" clip-rule="evenodd" d="M61.2906 11.958C50.6857 11.9694 40.5185 15.9767 33.0197 23.1006C25.5208 30.2245 21.3027 39.8833 21.2906 49.958C21.2906 82.4739 57.6543 107.031 59.2043 108.059C59.8157 108.466 60.5441 108.684 61.2907 108.684L61.2906 11.958Z" fill="#497AA8"/>
<path d="M70.7906 43.1627C70.7888 44.5639 70.3211 45.9248 69.4612 47.0312C68.6014 48.1376 67.398 48.9267 66.0406 49.2743V60.5793C66.0406 62.679 65.2065 64.6926 63.7219 66.1773C62.2372 67.6619 60.2236 68.496 58.1239 68.496C56.0243 68.496 54.0107 67.6619 52.526 66.1773C51.0414 64.6926 50.2073 62.679 50.2073 60.5793V52.6627L58.1239 60.5793H53.3739C53.3739 61.8391 53.8744 63.0473 54.7652 63.9381C55.656 64.8289 56.8642 65.3293 58.1239 65.3293C59.3837 65.3293 60.5919 64.8289 61.4827 63.9381C62.3735 63.0473 62.8739 61.8391 62.8739 60.5793V49.2743C60.0714 48.546 58.1239 46.0127 58.1239 43.1152C58.1239 39.616 60.9739 36.8293 64.4573 36.8293C67.9723 36.8293 70.7906 39.6635 70.7906 43.1627ZM64.4573 46.3293C65.2971 46.3293 66.1026 45.9957 66.6964 45.4019C67.2903 44.808 67.6239 44.0025 67.6239 43.1627C67.6239 42.3228 67.2903 41.5174 66.6964 40.9235C66.1026 40.3296 65.2971 39.996 64.4573 39.996C63.6174 39.996 62.812 40.3296 62.2181 40.9235C61.6242 41.5174 61.2906 42.3228 61.2906 43.1627C61.2906 44.0025 61.6242 44.808 62.2181 45.4019C62.812 45.9957 63.6174 46.3293 64.4573 46.3293Z" fill="white"/>
</g>
<defs>
<filter id="filter0_d_1289_952" x="0.39065" y="0.0580082" width="121.8" height="138.526" filterUnits="userSpaceOnUse" color-interpolation-filters="sRGB">
<feFlood flood-opacity="0" result="BackgroundImageFix"/>
<feColorMatrix in="SourceAlpha" type="matrix" values="0 0 0 0 0 0 0 0 0 0 0 0 0 0 0 0 0 0 127 0" result="hardAlpha"/>
<feOffset dy="9"/>
<feGaussianBlur stdDeviation="10.45"/>
<feComposite in2="hardAlpha" operator="out"/>
<feColorMatrix type="matrix" values="0 0 0 0 0 0 0 0 0 0 0 0 0 0 0 0 0 0 0.25 0"/>
<feBlend mode="normal" in2="BackgroundImageFix" result="effect1_dropShadow_1289_952"/>
<feBlend mode="normal" in="SourceGraphic" in2="effect1_dropShadow_1289_952" result="shape"/>
</filter>
</defs>
</svg>
