<svg width="81" height="98" viewBox="0 0 81 98" fill="none" xmlns="http://www.w3.org/2000/svg">
<path fill-rule="evenodd" clip-rule="evenodd" d="M40.7139 0.315674C51.3188 0.327111 61.486 4.33434 68.9849 11.4582C76.4837 18.5821 80.7018 28.241 80.7139 38.3157C80.7139 70.8316 44.3502 95.3891 42.8002 96.4168C42.1888 96.8237 41.4604 97.042 40.7139 97.042L40.7139 0.315674Z" fill="#AE51B0"/>
<path fill-rule="evenodd" clip-rule="evenodd" d="M40.7138 0.315674C30.1089 0.327111 19.9417 4.33434 12.4429 11.4582C4.94403 18.5821 0.725898 28.241 0.713867 38.3157C0.713867 70.8316 37.0775 95.3891 38.6275 96.4168C39.2389 96.8237 39.9674 97.042 40.7139 97.042L40.7138 0.315674Z" fill="#CD68CF"/>
<path d="M41.6882 22.0203C40.6546 22.0203 39.6633 22.4309 38.9323 23.1618C38.2014 23.8927 37.7908 24.884 37.7908 25.9177C37.7908 26.9514 38.2014 27.9427 38.9323 28.6736C39.6633 29.4045 40.6546 29.8151 41.6882 29.8151C43.8513 29.8151 45.5857 28.0808 45.5857 25.9177C45.5857 24.884 45.1751 23.8927 44.4441 23.1618C43.7132 22.4309 42.7219 22.0203 41.6882 22.0203ZM24.1498 31.7639V35.6613H35.8421V47.3536L25.9621 57.2336L28.7098 60.0203L41.8052 46.9054L49.4831 51.5044V59.0459H53.3805V50.4131C53.3805 49.7115 53.0298 49.088 52.4062 48.7372L45.5857 44.6254V35.6613H57.278V31.7639H24.1498Z" fill="white"/>
</svg>
