<svg width="133" height="150" viewBox="0 0 133 150" fill="none" xmlns="http://www.w3.org/2000/svg">
<g filter="url(#filter0_d_1484_274)">
<path fill-rule="evenodd" clip-rule="evenodd" d="M66.8965 11.7686C77.5015 11.78 87.6686 15.7872 95.1675 22.9111C102.666 30.035 106.884 39.6938 106.896 49.7686C106.896 82.2845 70.5328 106.842 68.9828 107.87C68.3714 108.277 67.643 108.495 66.8965 108.495L66.8965 11.7686Z" fill="#82D4EE"/>
<path fill-rule="evenodd" clip-rule="evenodd" d="M66.8965 11.7686C56.2915 11.78 46.1243 15.7872 38.6255 22.9111C31.1267 30.035 26.9085 39.6938 26.8965 49.7686C26.8965 82.2845 63.2601 106.842 64.8101 107.87C65.4215 108.277 66.15 108.495 66.8965 108.495L66.8965 11.7686Z" fill="#85DFFC"/>
<path d="M51.41 55.0538L65.2217 35.2514V55.0538H51.41ZM67.8113 55.0538C70.142 48.5796 69.8313 39.8783 67.8113 33.4731C76.0292 36.1319 82.3135 46.2489 82.4171 55.0538H67.8113ZM82.6588 61.2345C81.951 62.3394 81.1223 63.289 80.1555 64.1004C79.0333 63.5997 78.0319 62.8228 77.2378 61.9596C74.6653 65.2916 69.4687 65.2916 66.8963 61.9596C64.3584 65.2916 59.1273 65.2916 56.5894 61.9596C55.7262 62.8228 54.7766 63.5997 53.6544 64.1004C51.6863 62.4775 50.2015 60.1641 49.6836 57.6435H84.109C83.8405 58.9164 83.3495 60.132 82.6588 61.2345ZM82.4171 71.4551C80.5871 71.4551 78.8606 71.0235 77.2378 70.1602C74.0611 71.8867 70.073 71.8867 66.8963 70.1602C63.7196 71.8867 59.7315 71.8867 56.5894 70.1602C54.4659 71.3515 52.0316 71.5414 49.6836 71.4551V68.0022C52.1179 68.0885 54.4659 67.8295 56.5894 66.2757C59.5934 68.4338 63.8578 68.4338 66.8963 66.2757C69.9521 68.4338 74.1992 68.4338 77.2378 66.2757C79.3268 67.8295 81.692 68.0885 84.109 68.0022V71.4551H82.4171Z" fill="white"/>
</g>
<defs>
<filter id="filter0_d_1484_274" x="0.896484" y="0.768555" width="132" height="148.726" filterUnits="userSpaceOnUse" color-interpolation-filters="sRGB">
<feFlood flood-opacity="0" result="BackgroundImageFix"/>
<feColorMatrix in="SourceAlpha" type="matrix" values="0 0 0 0 0 0 0 0 0 0 0 0 0 0 0 0 0 0 127 0" result="hardAlpha"/>
<feOffset dy="15"/>
<feGaussianBlur stdDeviation="13"/>
<feComposite in2="hardAlpha" operator="out"/>
<feColorMatrix type="matrix" values="0 0 0 0 0 0 0 0 0 0 0 0 0 0 0 0 0 0 0.23 0"/>
<feBlend mode="normal" in2="BackgroundImageFix" result="effect1_dropShadow_1484_274"/>
<feBlend mode="normal" in="SourceGraphic" in2="effect1_dropShadow_1484_274" result="shape"/>
</filter>
</defs>
</svg>
