<svg width="80" height="97" viewBox="0 0 80 97" fill="none" xmlns="http://www.w3.org/2000/svg">
<path fill-rule="evenodd" clip-rule="evenodd" d="M40 0C50.605 0.0114367 60.7721 4.01867 68.271 11.1426C75.7698 18.2665 79.988 27.9253 80 38C80 70.5159 43.6364 95.0734 42.0864 96.1011C41.4749 96.508 40.7465 96.7263 40 96.7263L40 0Z" fill="#3B9649"/>
<path fill-rule="evenodd" clip-rule="evenodd" d="M40 0C29.395 0.0114367 19.2279 4.01867 11.729 11.1426C4.23017 18.2665 0.0120306 27.9253 0 38C0 70.5159 36.3636 95.0734 37.9136 96.1011C38.5251 96.508 39.2535 96.7263 40 96.7263L40 0Z" fill="#49A858"/>
<path d="M41.5465 32.2164C43.9635 32.2164 45.9299 30.2498 45.9299 27.8326C45.9299 25.4156 43.9635 23.4492 41.5465 23.4492C39.1299 23.4492 37.1641 25.4156 37.1641 27.8326C37.1641 30.2499 39.1299 32.2164 41.5465 32.2164Z" fill="white"/>
<path d="M52.1063 56.4103L48.3979 50.2543C48.2244 49.9662 47.9773 49.338 47.9081 49.0096L46.5294 40.6368L46.6516 40.6294C47.5884 40.5726 48.3727 40.0771 48.7498 39.3038C49.127 38.5306 49.0346 37.6074 48.5026 36.8345L46.2638 33.581C45.9176 33.0778 45.4261 32.7774 44.7341 32.7774C44.7182 32.7774 37.882 32.7774 37.882 32.7774L34.6882 22.3769C34.8398 22.3529 34.9926 22.3402 35.1465 22.3402C35.5166 22.3402 35.8167 22.0402 35.8167 21.6701C35.8167 21.3 35.5166 21 35.1465 21C33.0409 21 31.0983 22.5347 29.6762 25.3213C28.6 27.4304 27.9101 30.0845 27.6749 32.9562C27.0482 33.2543 26.6138 33.8935 26.6138 34.6324C26.6138 35.344 27.0168 35.9631 27.6065 36.274C27.738 39.5736 28.4611 42.6497 29.6761 45.0307C31.0982 47.8174 33.0409 49.3521 35.1465 49.3521C35.5165 49.3521 35.8166 49.052 35.8166 48.682C35.8166 48.3119 35.5165 48.0118 35.1465 48.0118C35.0455 48.0118 34.9452 48.0063 34.8452 47.9959L37.9413 40.9346C38.1512 41.0319 38.3815 41.0905 38.6238 41.1027L38.7679 42.7131C38.7721 42.8032 38.7564 42.8561 38.7492 42.8893L35.5551 57.6295C35.3267 58.6835 35.9984 59.7268 37.0526 59.9554C37.1902 59.9849 37.3301 60 37.4683 60C38.3813 60 39.1844 59.3515 39.3781 58.4579L42.2051 45.4117H43.1531L44.0805 49.8156C44.2404 50.5749 44.647 51.608 45.0472 52.2725L48.7556 58.4287C49.1128 59.0217 49.7397 59.3757 50.4326 59.3757C50.7868 59.3757 51.1352 59.2786 51.4402 59.0949C52.3639 58.5385 52.6627 57.3343 52.1063 56.4103ZM33.4336 22.8571L36.4802 32.7775H29.0392C29.4898 28.0828 31.2287 24.2104 33.4336 22.8571ZM28.9586 36.4873H37.6195L37.9501 37.564C37.272 37.8735 36.8187 38.5771 36.8664 39.3644C36.8764 39.5289 36.9094 39.6868 36.9592 39.8367L33.5669 47.5734C31.1296 46.2012 29.2319 41.7608 28.9586 36.4873Z" fill="white"/>
</svg>
