<svg width="122" height="139" viewBox="0 0 122 139" fill="none" xmlns="http://www.w3.org/2000/svg">
<g filter="url(#filter0_d_1392_142)">
<path fill-rule="evenodd" clip-rule="evenodd" d="M61 12C71.605 12.0114 81.7721 16.0187 89.271 23.1426C96.7698 30.2665 100.988 39.9253 101 50C101 82.5159 64.6364 107.073 63.0864 108.101C62.4749 108.508 61.7465 108.726 61 108.726L61 12Z" fill="#3E9D4D"/>
<path fill-rule="evenodd" clip-rule="evenodd" d="M61 12C50.395 12.0114 40.2279 16.0187 32.729 23.1426C25.2302 30.2665 21.012 39.9253 21 50C21 82.5159 57.3636 107.073 58.9136 108.101C59.5251 108.508 60.2535 108.726 61 108.726L61 12Z" fill="#49A858"/>
<path d="M62.5465 44.2164C64.9635 44.2164 66.9299 42.2498 66.9299 39.8326C66.9299 37.4156 64.9635 35.4492 62.5465 35.4492C60.1299 35.4492 58.1641 37.4156 58.1641 39.8326C58.1641 42.2499 60.1299 44.2164 62.5465 44.2164Z" fill="white"/>
<path d="M73.1063 68.4103L69.3979 62.2543C69.2244 61.9662 68.9773 61.338 68.9081 61.0096L67.5294 52.6368L67.6516 52.6294C68.5884 52.5726 69.3727 52.0771 69.7498 51.3038C70.127 50.5306 70.0346 49.6074 69.5026 48.8345L67.2638 45.581C66.9176 45.0778 66.4261 44.7774 65.7341 44.7774C65.7182 44.7774 58.882 44.7774 58.882 44.7774L55.6882 34.3769C55.8398 34.3529 55.9926 34.3402 56.1465 34.3402C56.5166 34.3402 56.8167 34.0402 56.8167 33.6701C56.8167 33.3 56.5166 33 56.1465 33C54.0409 33 52.0983 34.5347 50.6762 37.3213C49.6 39.4304 48.9101 42.0845 48.6749 44.9562C48.0482 45.2543 47.6138 45.8935 47.6138 46.6324C47.6138 47.344 48.0168 47.9631 48.6065 48.274C48.738 51.5736 49.4611 54.6497 50.6761 57.0307C52.0982 59.8174 54.0409 61.3521 56.1465 61.3521C56.5165 61.3521 56.8166 61.052 56.8166 60.682C56.8166 60.3119 56.5165 60.0118 56.1465 60.0118C56.0455 60.0118 55.9452 60.0063 55.8452 59.9959L58.9413 52.9346C59.1512 53.0319 59.3815 53.0905 59.6238 53.1027L59.7679 54.7131C59.7721 54.8032 59.7564 54.8561 59.7492 54.8893L56.5551 69.6295C56.3267 70.6835 56.9984 71.7268 58.0526 71.9554C58.1902 71.9849 58.3301 72 58.4683 72C59.3813 72 60.1844 71.3515 60.3781 70.4579L63.2051 57.4117H64.1531L65.0805 61.8156C65.2404 62.5749 65.647 63.608 66.0472 64.2725L69.7556 70.4287C70.1128 71.0217 70.7397 71.3757 71.4326 71.3757C71.7868 71.3757 72.1352 71.2786 72.4402 71.0949C73.3639 70.5385 73.6627 69.3343 73.1063 68.4103ZM54.4336 34.8571L57.4802 44.7775H50.0392C50.4898 40.0828 52.2287 36.2104 54.4336 34.8571ZM49.9586 48.4873H58.6195L58.9501 49.564C58.272 49.8735 57.8187 50.5771 57.8664 51.3644C57.8764 51.5289 57.9094 51.6868 57.9592 51.8367L54.5669 59.5734C52.1296 58.2012 50.2319 53.7608 49.9586 48.4873Z" fill="white"/>
</g>
<defs>
<filter id="filter0_d_1392_142" x="0.1" y="0.1" width="121.8" height="138.526" filterUnits="userSpaceOnUse" color-interpolation-filters="sRGB">
<feFlood flood-opacity="0" result="BackgroundImageFix"/>
<feColorMatrix in="SourceAlpha" type="matrix" values="0 0 0 0 0 0 0 0 0 0 0 0 0 0 0 0 0 0 127 0" result="hardAlpha"/>
<feOffset dy="9"/>
<feGaussianBlur stdDeviation="10.45"/>
<feComposite in2="hardAlpha" operator="out"/>
<feColorMatrix type="matrix" values="0 0 0 0 0 0 0 0 0 0 0 0 0 0 0 0 0 0 0.25 0"/>
<feBlend mode="normal" in2="BackgroundImageFix" result="effect1_dropShadow_1392_142"/>
<feBlend mode="normal" in="SourceGraphic" in2="effect1_dropShadow_1392_142" result="shape"/>
</filter>
</defs>
</svg>
