<svg width="122" height="140" viewBox="0 0 122 140" fill="none" xmlns="http://www.w3.org/2000/svg">
<g filter="url(#filter0_d_1289_822)">
<path fill-rule="evenodd" clip-rule="evenodd" d="M60.8968 12.7686C71.5017 12.78 81.6689 16.7872 89.1677 23.9111C96.6666 31.035 100.885 40.6938 100.897 50.7686C100.897 83.2845 64.5331 107.842 62.9831 108.87C62.3717 109.277 61.6432 109.495 60.8967 109.495L60.8968 12.7686Z" fill="#82D4EE"/>
<path fill-rule="evenodd" clip-rule="evenodd" d="M60.8967 12.7686C50.2917 12.78 40.1246 16.7872 32.6257 23.9111C25.1269 31.035 20.9088 40.6938 20.8967 50.7686C20.8967 83.2845 57.2604 107.842 58.8104 108.87C59.4218 109.277 60.1502 109.495 60.8967 109.495L60.8967 12.7686Z" fill="#85DFFC"/>
<path d="M45.4105 56.0538L59.2221 36.2514V56.0538H45.4105ZM61.8118 56.0538C64.1425 49.5796 63.8318 40.8783 61.8118 34.4731C70.0297 37.1319 76.314 47.2489 76.4176 56.0538H61.8118ZM76.6593 62.2345C75.9515 63.3394 75.1228 64.289 74.1559 65.1004C73.0337 64.5997 72.0324 63.8228 71.2382 62.9596C68.6658 66.2916 63.4692 66.2916 60.8968 62.9596C58.3589 66.2916 53.1278 66.2916 50.5899 62.9596C49.7267 63.8228 48.7771 64.5997 47.6549 65.1004C45.6868 63.4775 44.202 61.1641 43.6841 58.6435H78.1095C77.8409 59.9164 77.35 61.132 76.6593 62.2345ZM76.4176 72.4551C74.5876 72.4551 72.8611 72.0235 71.2382 71.1602C68.0616 72.8867 64.0735 72.8867 60.8968 71.1602C57.7201 72.8867 53.732 72.8867 50.5899 71.1602C48.4664 72.3515 46.0321 72.5414 43.6841 72.4551V69.0022C46.1184 69.0885 48.4664 68.8295 50.5899 67.2757C53.5939 69.4338 57.8582 69.4338 60.8968 67.2757C63.9526 69.4338 68.1997 69.4338 71.2382 67.2757C73.3272 68.8295 75.6925 69.0885 78.1095 69.0022V72.4551H76.4176Z" fill="white"/>
</g>
<defs>
<filter id="filter0_d_1289_822" x="-0.0032711" y="0.868555" width="121.8" height="138.526" filterUnits="userSpaceOnUse" color-interpolation-filters="sRGB">
<feFlood flood-opacity="0" result="BackgroundImageFix"/>
<feColorMatrix in="SourceAlpha" type="matrix" values="0 0 0 0 0 0 0 0 0 0 0 0 0 0 0 0 0 0 127 0" result="hardAlpha"/>
<feOffset dy="9"/>
<feGaussianBlur stdDeviation="10.45"/>
<feComposite in2="hardAlpha" operator="out"/>
<feColorMatrix type="matrix" values="0 0 0 0 0 0 0 0 0 0 0 0 0 0 0 0 0 0 0.25 0"/>
<feBlend mode="normal" in2="BackgroundImageFix" result="effect1_dropShadow_1289_822"/>
<feBlend mode="normal" in="SourceGraphic" in2="effect1_dropShadow_1289_822" result="shape"/>
</filter>
</defs>
</svg>
